SplineFontDB: 3.2
FontName: GjmRealbook
FullName: GJM realbook Regular
FamilyName: GJM realbook
Weight: Book
Version: 5.00
ItalicAngle: 0
UnderlinePosition: -359
UnderlineWidth: 175
Ascent: 1638
Descent: 410
InvalidEm: 0
sfntRevision: 0x00050000
LayerCount: 2
Layer: 0 1 "+tLe6dAAA" 1
Layer: 1 1 "+xV66dAAA" 0
XUID: [1021 41 -619591949 13961380]
StyleMap: 0x0040
FSType: 0
OS2Version: 1
OS2_WeightWidthSlopeOnly: 0
OS2_UseTypoMetrics: 0
CreationTime: 815830203
ModificationTime: 1693518989
PfmFamily: 65
TTFWeight: 400
TTFWidth: 5
LineGap: 0
VLineGap: 0
Panose: 3 15 7 2 3 3 2 2 2 4
OS2TypoAscent: 1638
OS2TypoAOffset: 0
OS2TypoDescent: -597
OS2TypoDOffset: 0
OS2TypoLinegap: 0
OS2WinAscent: 2257
OS2WinAOffset: 0
OS2WinDescent: 597
OS2WinDOffset: 0
HheadAscent: 2257
HheadAOffset: 0
HheadDescent: -597
HheadDOffset: 0
OS2SubXSize: 1434
OS2SubYSize: 1331
OS2SubXOff: 0
OS2SubYOff: 293
OS2SupXSize: 1434
OS2SupYSize: 1331
OS2SupXOff: 0
OS2SupYOff: 928
OS2StrikeYSize: 175
OS2StrikeYPos: 630
OS2FamilyClass: 2568
OS2Vendor: 'OPTM'
OS2CodePages: 2000009f.00000000
OS2UnicodeRanges: 00000287.00000000.00000000.00000000
Lookup: 1 0 0 "'locl' +rW2sAAAA,+ycDF7QAA +rODHINYV +t3zS9AAA +uzjHkAAA +yHDWjAAA 0" { "'locl' +rW2sAAAA,+ycDF7QAA +rODHINYV +t3zS9AAA +uzjHkAAA +yHDWjAAA 0 +1VjHBAAA +0UzHdL4U"  } ['locl' ('latn' <'LTH ' > ) ]
Lookup: 1 0 0 "'locl' +rW2sAAAA,+ycDF7QAA +rODHINYV +t3zS9AAA +uzjHkAAA +yHDWjAAA 1" { "'locl' +rW2sAAAA,+ycDF7QAA +rODHINYV +t3zS9AAA +uzjHkAAA +yHDWjAAA 1 +1VjHBAAA +0UzHdL4U"  } ['locl' ('latn' <'ROM ' > ) ]
DEI: 91125
TtTable: prep
PUSHW_6
 15
 280
 127
 279
 143
 279
NPUSHB
 13
 3
 127
 160
 143
 160
 159
 160
 175
 160
 191
 160
 5
 0
PUSHW_3
 272
 16
 272
NPUSHB
 9
 127
 130
 143
 130
 159
 130
 175
 130
 160
PUSHW_1
 272
PUSHB_3
 191
 130
 176
PUSHW_3
 272
 9
 -64
NPUSHB
 255
 68
 16
 20
 70
 18
 17
 8
 64
 178
 147
 147
 52
 62
 122
 122
 51
 62
 148
 148
 52
 62
 123
 123
 51
 62
 151
 151
 51
 62
 114
 114
 51
 62
 152
 152
 51
 62
 96
 96
 51
 62
 107

StartChar: .notdef
Encoding: 65536 -1 0
Width: 487
GlyphClass: 2
Flags: W
LayerCount: 2
Fore
SplineSet
331 1516 m 2,0,-1
 331 403 l 2,1,2
 331 314 331 314 242 314 c 256,3,4
 153 314 153 314 153 403 c 0,5,6
 153 444 153 444 150.5 525.5 c 128,-1,7
 148 607 148 607 148 647 c 0,8,9
 148 792 148 792 150.5 1081.5 c 128,-1,10
 153 1371 153 1371 153 1516 c 0,11,12
 153 1605 153 1605 242 1605 c 256,13,14
 331 1605 331 1605 331 1516 c 2,0,-1
332 23 m 0,15,16
 332 -13 332 -13 303.5 -39.5 c 128,-1,17
 275 -66 275 -66 239 -66 c 0,18,19
 199 -66 199 -66 159 -14 c 0,20,21
 120 35 120 35 120 76 c 0,22,23
 120 112 120 112 148.5 138 c 128,-1,24
 177 164 177 164 214 164 c 0,25,26
 253 164 253 164 294 112 c 0,27,28
 332 63 332 63 332 23 c 0,15,16
EndSplineSet
Substitution2: "'locl' +rW2sAAAA,+ycDF7QAA +rODHINYV +t3zS9AAA +uzjHkAAA +yHDWjAAA 1 +1VjHBAAA +0UzHdL4U" jcircumflex
EndChar

StartChar: glyph1
Encoding: 65537 -1 1
Width: 1024
GlyphClass: 2
Flags: W
LayerCount: 2
Fore
SplineSet
64 0 m 1,0,-1
 64 1523 l 1,1,-1
 960 1523 l 1,2,-1
 960 0 l 1,3,-1
 64 0 l 1,0,-1
896 64 m 1,4,-1
 896 1459 l 1,5,-1
 128 1459 l 1,6,-1
 128 64 l 1,7,-1
 896 64 l 1,4,-1
EndSplineSet
EndChar

StartChar: quotedbl
Encoding: 34 34 4
Width: 528
GlyphClass: 2
Flags: W
LayerCount: 2
Fore
SplineSet
465 1215 m 2,0,1
 465 1155 465 1155 461.5 1126.5 c 128,-1,2
 458 1098 458 1098 444 1068 c 1,3,4
 416 1082 416 1082 384 1097 c 128,-1,5
 352 1112 352 1112 348 1116 c 0,6,7
 321 1132 321 1132 308.5 1152.5 c 128,-1,8
 296 1173 296 1173 296 1197 c 2,9,-1
 296 1257 l 1,10,-1
 296 1274 l 2,11,12
 296 1302 296 1302 293 1329 c 2,13,-1
 293 1409 l 1,14,-1
 297 1488 l 2,15,16
 297 1502 297 1502 302 1517 c 0,17,18
 304 1528 304 1528 310.5 1534.5 c 128,-1,19
 317 1541 317 1541 333 1547 c 1,20,21
 353 1539 353 1539 366.5 1534.5 c 128,-1,22
 380 1530 380 1530 389 1527 c 0,23,24
 412 1519 412 1519 422 1512 c 0,25,26
 441 1501 441 1501 450.5 1486 c 128,-1,27
 460 1471 460 1471 462 1449 c 2,28,-1
 464 1340 l 1,29,-1
 465 1242 l 1,30,-1
 465 1215 l 2,0,1
251 1238 m 2,31,32
 251 1141 251 1141 230 1094 c 1,33,34
 139 1133 139 1133 134 1137 c 0,35,36
 81 1171 81 1171 81 1221 c 2,37,-1
 81 1281 l 1,38,-1
 81 1298 l 2,39,40
 81 1324 81 1324 78 1356 c 2,41,-1
 78 1433 l 2,42,43
 78 1449 78 1449 80 1470.5 c 128,-1,44
 82 1492 82 1492 84 1511 c 0,45,46
 88 1533 88 1533 91 1543 c 128,-1,47
 94 1553 94 1553 102 1568 c 1,48,49
 117 1568 117 1568 127 1565.5 c 128,-1,50
 137 1563 137 1563 147 1560 c 0,51,52
 188 1550 188 1550 207 1536 c 0,53,54
 240 1515 240 1515 248 1472 c 1,55,-1
 249 1362 l 2,56,57
 249 1330 249 1330 249 1303 c 128,-1,58
 249 1276 249 1276 251 1263 c 2,59,-1
 251 1238 l 2,31,32
EndSplineSet
EndChar

StartChar: numbersign
Encoding: 35 35 5
Width: 565
GlyphClass: 2
Flags: W
LayerCount: 2
Fore
SplineSet
554 1074 m 0,0,1
 554 1025 554 1025 505 992 c 0,2,3
 488 984 488 984 403 939 c 1,4,-1
 411 818 l 1,5,6
 455 849 455 849 474 849 c 0,7,8
 509 849 509 849 538.5 801 c 128,-1,9
 568 753 568 753 568 722 c 0,10,11
 568 654 568 654 531 610 c 1,12,13
 481 567 481 567 434 524 c 1,14,15
 462 327 462 327 462 176 c 0,16,17
 462 108 462 108 429 108 c 0,18,19
 394 108 394 108 378 323 c 0,20,21
 366 466 366 466 352 489 c 1,22,23
 314 487 314 487 293 466 c 1,24,-1
 321 49 l 2,25,26
 323 -2 323 -2 298 -2 c 0,27,28
 276 -2 276 -2 267 12 c 0,29,30
 239 51 239 51 225 442 c 1,31,-1
 213 442 l 1,32,33
 208 438 208 438 152 419 c 1,34,35
 39 520 39 520 39 552 c 0,36,37
 39 603 39 603 115.5 655.5 c 128,-1,38
 192 708 192 708 192 718 c 0,39,40
 192 792 192 792 182 818 c 1,41,42
 98 785 98 785 88 785 c 0,43,44
 65 785 65 785 48 863 c 0,45,46
 34 927 34 927 34 965 c 0,47,48
 34 1017 34 1017 55 1045 c 0,49,50
 65 1059 65 1059 112 1080.5 c 128,-1,51
 159 1102 159 1102 175 1115 c 1,52,-1
 161 1391 l 2,53,54
 156 1481 156 1481 180 1481 c 0,55,56
 232 1481 232 1481 248 1152 c 1,57,58
 283 1152 283 1152 321 1178 c 1,59,60
 326 1190 326 1190 326 1221 c 0,61,62
 326 1288 326 1288 314 1421 c 128,-1,63
 302 1554 302 1554 302 1620 c 0,64,65
 302 1763 302 1763 345 1763 c 1,66,67
 349 1759 349 1759 368 1732 c 1,68,69
 396 1671 396 1671 406 1205 c 1,70,-1
 436 1205 l 2,71,72
 554 1205 554 1205 554 1074 c 0,0,1
340 902 m 1,73,74
 314 890 314 890 288 881 c 0,75,76
 251 865 251 865 248 851 c 1,77,78
 253 820 253 820 262 751 c 1,79,80
 281 759 281 759 316 771 c 0,81,82
 345 783 345 783 345 804 c 0,83,84
 345 812 345 812 340 902 c 1,73,74
EndSplineSet
EndChar

StartChar: dollar
Encoding: 36 36 6
Width: 1093
GlyphClass: 2
Flags: W
LayerCount: 2
Fore
SplineSet
365 1077 m 1,0,1
 304 1016 304 1016 296 961 c 0,2,3
 293 944 293 944 311.5 937 c 128,-1,4
 330 930 330 930 369 930 c 1,5,-1
 365 1077 l 1,0,1
518 934 m 1,6,-1
 511 1170 l 1,7,8
 501 1166 501 1166 493.5 1163 c 128,-1,9
 486 1160 486 1160 473 1153 c 1,10,-1
 473 1041 l 1,11,-1
 473 933 l 1,12,-1
 518 934 l 1,6,-1
689 33 m 1,13,14
 708 -72 708 -72 743 -190 c 0,15,16
 767 -272 767 -272 767 -312 c 0,17,18
 767 -368 767 -368 749 -415 c 128,-1,19
 731 -462 731 -462 715 -504 c 1,20,21
 676 -498 676 -498 640 -348 c 0,22,23
 609 -217 609 -217 581 27 c 1,24,-1
 526 27 l 1,25,26
 540 -71 540 -71 555 -127 c 128,-1,27
 570 -183 570 -183 584 -232 c 1,28,29
 584 -251 584 -251 568 -294 c 0,30,31
 545 -357 545 -357 505 -390 c 1,32,33
 456 -353 456 -353 431.5 -251 c 128,-1,34
 407 -149 407 -149 407 27 c 1,35,-1
 260 27 l 1,36,37
 259 38 259 38 271 158 c 128,-1,38
 283 278 283 278 296 406 c 1,39,40
 309 418 309 418 333.5 430.5 c 128,-1,41
 358 443 358 443 383 452 c 1,42,-1
 380 570 l 1,43,44
 354 570 354 570 336.5 570 c 128,-1,45
 319 570 319 570 276 566 c 1,46,47
 154 590 154 590 120 633 c 0,48,49
 66 700 66 700 66 909 c 0,50,51
 66 1081 66 1081 156 1221 c 0,52,53
 228 1334 228 1334 355 1421 c 1,54,-1
 346 1528 l 1,55,56
 346 1606 346 1606 368 1676 c 0,57,58
 385 1728 385 1728 417 1784 c 1,59,60
 451 1784 451 1784 464 1744 c 0,61,62
 473 1717 473 1717 473 1668 c 2,63,-1
 473 1490 l 1,64,65
 487 1496 487 1496 494.5 1499.5 c 128,-1,66
 502 1503 502 1503 507 1504 c 1,67,68
 507 1638 507 1638 512.5 1730.5 c 128,-1,69
 518 1823 518 1823 539 1908 c 0,70,71
 565 2013 565 2013 616 2093 c 1,72,73
 641 2081 641 2081 641 2026 c 1,74,75
 632 1909 632 1909 625.5 1790.5 c 128,-1,76
 619 1672 619 1672 619 1540 c 1,77,-1
 625 1540 l 2,78,79
 652 1540 652 1540 691.5 1482.5 c 128,-1,80
 731 1425 731 1425 731 1382 c 0,81,82
 730 1369 730 1369 730 1358 c 0,83,84
 725 1296 725 1296 706 1209 c 1,85,86
 661 1209 661 1209 616 1201 c 1,87,-1
 619 931 l 1,88,89
 798 931 798 931 899 849 c 0,90,91
 1027 745 1027 745 1027 517 c 0,92,93
 1027 268 1027 268 943 156 c 0,94,95
 865 52 865 52 689 33 c 1,13,14
548 403 m 1,96,-1
 537 557 l 1,97,-1
 482 565 l 1,98,99
 482 549 482 549 484 513 c 128,-1,100
 486 477 486 477 486 476 c 1,101,102
 513 476 513 476 528 439 c 0,103,104
 538 414 538 414 548 403 c 1,96,-1
634 537 m 1,105,-1
 646 377 l 1,106,107
 706 377 706 377 740 384 c 0,108,109
 791 394 791 394 801 421 c 1,110,111
 805 449 805 449 759.5 481 c 128,-1,112
 714 513 714 513 634 537 c 1,105,-1
EndSplineSet
EndChar

StartChar: percent
Encoding: 37 37 7
Width: 1038
GlyphClass: 2
Flags: W
LayerCount: 2
Fore
SplineSet
971 1628 m 0,0,1
 960 1569 960 1569 891 1443 c 0,2,3
 810 1301 810 1301 729 1161 c 0,4,5
 608 946 608 946 525 774 c 0,6,7
 499 718 499 718 456 632.5 c 128,-1,8
 413 547 413 547 395 508 c 0,9,10
 370 452 370 452 358 411 c 1,11,12
 350 365 350 365 344 301 c 0,13,14
 332 159 332 159 327 129 c 0,15,16
 313 49 313 49 280 2 c 0,17,18
 239 -57 239 -57 158 -81 c 0,19,20
 139 -84 139 -84 124 -81 c 0,21,22
 69 -71 69 -71 52 -10 c 0,23,24
 39 34 39 34 49 91 c 0,25,26
 51 100 51 100 52.5 107 c 128,-1,27
 54 114 54 114 60 129 c 0,28,29
 93 209 93 209 281 590 c 0,30,31
 503 1038 503 1038 660 1324 c 0,32,33
 877 1720 877 1720 940 1724 c 1,34,35
 958 1720 958 1720 965 1711 c 0,36,37
 982 1690 982 1690 971 1628 c 0,0,1
865 655 m 1,38,39
 830 629 830 629 772 542.5 c 128,-1,40
 714 456 714 456 700 393 c 1,41,42
 558 427 558 427 543 623 c 1,43,44
 564 691 564 691 635 786 c 0,45,46
 720 903 720 903 778 891 c 1,47,48
 859 810 859 810 865 655 c 1,38,39
460 1157 m 1,49,-1
 261 883 l 1,50,51
 150 960 150 960 144 1128 c 1,52,-1
 343 1401 l 1,53,54
 454 1325 454 1325 460 1157 c 1,49,-1
EndSplineSet
EndChar

StartChar: ampersand
Encoding: 38 38 8
Width: 1340
GlyphClass: 2
Flags: W
LayerCount: 2
Fore
SplineSet
1175 -94 m 0,0,1
 1108 -94 1108 -94 1064 -28 c 0,2,3
 1034 22 1034 22 974 123 c 1,4,5
 773 -42 773 -42 533 -42 c 0,6,7
 332 -42 332 -42 188 77 c 0,8,9
 35 202 35 202 35 395 c 0,10,11
 35 581 35 581 185 718 c 0,12,13
 233 763 233 763 499 933 c 1,14,15
 441 1093 441 1093 441 1214 c 0,16,17
 441 1322 441 1322 533 1438 c 0,18,19
 632 1564 632 1564 750 1564 c 0,20,21
 886 1564 886 1564 973 1477 c 0,22,23
 1056 1394 1056 1394 1056 1274 c 0,24,25
 1056 1042 1056 1042 818 863 c 1,26,27
 888 721 888 721 972 590 c 1,28,-1
 1005 747 l 1,29,30
 1039 842 1039 842 1119 842 c 0,31,32
 1178 842 1178 842 1214 787 c 0,33,34
 1245 740 1245 740 1245 682 c 0,35,36
 1245 496 1245 496 1147 325 c 1,37,38
 1308 87 1308 87 1308 27 c 0,39,40
 1308 -25 1308 -25 1267 -59.5 c 128,-1,41
 1226 -94 1226 -94 1175 -94 c 0,0,1
750 1317 m 0,42,43
 722 1314 722 1314 704 1278 c 0,44,45
 689 1247 689 1247 689 1215 c 0,46,47
 689 1201 689 1201 708 1138 c 0,48,49
 729 1068 729 1068 730 1061 c 1,50,51
 763 1094 763 1094 794 1146 c 0,52,53
 829 1204 829 1204 829 1237 c 0,54,55
 829 1282 829 1282 818 1298 c 0,56,57
 801 1322 801 1322 750 1317 c 0,42,43
612 720 m 1,58,59
 508 654 508 654 405 588 c 1,60,61
 293 500 293 500 293 395 c 0,62,63
 293 310 293 310 365 256 c 0,64,65
 434 204 434 204 533 204 c 0,66,67
 701 204 701 204 831 332 c 1,68,69
 770 423 770 423 612 720 c 1,58,59
EndSplineSet
EndChar

StartChar: quotesingle
Encoding: 39 39 9
Width: 332
GlyphClass: 2
Flags: W
LayerCount: 2
Fore
SplineSet
255 1215 m 2,0,1
 255 1155 255 1155 251.5 1126.5 c 128,-1,2
 248 1098 248 1098 234 1068 c 1,3,4
 206 1082 206 1082 174 1097 c 128,-1,5
 142 1112 142 1112 138 1116 c 0,6,7
 111 1132 111 1132 98.5 1152.5 c 128,-1,8
 86 1173 86 1173 86 1197 c 2,9,-1
 86 1257 l 1,10,-1
 86 1274 l 2,11,12
 86 1302 86 1302 83 1329 c 2,13,-1
 83 1409 l 1,14,-1
 87 1488 l 2,15,16
 87 1502 87 1502 92 1517 c 0,17,18
 94 1528 94 1528 100.5 1534.5 c 128,-1,19
 107 1541 107 1541 123 1547 c 1,20,21
 143 1539 143 1539 156.5 1534.5 c 128,-1,22
 170 1530 170 1530 179 1527 c 0,23,24
 202 1519 202 1519 212 1512 c 0,25,26
 231 1501 231 1501 240.5 1486 c 128,-1,27
 250 1471 250 1471 252 1449 c 2,28,-1
 254 1340 l 1,29,-1
 255 1242 l 1,30,-1
 255 1215 l 2,0,1
EndSplineSet
EndChar

StartChar: parenleft
Encoding: 40 40 10
Width: 576
GlyphClass: 2
Flags: W
LayerCount: 2
Fore
SplineSet
360 -15 m 0,0,1
 357 -27 357 -27 346 -27 c 0,2,3
 315 -27 315 -27 246.5 58 c 128,-1,4
 178 143 178 143 135 237 c 1,5,6
 54 434 54 434 54 694 c 0,7,8
 54 790 54 790 78 940 c 0,9,10
 115 1167 115 1167 186 1300 c 0,11,12
 293 1503 293 1503 390 1622 c 0,13,14
 473 1724 473 1724 513 1724 c 0,15,16
 529 1724 529 1724 530 1700 c 0,17,18
 534 1618 534 1618 502 1587 c 1,19,20
 454 1552 454 1552 406 1515 c 1,21,22
 327 1442 327 1442 250 1282 c 1,23,24
 134 1079 134 1079 127 758 c 0,25,26
 123 502 123 502 188 317 c 0,27,28
 213 239 213 239 293 119 c 0,29,30
 362 12 362 12 362 -6 c 0,31,32
 362 -13 362 -13 360 -15 c 0,0,1
EndSplineSet
EndChar

StartChar: parenright
Encoding: 41 41 11
Width: 536
GlyphClass: 2
Flags: W
LayerCount: 2
Fore
SplineSet
167 1690 m 1,0,1
 218 1652 218 1652 280 1539 c 0,2,3
 286 1527 286 1527 392 1306 c 1,4,5
 474 1088 474 1088 474 791 c 0,6,7
 474 744 474 744 472 702 c 0,8,9
 456 438 456 438 341 54 c 1,10,11
 335 52 335 52 335 61 c 1,12,13
 335 43 335 43 369.5 225 c 128,-1,14
 404 407 404 407 404 606 c 0,15,16
 404 755 404 755 384 914 c 0,17,18
 357 1097 357 1097 339 1155 c 0,19,20
 294 1304 294 1304 161 1518 c 1,21,22
 85 1588 85 1588 85 1650 c 0,23,24
 85 1699 85 1699 167 1690 c 1,0,1
EndSplineSet
EndChar

StartChar: asterisk
Encoding: 42 42 12
Width: 1085
GlyphClass: 2
Flags: W
LayerCount: 2
Fore
SplineSet
47 1315 m 0,0,1
 47 1352 47 1352 73 1381 c 128,-1,2
 99 1410 99 1410 135 1410 c 0,3,4
 159 1410 159 1410 406 1313 c 1,5,6
 398 1452 398 1452 398 1505 c 0,7,8
 398 1544 398 1544 423.5 1569 c 128,-1,9
 449 1594 449 1594 487 1594 c 0,10,11
 526 1594 526 1594 551.5 1569 c 128,-1,12
 577 1544 577 1544 577 1505 c 0,13,14
 577 1450 577 1450 583 1336 c 1,15,16
 823 1372 823 1372 877 1372 c 0,17,18
 914 1372 914 1372 938.5 1345.5 c 128,-1,19
 963 1319 963 1319 963 1281 c 0,20,21
 963 1211 963 1211 888 1195 c 0,22,23
 818 1180 818 1180 641 1159 c 1,24,25
 699 1106 699 1106 767 1023 c 0,26,27
 856 913 856 913 856 870 c 0,28,29
 856 834 856 834 828 807.5 c 128,-1,30
 800 781 800 781 764 781 c 0,31,32
 726 781 726 781 695 817 c 0,33,34
 634 899 634 899 496 1052 c 1,35,36
 290 819 290 819 217 819 c 0,37,38
 181 819 181 819 153.5 847 c 128,-1,39
 126 875 126 875 126 911 c 0,40,41
 126 945 126 945 158 977 c 0,42,43
 222 1031 222 1031 344 1150 c 1,44,45
 262 1176 262 1176 104 1237 c 0,46,47
 47 1262 47 1262 47 1315 c 0,0,1
EndSplineSet
EndChar

StartChar: plus
Encoding: 43 43 13
Width: 700
GlyphClass: 2
Flags: W
LayerCount: 2
Fore
SplineSet
684 612 m 1,0,1
 661 522 661 522 606 492 c 0,2,3
 573 473 573 473 458 461 c 1,4,5
 477 348 477 348 477 307 c 0,6,7
 477 166 477 166 391 166 c 0,8,9
 366 166 366 166 333 188 c 1,10,11
 329 231 329 231 315 316 c 128,-1,12
 301 401 301 401 296 444 c 1,13,14
 143 436 143 436 40 436 c 0,15,16
 22 436 22 436 22 455 c 0,17,18
 22 500 22 500 67 561 c 0,19,20
 106 614 106 614 282 623 c 1,21,22
 280 641 280 641 280 705 c 0,23,24
 280 846 280 846 292 909 c 1,25,26
 327 936 327 936 372 936 c 0,27,28
 405 936 405 936 425 922 c 1,29,-1
 425 874 l 2,30,31
 425 754 425 754 438 637 c 1,32,33
 557 647 557 647 632 647 c 0,34,35
 667 647 667 647 684 612 c 1,0,1
EndSplineSet
EndChar

StartChar: comma
Encoding: 44 44 14
Width: 531
GlyphClass: 2
Flags: W
LayerCount: 2
Fore
SplineSet
510 110 m 0,0,1
 510 94 510 94 509.5 80 c 128,-1,2
 509 66 509 66 504.5 54 c 128,-1,3
 500 42 500 42 486 11 c 0,4,5
 479 -3 479 -3 459 -44 c 1,6,-1
 176 -263 l 1,7,-1
 216 -168 l 2,8,9
 218 -163 218 -163 220 -148 c 0,10,11
 226 -113 226 -113 227 -105 c 0,12,13
 227 -2 227 -2 192 33 c 128,-1,14
 157 68 157 68 75 68 c 1,15,-1
 357 285 l 1,16,17
 443 285 443 285 476.5 250 c 128,-1,18
 510 215 510 215 510 110 c 0,0,1
EndSplineSet
EndChar

StartChar: hyphen
Encoding: 45 45 15
Width: 743
GlyphClass: 2
Flags: W
LayerCount: 2
Fore
SplineSet
106 528 m 0,0,1
 59 528 59 528 59 565 c 0,2,3
 59 590 59 590 89.5 651.5 c 128,-1,4
 120 713 120 713 141 733 c 0,5,6
 149 741 149 741 227 754 c 0,7,8
 258 758 258 758 318 770 c 128,-1,9
 378 782 378 782 497 811 c 0,10,11
 639 844 639 844 665 844 c 0,12,13
 696 844 696 844 696 819 c 0,14,15
 696 793 696 793 667 723 c 0,16,17
 639 647 639 647 620 639 c 0,18,19
 569 612 569 612 369.5 570 c 128,-1,20
 170 528 170 528 106 528 c 0,0,1
EndSplineSet
EndChar

StartChar: period
Encoding: 46 46 16
Width: 320
GlyphClass: 2
Flags: W
LayerCount: 2
Fore
SplineSet
156 -93 m 0,0,1
 104 -93 104 -93 68 -57 c 128,-1,2
 32 -21 32 -21 32 31 c 0,3,4
 32 82 32 82 68 118.5 c 128,-1,5
 104 155 104 155 156 155 c 0,6,7
 207 155 207 155 243.5 118.5 c 128,-1,8
 280 82 280 82 280 31 c 0,9,10
 280 -21 280 -21 243.5 -57 c 128,-1,11
 207 -93 207 -93 156 -93 c 0,0,1
EndSplineSet
EndChar

StartChar: slash
Encoding: 47 47 17
Width: 502
GlyphClass: 2
Flags: W
LayerCount: 2
Fore
SplineSet
742 1742 m 0,0,1
 632 1572 632 1572 460 1105 c 0,2,3
 374 870 374 870 297 640 c 0,4,5
 237 450 237 450 115 74 c 0,6,7
 -44 -411 -44 -411 -81 -438 c 1,8,9
 -145 -450 -145 -450 -145 -367 c 0,10,11
 -145 -316 -145 -316 -123 -242 c 0,12,13
 -101 -179 -101 -179 -81 -119 c 0,14,15
 -26 46 -26 46 49 266 c 0,16,17
 213 744 213 744 387 1203 c 0,18,19
 625 1833 625 1833 665 1833 c 0,20,21
 694 1833 694 1833 718.5 1813 c 128,-1,22
 743 1793 743 1793 743 1761 c 0,23,24
 743 1746 743 1746 742 1742 c 0,0,1
EndSplineSet
EndChar

StartChar: zero
Encoding: 48 48 18
Width: 822
GlyphClass: 2
Flags: W
LayerCount: 2
Fore
SplineSet
794 524 m 0,0,1
 794 329 794 329 686 163 c 0,2,3
 571 -14 571 -14 414 -14 c 0,4,5
 327 -14 327 -14 242 82 c 0,6,7
 152 183 152 183 99 356 c 0,8,9
 39 550 39 550 39 789 c 0,10,11
 39 934 39 934 97.5 1148.5 c 128,-1,12
 156 1363 156 1363 236 1507 c 0,13,14
 329 1673 329 1673 414 1673 c 0,15,16
 494 1673 494 1673 529 1628 c 0,17,18
 556 1593 556 1593 556 1531 c 0,19,20
 556 1502 556 1502 550.5 1474 c 128,-1,21
 545 1446 545 1446 540 1419 c 1,22,23
 587 1373 587 1373 633 1308 c 0,24,25
 685 1235 685 1235 719 1125.5 c 128,-1,26
 753 1016 753 1016 773.5 843 c 128,-1,27
 794 670 794 670 794 524 c 0,0,1
627 611 m 256,28,29
 627 723 627 723 579 877 c 0,30,31
 523 1057 523 1057 453 1068 c 1,32,-1
 453 1341 l 1,33,34
 449 1342 449 1342 441 1342 c 0,35,36
 384 1342 384 1342 314 1227 c 0,37,38
 252 1125 252 1125 205.5 983 c 128,-1,39
 159 841 159 841 159 759 c 0,40,41
 159 618 159 618 217 503 c 0,42,43
 262 414 262 414 335 352 c 0,44,45
 394 302 394 302 426 302 c 0,46,47
 508 302 508 302 569 403 c 0,48,49
 627 499 627 499 627 611 c 256,28,29
EndSplineSet
EndChar

StartChar: one
Encoding: 49 49 19
Width: 668
GlyphClass: 2
Flags: W
LayerCount: 2
Fore
SplineSet
680 116 m 1,0,1
 547 60 547 60 415 26 c 0,2,3
 311 -1 311 -1 205 -13 c 0,4,5
 128 -22 128 -22 67 -22 c 0,6,7
 48 -22 48 -22 37 -21.5 c 128,-1,8
 26 -21 26 -21 18 -20 c 1,9,-1
 39 243 l 1,10,11
 53 252 53 252 155 261 c 128,-1,12
 257 270 257 270 272 279 c 0,13,14
 281 287 281 287 281 425 c 0,15,16
 281 604 281 604 269.5 807.5 c 128,-1,17
 258 1011 258 1011 242 1059 c 1,18,19
 211 983 211 983 192.5 895 c 128,-1,20
 174 807 174 807 164 759 c 1,21,22
 158 754 158 754 151 751 c 128,-1,23
 144 748 144 748 138 748 c 0,24,25
 117 748 117 748 104.5 782.5 c 128,-1,26
 92 817 92 817 92 875 c 1,27,28
 104 977 104 977 147 1146 c 0,29,30
 183 1283 183 1283 220 1422.5 c 128,-1,31
 257 1562 257 1562 257 1605 c 1,32,33
 268 1617 268 1617 287.5 1623 c 128,-1,34
 307 1629 307 1629 330 1629 c 0,35,36
 381 1629 381 1629 399 1605 c 1,37,-1
 425 296 l 1,38,39
 470 296 470 296 532 313 c 0,40,41
 665 350 665 350 680 353 c 1,42,-1
 680 116 l 1,0,1
EndSplineSet
EndChar

StartChar: two
Encoding: 50 50 20
Width: 893
GlyphClass: 2
Flags: W
LayerCount: 2
Fore
SplineSet
849 410 m 1,0,1
 849 263 849 263 667 116 c 0,2,3
 479 -36 479 -36 272 -36 c 0,4,5
 213 -36 213 -36 182 4 c 0,6,7
 144 53 144 53 144 176 c 0,8,9
 144 195 144 195 145 229 c 128,-1,10
 146 263 146 263 146 276 c 0,11,12
 146 436 146 436 196 595 c 0,13,14
 220 672 220 672 308 876 c 0,15,16
 388 1061 388 1061 422 1187 c 0,17,18
 436 1238 436 1238 450 1289 c 1,19,20
 450 1311 450 1311 437 1323 c 128,-1,21
 424 1335 424 1335 392 1335 c 0,22,23
 306 1335 306 1335 259 1257 c 0,24,25
 209 1174 209 1174 209 1028 c 0,26,27
 209 1020 209 1020 209 1015.5 c 128,-1,28
 209 1011 209 1011 210 1008 c 2,29,-1
 210 870 l 2,30,31
 210 839 210 839 177 802 c 0,32,33
 138 759 138 759 90 759 c 0,34,35
 74 759 74 759 56 765 c 1,36,37
 56 774 56 774 46 903 c 0,38,39
 40 980 40 980 40 1019 c 0,40,41
 40 1069 40 1069 43.5 1106.5 c 128,-1,42
 47 1144 47 1144 56 1187 c 0,43,44
 89 1336 89 1336 123 1419 c 0,45,46
 173 1541 173 1541 247 1605 c 0,47,48
 336 1682 336 1682 465 1682 c 0,49,50
 549 1682 549 1682 579 1603 c 0,51,52
 599 1550 599 1550 599 1437 c 2,53,-1
 599 1386 l 2,54,55
 599 1168 599 1168 540 953 c 0,56,57
 502 815 502 815 414 604 c 0,58,59
 322 383 322 383 296 293 c 1,60,61
 309 287 309 287 322 281 c 0,62,63
 338 276 338 276 354 276 c 0,64,65
 418 276 418 276 513 339 c 0,66,67
 793 524 793 524 807 530 c 1,68,69
 812 495 812 495 831 449 c 0,70,71
 837 434 837 434 849 410 c 1,0,1
EndSplineSet
EndChar

StartChar: three
Encoding: 51 51 21
Width: 759
GlyphClass: 2
Flags: W
LayerCount: 2
Fore
SplineSet
732 618 m 0,0,1
 732 406 732 406 598 197 c 128,-1,2
 464 -12 464 -12 335 -12 c 0,3,4
 243 -12 243 -12 205 57 c 0,5,6
 177 108 177 108 177 203 c 0,7,8
 177 266 177 266 211 324 c 0,9,10
 240 374 240 374 290 413 c 1,11,12
 349 383 349 383 349 325 c 0,13,14
 349 312 349 312 344 297 c 1,15,16
 404 313 404 313 467 385 c 0,17,18
 518 442 518 442 560 522 c 0,19,20
 597 592 597 592 597 618 c 0,21,22
 597 640 597 640 565 659 c 0,23,24
 523 684 523 684 447 684 c 0,25,26
 365 684 365 684 288 632 c 0,27,28
 260 613 260 613 164 527 c 1,29,30
 123 527 123 527 108.5 555.5 c 128,-1,31
 94 584 94 584 94 645 c 0,32,33
 94 668 94 668 96 731.5 c 128,-1,34
 98 795 98 795 98 810 c 1,35,36
 148 885 148 885 199 961 c 0,37,38
 284 1091 284 1091 330 1177 c 0,39,40
 395 1298 395 1298 395 1347 c 0,41,42
 395 1383 395 1383 360 1379 c 0,43,44
 283 1369 283 1369 233 1296 c 0,45,46
 196 1243 196 1243 167 1141 c 0,47,48
 147 1065 147 1065 128 989 c 1,49,50
 105 966 105 966 82 966 c 256,51,52
 59 966 59 966 38 989 c 1,53,54
 27 1042 27 1042 27 1094 c 0,55,56
 27 1151 27 1151 38 1220 c 0,57,58
 43 1254 43 1254 54 1305 c 0,59,60
 91 1471 91 1471 168 1570 c 0,61,62
 258 1686 258 1686 389 1686 c 0,63,64
 464 1686 464 1686 504 1614 c 0,65,66
 539 1551 539 1551 539 1451 c 0,67,68
 539 1342 539 1342 522 1265 c 128,-1,69
 505 1188 505 1188 469 1111 c 0,70,71
 455 1081 455 1081 389 959 c 1,72,73
 436 970 436 970 482 970 c 0,74,75
 620 970 620 970 683 855 c 0,76,77
 732 766 732 766 732 618 c 0,0,1
EndSplineSet
EndChar

StartChar: four
Encoding: 52 52 22
Width: 903
GlyphClass: 2
Flags: W
LayerCount: 2
Fore
SplineSet
878 536 m 0,0,1
 878 517 878 517 825 495 c 0,2,3
 807 488 807 488 732 462 c 1,4,5
 749 359 749 359 762 265.5 c 128,-1,6
 775 172 775 172 775 104 c 0,7,8
 775 84 775 84 774.5 61 c 128,-1,9
 774 38 774 38 767 3 c 1,10,-1
 663 3 l 1,11,12
 655 41 655 41 641 156 c 0,13,14
 620 333 620 333 578 423 c 1,15,16
 480 387 480 387 369.5 360 c 128,-1,17
 259 333 259 333 198 333 c 0,18,19
 122 333 122 333 89.5 357 c 128,-1,20
 57 381 57 381 50 446 c 0,21,22
 49 457 49 457 48.5 466 c 128,-1,23
 48 475 48 475 48 483 c 0,24,25
 48 642 48 642 164 941 c 0,26,27
 269 1210 269 1210 408.5 1448 c 128,-1,28
 548 1686 548 1686 614 1697 c 1,29,30
 629 1669 629 1669 634 1643.5 c 128,-1,31
 639 1618 639 1618 639 1582 c 0,32,33
 639 1544 639 1544 638 1519 c 0,34,35
 633 1393 633 1393 633 1346 c 0,36,37
 633 1242 633 1242 639.5 1114 c 128,-1,38
 646 986 646 986 663 786 c 1,39,40
 687 789 687 789 723 797 c 0,41,42
 852 826 852 826 855 827 c 0,43,44
 872 797 872 797 875 690.5 c 128,-1,45
 878 584 878 584 878 536 c 0,0,1
548 740 m 1,46,47
 533 841 533 841 521 958 c 0,48,49
 504 1122 504 1122 504 1232 c 1,50,51
 476 1197 476 1197 414.5 1082.5 c 128,-1,52
 353 968 353 968 304 862 c 0,53,54
 248 740 248 740 233 683 c 1,55,56
 313 683 313 683 420 706 c 0,57,58
 486 720 486 720 548 740 c 1,46,47
EndSplineSet
EndChar

StartChar: five
Encoding: 53 53 23
Width: 683
GlyphClass: 2
Flags: W
LayerCount: 2
Fore
SplineSet
659 629 m 0,0,1
 659 366 659 366 570 177 c 0,2,3
 466 -44 466 -44 282 -44 c 0,4,5
 194 -44 194 -44 155 -2 c 0,6,7
 134 21 134 21 99 110 c 1,8,-1
 99 341 l 2,9,10
 102 343 102 343 125 356 c 0,11,12
 142 365 142 365 149 374 c 1,13,14
 173 323 173 323 190 294 c 0,15,16
 222 240 222 240 257 240 c 0,17,18
 347 240 347 240 439 329 c 0,19,20
 543 429 543 429 543 555 c 0,21,22
 543 606 543 606 484 675 c 0,23,24
 417 753 417 753 345 753 c 0,25,26
 303 753 303 753 234 703 c 0,27,28
 182 665 182 665 149 629 c 1,29,30
 127 631 127 631 116 635 c 0,31,32
 83 647 83 647 83 677 c 2,33,-1
 53 1146 l 1,34,35
 53 1410 53 1410 108 1498 c 0,36,37
 169 1596 169 1596 405 1682 c 1,38,-1
 405 1488 l 2,39,40
 405 1406 405 1406 350 1384 c 0,41,42
 269 1352 269 1352 248 1323 c 0,43,44
 192 1246 192 1246 192 1034 c 2,45,-1
 192 953 l 1,46,47
 236 987 236 987 253 998 c 0,48,49
 282 1017 282 1017 321 1017 c 0,50,51
 461 1017 461 1017 562 896 c 0,52,53
 659 780 659 780 659 629 c 0,0,1
EndSplineSet
EndChar

StartChar: six
Encoding: 54 54 24
Width: 848
GlyphClass: 2
Flags: W
LayerCount: 2
Fore
SplineSet
827 789 m 0,0,1
 827 551 827 551 749 359 c 0,2,3
 680 188 680 188 566 87 c 0,4,5
 459 -8 459 -8 353 -8 c 0,6,7
 237 -8 237 -8 145 112 c 0,8,9
 39 251 39 251 39 474 c 0,10,11
 39 585 39 585 75 842 c 0,12,13
 123 1184 123 1184 193 1398 c 0,14,15
 287 1685 287 1685 405 1685 c 0,16,17
 449 1685 449 1685 476 1661 c 128,-1,18
 503 1637 503 1637 503 1598 c 0,19,20
 503 1524 503 1524 495 1470 c 0,21,22
 484 1394 484 1394 455 1349 c 0,23,24
 449 1339 449 1339 429 1339 c 0,25,26
 420 1339 420 1339 410 1340 c 128,-1,27
 400 1341 400 1341 391 1342 c 0,28,29
 373 1342 373 1342 365 1332 c 0,30,31
 314 1232 314 1232 284.5 1111 c 128,-1,32
 255 990 255 990 224 746 c 0,33,34
 216 682 216 682 216 614 c 0,35,36
 216 561 216 561 223.5 519.5 c 128,-1,37
 231 478 231 478 249 455 c 1,38,39
 260 586 260 586 318 759 c 0,40,41
 380 942 380 942 459 1061 c 0,42,43
 551 1199 551 1199 638 1199 c 0,44,45
 727 1199 727 1199 773 1121 c 0,46,47
 827 1029 827 1029 827 789 c 0,0,1
689 719 m 0,48,49
 689 759 689 759 684 784 c 0,50,51
 675 830 675 830 648 848 c 1,52,53
 610 848 610 848 543 745 c 0,54,55
 484 654 484 654 434.5 537 c 128,-1,56
 385 420 385 420 385 376 c 0,57,58
 385 368 385 368 386 365 c 0,59,60
 467 365 467 365 545 450 c 0,61,62
 603 513 603 513 650 613 c 0,63,64
 689 696 689 696 689 719 c 0,48,49
EndSplineSet
EndChar

StartChar: seven
Encoding: 55 55 25
Width: 825
GlyphClass: 2
Flags: W
LayerCount: 2
Fore
SplineSet
828 1472 m 0,0,1
 800 1253 800 1253 726 883 c 0,2,3
 677 637 677 637 602 304 c 0,4,5
 543 42 543 42 542 42 c 1,6,7
 542 21 542 21 527 11 c 0,8,9
 502 -1 502 -1 486 -9 c 1,10,11
 440 20 440 20 432 29 c 0,12,13
 409 55 409 55 409 108 c 0,14,15
 409 117 409 117 409.5 125 c 128,-1,16
 410 133 410 133 411 140 c 0,17,18
 423 265 423 265 482 536 c 0,19,20
 523 725 523 725 587 979 c 0,21,22
 639 1186 639 1186 645.5 1198.5 c 128,-1,23
 652 1211 652 1211 652 1223 c 0,24,25
 652 1234 652 1234 646 1242 c 0,26,27
 628 1267 628 1267 627 1271 c 1,28,29
 402 1271 402 1271 286 1254.5 c 128,-1,30
 170 1238 170 1238 5 1178 c 1,31,-1
 5 1554 l 1,32,33
 65 1608 65 1608 242 1646 c 0,34,35
 401 1680 401 1680 542 1680 c 256,36,37
 683 1680 683 1680 756.5 1634.5 c 128,-1,38
 830 1589 830 1589 830 1501 c 0,39,40
 830 1494 830 1494 830 1487 c 0,41,42
 828 1477 828 1477 828 1472 c 0,0,1
EndSplineSet
EndChar

StartChar: eight
Encoding: 56 56 26
Width: 822
GlyphClass: 2
Flags: W
LayerCount: 2
Fore
SplineSet
794 198 m 0,0,1
 758 81 758 81 685.5 21.5 c 128,-1,2
 613 -38 613 -38 500 -38 c 0,3,4
 337 -38 337 -38 230 87 c 0,5,6
 198 126 198 126 168 183 c 128,-1,7
 138 240 138 240 111 317 c 0,8,9
 108 327 108 327 106 336.5 c 128,-1,10
 104 346 104 346 104 351 c 0,11,12
 99 357 99 357 95 369.5 c 128,-1,13
 91 382 91 382 90 386 c 0,14,15
 74 434 74 434 74 494 c 0,16,17
 74 533 74 533 80 570.5 c 128,-1,18
 86 608 86 608 98 659 c 1,19,20
 129 754 129 754 175 801 c 0,21,22
 229 857 229 857 332 884 c 1,23,24
 300 922 300 922 263 957 c 0,25,26
 196 1020 196 1020 188 1037 c 0,27,28
 156 1085 156 1085 141 1124 c 0,29,30
 125 1172 125 1172 116.5 1221 c 128,-1,31
 108 1270 108 1270 108 1323 c 0,32,33
 108 1402 108 1402 130.5 1485.5 c 128,-1,34
 153 1569 153 1569 211 1623 c 0,35,36
 263 1671 263 1671 309 1671 c 0,37,38
 354 1671 354 1671 400.5 1651.5 c 128,-1,39
 447 1632 447 1632 492 1593 c 0,40,41
 525 1565 525 1565 551.5 1527 c 128,-1,42
 578 1489 578 1489 596 1445 c 1,43,44
 615 1384 615 1384 626.5 1301 c 128,-1,45
 638 1218 638 1218 638 1124 c 0,46,47
 638 1067 638 1067 626 1015 c 0,48,49
 611 950 611 950 570 875 c 1,50,51
 599 853 599 853 628 832 c 0,52,53
 662 807 662 807 696 783 c 1,54,55
 719 761 719 761 737.5 731.5 c 128,-1,56
 756 702 756 702 770 666 c 0,57,58
 819 520 819 520 819 386 c 0,59,60
 819 288 819 288 794 198 c 0,0,1
492 1131 m 0,61,62
 496 1150 496 1150 496 1173 c 0,63,64
 496 1191 496 1191 492.5 1215 c 128,-1,65
 489 1239 489 1239 482.5 1264 c 128,-1,66
 476 1289 476 1289 465.5 1308 c 128,-1,67
 455 1327 455 1327 437 1343 c 1,68,69
 411 1378 411 1378 366 1386 c 0,70,71
 350 1390 350 1390 333 1390 c 0,72,73
 280 1390 280 1390 263 1328 c 0,74,75
 261 1320 261 1320 261 1310 c 128,-1,76
 261 1300 261 1300 261 1295 c 0,77,78
 261 1256 261 1256 276 1203 c 0,79,80
 284 1181 284 1181 295 1159 c 0,81,82
 303 1143 303 1143 318 1119 c 1,83,84
 337 1099 337 1099 356.5 1084 c 128,-1,85
 376 1069 376 1069 392.5 1064 c 128,-1,86
 409 1059 409 1059 421 1059 c 0,87,88
 447 1059 447 1059 465 1075.5 c 128,-1,89
 483 1092 483 1092 492 1131 c 0,61,62
549 339 m 0,90,91
 553 358 553 358 555 374 c 128,-1,92
 557 390 557 390 557 409 c 0,93,94
 557 440 557 440 551 469.5 c 128,-1,95
 545 499 545 499 534 531 c 128,-1,96
 523 563 523 563 515 580 c 128,-1,97
 507 597 507 597 491 617 c 0,98,99
 463 652 463 652 426 665 c 1,100,-1
 407 669 l 1,101,-1
 387 674 l 1,102,103
 351 674 351 674 326 647.5 c 128,-1,104
 301 621 301 621 294 566 c 1,105,106
 294 516 294 516 298.5 477 c 128,-1,107
 303 438 303 438 317 390 c 0,108,109
 325 363 325 363 334.5 341.5 c 128,-1,110
 344 320 344 320 359 302 c 0,111,112
 372 281 372 281 390.5 267 c 128,-1,113
 409 253 409 253 427.5 246.5 c 128,-1,114
 446 240 446 240 463 240 c 0,115,116
 495 240 495 240 517 263 c 128,-1,117
 539 286 539 286 549 339 c 0,90,91
EndSplineSet
EndChar

StartChar: nine
Encoding: 57 57 27
Width: 692
GlyphClass: 2
Flags: W
LayerCount: 2
Fore
SplineSet
669 1110 m 0,0,1
 669 927 669 927 655 766 c 0,2,3
 632 506 632 506 578 326 c 0,4,5
 506 90 506 90 384 -2 c 0,6,7
 363 -17 363 -17 328 -17 c 0,8,9
 298 -17 298 -17 269 -2 c 1,10,11
 250 29 250 29 238.5 87 c 128,-1,12
 227 145 227 145 227 201 c 0,13,14
 227 249 227 249 233 282.5 c 128,-1,15
 239 316 239 316 252 329 c 1,16,17
 269 336 269 336 290.5 338.5 c 128,-1,18
 312 341 312 341 339 341 c 1,19,20
 421 432 421 432 480 659 c 0,21,22
 534 866 534 866 534 1031 c 0,23,24
 534 1141 534 1141 464 1229 c 128,-1,25
 394 1317 394 1317 315 1317 c 0,26,27
 250 1317 250 1317 216 1272 c 0,28,29
 189 1236 189 1236 189 1188 c 0,30,31
 189 1079 189 1079 266 1023 c 0,32,33
 274 1017 274 1017 411 956 c 0,34,35
 489 921 489 921 489 863 c 0,36,37
 492 830 492 830 454 724 c 0,38,39
 411 602 411 602 369 602 c 0,40,41
 202 602 202 602 117 788 c 0,42,43
 50 935 50 935 50 1152 c 0,44,45
 50 1319 50 1319 65 1409 c 0,46,47
 86 1534 86 1534 140 1598 c 0,48,49
 202 1671 202 1671 314 1671 c 0,50,51
 477 1671 477 1671 573 1517 c 128,-1,52
 669 1363 669 1363 669 1110 c 0,0,1
EndSplineSet
EndChar

StartChar: colon
Encoding: 58 58 28
Width: 479
GlyphClass: 2
Flags: W
LayerCount: 2
Fore
SplineSet
415 236 m 0,0,1
 415 205 415 205 389 143 c 0,2,3
 358 68 358 68 320 53 c 1,4,5
 298 49 298 49 257 48 c 128,-1,6
 216 47 216 47 185 47 c 0,7,8
 168 47 168 47 154.5 57.5 c 128,-1,9
 141 68 141 68 141 84 c 0,10,11
 141 116 141 116 177 185 c 0,12,13
 210 248 210 248 231 268 c 0,14,15
 236 271 236 271 267 273 c 128,-1,16
 298 275 298 275 328 275 c 0,17,18
 375 275 375 275 387 273 c 0,19,20
 415 266 415 266 415 236 c 0,0,1
377 945 m 0,21,22
 377 914 377 914 351 852 c 0,23,24
 320 777 320 777 282 762 c 1,25,26
 260 758 260 758 219 757 c 128,-1,27
 178 756 178 756 147 756 c 0,28,29
 130 756 130 756 116.5 766.5 c 128,-1,30
 103 777 103 777 103 793 c 0,31,32
 103 825 103 825 139 894 c 0,33,34
 172 957 172 957 193 977 c 0,35,36
 198 980 198 980 229 982 c 128,-1,37
 260 984 260 984 290 984 c 0,38,39
 337 984 337 984 349 982 c 0,40,41
 377 975 377 975 377 945 c 0,21,22
EndSplineSet
EndChar

StartChar: uni037E
Encoding: 59 59 29
AltUni2: 00037e.ffffffff.0 00037e.ffffffff.0
Width: 479
GlyphClass: 2
Flags: W
LayerCount: 2
Fore
SplineSet
477 110 m 0,0,1
 477 100 477 100 477 91 c 128,-1,2
 477 82 477 82 478 74 c 0,3,4
 478 63 478 63 474.5 49.5 c 128,-1,5
 471 36 471 36 437 -44 c 1,6,-1
 169 -263 l 1,7,-1
 203 -168 l 2,8,9
 205 -161 205 -161 206 -140.5 c 128,-1,10
 207 -120 207 -120 209 -105 c 0,11,12
 209 -56 209 -56 197.5 -21.5 c 128,-1,13
 186 13 186 13 165 33 c 0,14,15
 148 49 148 49 117 58.5 c 128,-1,16
 86 68 86 68 45 68 c 1,17,-1
 312 285 l 1,18,19
 399 285 399 285 433 251 c 0,20,21
 450 235 450 235 460 200.5 c 128,-1,22
 470 166 470 166 477 110 c 0,0,1
368 948 m 0,23,24
 368 917 368 917 342 855 c 0,25,26
 311 780 311 780 273 765 c 1,27,28
 251 761 251 761 210 760 c 128,-1,29
 169 759 169 759 138 759 c 0,30,31
 121 759 121 759 107.5 769.5 c 128,-1,32
 94 780 94 780 94 796 c 0,33,34
 94 828 94 828 130 897 c 0,35,36
 163 960 163 960 184 980 c 0,37,38
 189 983 189 983 220 985 c 128,-1,39
 251 987 251 987 281 987 c 0,40,41
 328 987 328 987 340 985 c 0,42,43
 368 978 368 978 368 948 c 0,23,24
EndSplineSet
EndChar

StartChar: less
Encoding: 60 60 30
Width: 1116
GlyphClass: 2
Flags: W
LayerCount: 2
Fore
SplineSet
1000 494 m 1,0,1
 969 437 969 437 880 383 c 0,2,3
 798 334 798 334 757 334 c 0,4,5
 750 334 750 334 748 335 c 0,6,7
 699 367 699 367 522 408 c 0,8,9
 381 440 381 440 240 473 c 1,10,11
 178 506 178 506 117 539 c 1,12,13
 154 598 154 598 308 669 c 0,14,15
 337 682 337 682 607 789 c 0,16,17
 791 862 791 862 865 912 c 0,18,19
 880 919 880 919 918 889 c 128,-1,20
 956 859 956 859 956 847 c 0,21,22
 943 793 943 793 837 742 c 0,23,24
 770 709 770 709 646 671 c 0,25,26
 545 640 545 640 545 636 c 0,27,28
 545 631 545 631 670 605 c 0,29,30
 827 572 827 572 896 552 c 1,31,32
 948 523 948 523 1000 494 c 1,0,1
EndSplineSet
EndChar

StartChar: equal
Encoding: 61 61 31
Width: 1088
GlyphClass: 2
Flags: W
LayerCount: 2
Fore
SplineSet
900 921 m 1,0,1
 900 872 900 872 883 820 c 0,2,3
 870 780 870 780 848 744 c 0,4,5
 829 716 829 716 730 705 c 128,-1,6
 631 694 631 694 484 694 c 0,7,8
 360 694 360 694 226 700 c 0,9,10
 179 702 179 702 108 707 c 1,11,12
 135 769 135 769 150 803 c 0,13,14
 174 856 174 856 182 867 c 0,15,16
 204 906 204 906 328 925.5 c 128,-1,17
 452 945 452 945 611 945 c 0,18,19
 706 945 706 945 780 939 c 128,-1,20
 854 933 854 933 900 921 c 1,0,1
984 536 m 1,21,22
 972 487 972 487 957 447 c 128,-1,23
 942 407 942 407 927 387 c 0,24,25
 909 357 909 357 806 343 c 0,26,27
 724 332 724 332 584 332 c 0,28,29
 462 332 462 332 312 341 c 0,30,31
 262 344 262 344 186 350 c 1,32,33
 194 366 194 366 233 447 c 0,34,35
 260 504 260 504 266 510 c 0,36,37
 293 558 293 558 326 578.5 c 128,-1,38
 359 599 359 599 402 599 c 0,39,40
 446 599 446 599 541 601.5 c 128,-1,41
 636 604 636 604 666 604 c 0,42,43
 777 604 777 604 887 594 c 1,44,45
 934 594 934 594 947 588 c 0,46,47
 969 578 969 578 984 536 c 1,21,22
EndSplineSet
EndChar

StartChar: greater
Encoding: 62 62 32
Width: 1116
GlyphClass: 2
Flags: W
LayerCount: 2
Fore
SplineSet
1005 719 m 1,0,1
 968 660 968 660 814 589 c 0,2,3
 785 576 785 576 515 469 c 0,4,5
 331 396 331 396 257 346 c 0,6,7
 242 339 242 339 204 369 c 128,-1,8
 166 399 166 399 166 411 c 0,9,10
 179 465 179 465 285 516 c 0,11,12
 352 549 352 549 476 587 c 0,13,14
 577 618 577 618 577 622 c 0,15,16
 577 627 577 627 452 653 c 0,17,18
 295 686 295 686 226 706 c 1,19,20
 174 735 174 735 122 764 c 1,21,22
 153 821 153 821 242 875 c 0,23,24
 324 924 324 924 365 924 c 0,25,26
 372 924 372 924 374 923 c 0,27,28
 423 891 423 891 600 850 c 0,29,30
 741 817 741 817 882 785 c 1,31,32
 943 752 943 752 1005 719 c 1,0,1
EndSplineSet
EndChar

StartChar: question
Encoding: 63 63 33
Width: 1071
GlyphClass: 2
Flags: W
LayerCount: 2
Fore
SplineSet
1005 1326 m 0,0,1
 1005 1278 1005 1278 937 1158 c 0,2,3
 898 1090 898 1090 811 956 c 0,4,5
 743 852 743 852 743 840 c 1,6,7
 759 828 759 828 772 807.5 c 128,-1,8
 785 787 785 787 785 748 c 0,9,10
 785 691 785 691 716.5 600.5 c 128,-1,11
 648 510 648 510 610 510 c 0,12,13
 569 510 569 510 522 546 c 0,14,15
 468 587 468 587 468 633 c 0,16,17
 468 726 468 726 550 847 c 0,18,19
 577 887 577 887 702 1039 c 0,20,21
 785 1140 785 1140 785 1181 c 0,22,23
 785 1273 785 1273 653 1315 c 0,24,25
 550 1348 550 1348 374 1348 c 0,26,27
 289 1348 289 1348 211.5 1341.5 c 128,-1,28
 134 1335 134 1335 85 1326 c 0,29,30
 66 1322 66 1322 66 1355 c 0,31,32
 66 1412 66 1412 111 1501 c 0,33,34
 162 1602 162 1602 228 1648 c 1,35,36
 264 1664 264 1664 339.5 1675 c 128,-1,37
 415 1686 415 1686 501 1686 c 0,38,39
 728 1686 728 1686 852 1617 c 0,40,41
 950 1562 950 1562 985 1467 c 0,42,43
 1005 1412 1005 1412 1005 1326 c 0,0,1
913 300 m 0,44,45
 913 256 913 256 814 126 c 0,46,47
 720 3 720 3 693 -9 c 0,48,49
 683 -14 683 -14 675 -14 c 0,50,51
 654 -14 654 -14 627 11 c 0,52,53
 611 28 611 28 605 34 c 1,54,55
 650 146 650 146 700.5 234.5 c 128,-1,56
 751 323 751 323 781 343 c 1,57,58
 795 347 795 347 803 349 c 0,59,60
 832 356 832 356 849 356 c 256,61,62
 866 356 866 356 874.5 353.5 c 128,-1,63
 883 351 883 351 891.5 343 c 128,-1,64
 900 335 900 335 909 311 c 0,65,66
 910 308 910 308 913 300 c 0,44,45
EndSplineSet
EndChar

StartChar: at
Encoding: 64 64 34
Width: 1314
GlyphClass: 2
Flags: W
LayerCount: 2
Fore
SplineSet
1254 409 m 0,0,1
 1200 219 1200 219 965.5 77.5 c 128,-1,2
 731 -64 731 -64 473 -64 c 0,3,4
 398 -64 398 -64 314 4 c 0,5,6
 225 76 225 76 168 194 c 0,7,8
 103 329 103 329 103 486 c 0,9,10
 103 688 103 688 163 969 c 0,11,12
 231 1288 231 1288 337 1490 c 0,13,14
 465 1734 465 1734 617 1734 c 0,15,16
 719 1734 719 1734 854 1598 c 0,17,18
 983 1469 983 1469 1074 1288 c 0,19,20
 1171 1096 1171 1096 1171 950 c 0,21,22
 1171 864 1171 864 1152 764 c 0,23,24
 1127 630 1127 630 1078 542 c 0,25,26
 1017 432 1017 432 929 418 c 0,27,28
 896 413 896 413 863 444 c 0,29,30
 851 455 851 455 826 484 c 1,31,32
 765 412 765 412 724 377 c 0,33,34
 643 306 643 306 583 306 c 0,35,36
 490 306 490 306 421.5 399.5 c 128,-1,37
 353 493 353 493 353 600 c 0,38,39
 353 679 353 679 386 805 c 0,40,41
 425 955 425 955 484 1049 c 0,42,43
 558 1168 558 1168 647 1168 c 0,44,45
 750 1168 750 1168 819 1093 c 0,46,47
 870 1037 870 1037 907 936 c 0,48,49
 928 870 928 870 950 805 c 1,50,51
 977 819 977 819 994 842 c 0,52,53
 1019 877 1019 877 1019 931 c 0,54,55
 1019 968 1019 968 954 1096 c 0,56,57
 881 1240 881 1240 803 1337 c 0,58,59
 703 1461 703 1461 631 1461 c 0,60,61
 570 1461 570 1461 501 1397 c 0,62,63
 403 1306 403 1306 343 1115 c 0,64,65
 265 867 265 867 265 484 c 0,66,67
 265 404 265 404 362 303 c 0,68,69
 466 194 466 194 566 194 c 0,70,71
 664 194 664 194 810 268 c 0,72,73
 910 319 910 319 1042.5 409.5 c 128,-1,74
 1175 500 1175 500 1189 506 c 1,75,76
 1212 504 1212 504 1223 499 c 0,77,78
 1258 483 1258 483 1258 441 c 0,79,80
 1258 436 1258 436 1257.5 429.5 c 128,-1,81
 1257 423 1257 423 1254 409 c 0,0,1
713 856 m 0,82,83
 713 885 713 885 694 906 c 0,84,85
 672 930 672 930 635 930 c 0,86,87
 608 930 608 930 573 866.5 c 128,-1,88
 538 803 538 803 538 742 c 0,89,90
 538 697 538 697 557 676 c 0,91,92
 568 663 568 663 607 645 c 0,93,94
 621 639 621 639 633 639 c 0,95,96
 676 639 676 639 697 716 c 0,97,98
 713 775 713 775 713 856 c 0,82,83
EndSplineSet
EndChar

StartChar: A
Encoding: 65 65 35
Width: 900
GlyphClass: 2
Flags: W
LayerCount: 2
Fore
SplineSet
877 88 m 0,0,1
 877 0 877 0 819 0 c 0,2,3
 735 0 735 0 700 79 c 0,4,5
 673 141 673 141 663 257 c 0,6,7
 652 389 652 389 638 433 c 1,8,9
 443 366 443 366 397 347 c 0,10,11
 205 271 205 271 189 229 c 1,12,13
 189 199 189 199 198 141 c 128,-1,14
 207 83 207 83 207 53 c 0,15,16
 207 51 207 51 202 0 c 1,17,-1
 47 0 l 1,18,19
 38 30 38 30 38 79 c 0,20,21
 38 442 38 442 140 943 c 0,22,23
 265 1561 265 1561 455 1668 c 1,24,25
 573 1661 573 1661 640 1374 c 1,26,27
 663 1242 663 1242 714 982 c 1,28,29
 833 442 833 442 867 183 c 0,30,31
 877 116 877 116 877 88 c 0,0,1
548 739 m 0,32,33
 548 811 548 811 506 966 c 128,-1,34
 464 1121 464 1121 427 1177 c 1,35,36
 369 1123 369 1123 314 901 c 0,37,38
 265 709 265 709 265 595 c 1,39,40
 548 704 548 704 548 739 c 0,32,33
EndSplineSet
EndChar

StartChar: B
Encoding: 66 66 36
Width: 1014
GlyphClass: 2
Flags: W
LayerCount: 2
Fore
SplineSet
1008 690 m 0,0,1
 1015 642 1015 642 1015 596 c 0,2,3
 1015 339 1015 339 845.5 170.5 c 128,-1,4
 676 2 676 2 419 2 c 0,5,6
 281 2 281 2 225.5 63.5 c 128,-1,7
 170 125 170 125 170 266 c 0,8,9
 170 429 170 429 269 478 c 1,10,-1
 248 718 l 2,11,12
 234 868 234 868 234 958 c 1,13,14
 184 938 184 938 137 938 c 0,15,16
 52 938 52 938 52 1092 c 0,17,18
 52 1277 52 1277 240 1492 c 128,-1,19
 428 1707 428 1707 609 1707 c 0,20,21
 856 1707 856 1707 874 1501 c 0,22,23
 876 1476 876 1476 876 1443 c 0,24,25
 876 1145 876 1145 646 984 c 1,26,27
 678 991 678 991 747 993 c 0,28,29
 844 998 844 998 915.5 914.5 c 128,-1,30
 987 831 987 831 1008 690 c 0,0,1
662 1379 m 0,31,32
 662 1409 662 1409 638.5 1434 c 128,-1,33
 615 1459 615 1459 585 1459 c 0,34,35
 516 1459 516 1459 432 1357.5 c 128,-1,36
 348 1256 348 1256 348 1185 c 0,37,38
 348 1182 348 1182 380 1014 c 1,39,40
 544 1115 544 1115 641 1314 c 0,41,42
 662 1358 662 1358 662 1379 c 0,31,32
636 762 m 0,43,44
 560 762 560 762 499 719.5 c 128,-1,45
 438 677 438 677 412 607 c 1,46,47
 415 462 415 462 419 418 c 0,48,49
 431 286 431 286 456 240 c 1,50,-1
 477 240 l 2,51,52
 486 238 486 238 495 238 c 0,53,54
 694 238 694 238 796 515 c 0,55,56
 812 559 812 559 812 593 c 0,57,58
 812 670 812 670 763.5 716 c 128,-1,59
 715 762 715 762 636 762 c 0,43,44
EndSplineSet
EndChar

StartChar: C
Encoding: 67 67 37
Width: 1030
GlyphClass: 2
Flags: W
LayerCount: 2
Fore
SplineSet
987 162 m 0,0,1
 987 68 987 68 941 1 c 1,2,-1
 261 1 l 1,3,4
 59 131 59 131 59 734 c 0,5,6
 59 1029 59 1029 147 1297 c 0,7,8
 268 1662 268 1662 499 1662 c 0,9,10
 815 1662 815 1662 815 1025 c 0,11,12
 815 876 815 876 789 741 c 1,13,14
 748 734 748 734 708 713 c 1,15,16
 587 715 587 715 587 950 c 0,17,18
 587 985 587 985 589.5 1053.5 c 128,-1,19
 592 1122 592 1122 592 1157 c 0,20,21
 592 1320 592 1320 520 1320 c 0,22,23
 485 1320 485 1320 422 1262 c 0,24,25
 189 1048 189 1048 189 743 c 0,26,27
 189 329 189 329 417 308 c 1,28,-1
 945 308 l 1,29,30
 987 250 987 250 987 162 c 0,0,1
EndSplineSet
EndChar

StartChar: D
Encoding: 68 68 38
Width: 1148
GlyphClass: 2
Flags: W
LayerCount: 2
Fore
SplineSet
1086 864 m 0,0,1
 1086 507 1086 507 1033 322 c 0,2,3
 942 -1 942 -1 674 -1 c 0,4,5
 567 -1 567 -1 419 29 c 0,6,7
 244 63 244 63 182 111 c 1,8,9
 168 224 168 224 146 504 c 1,10,-1
 241 481 l 1,11,12
 223 632 223 632 205 755 c 0,13,14
 184 893 184 893 146 1023 c 1,15,-1
 66 955 l 1,16,-1
 66 1301 l 1,17,18
 198 1490 198 1490 282 1560 c 0,19,20
 419 1674 419 1674 594 1674 c 0,21,22
 904 1674 904 1674 1015 1403 c 0,23,24
 1086 1230 1086 1230 1086 864 c 0,0,1
981 923 m 0,25,26
 981 1060 981 1060 885 1187 c 0,27,28
 783 1324 783 1324 653 1324 c 0,29,30
 530 1324 530 1324 266 1085 c 1,31,32
 312 964 312 964 335 784 c 1,33,34
 350 632 350 632 366 477 c 1,35,36
 496 413 496 413 635 413 c 0,37,38
 753 413 753 413 810 443 c 0,39,40
 892 486 892 486 942 659 c 0,41,42
 981 796 981 796 981 923 c 0,25,26
EndSplineSet
EndChar

StartChar: E
Encoding: 69 69 39
Width: 963
GlyphClass: 2
Flags: W
LayerCount: 2
Fore
SplineSet
894 288 m 0,0,1
 894 242 894 242 859 68 c 0,2,3
 845 -6 845 -6 776 -6 c 0,4,5
 764 -6 764 -6 741 -3.5 c 128,-1,6
 718 -1 718 -1 706 -1 c 2,7,-1
 188 -1 l 1,8,9
 151 114 151 114 112 526 c 0,10,11
 77 894 77 894 77 1077 c 0,12,13
 77 1253 77 1253 320 1459 c 0,14,15
 547 1649 547 1649 734 1681 c 1,16,-1
 743 1681 l 2,17,18
 790 1681 790 1681 790 1619 c 1,19,20
 790 1658 790 1658 776 1595 c 0,21,22
 762 1524 762 1524 748 1450 c 0,23,24
 732 1357 732 1357 723 1345 c 0,25,26
 700 1313 700 1313 639 1290 c 0,27,28
 538 1251 538 1251 484 1214 c 0,29,30
 401 1156 401 1156 325 1065 c 0,31,32
 230 954 230 954 230 878 c 0,33,34
 230 827 230 827 285 829 c 1,35,36
 672 996 672 996 702 996 c 0,37,38
 750 996 750 996 750 924 c 0,39,40
 750 903 750 903 744.5 864 c 128,-1,41
 739 825 739 825 739 804 c 0,42,43
 739 679 739 679 679 621 c 0,44,45
 644 586 644 586 503 536 c 0,46,47
 447 515 447 515 253 438 c 1,48,49
 253 336 253 336 313 311 c 1,50,51
 632 336 632 336 815 336 c 0,52,53
 894 336 894 336 894 288 c 0,0,1
EndSplineSet
EndChar

StartChar: F
Encoding: 70 70 40
Width: 795
GlyphClass: 2
Flags: W
LayerCount: 2
Fore
SplineSet
716 555 m 1,0,1
 672 530 672 530 486 481 c 0,2,3
 318 437 318 437 288 402 c 1,4,5
 300 244 300 244 300 146 c 0,6,7
 300 -3 300 -3 274 -3 c 0,8,9
 193 -3 193 -3 172 85 c 0,10,11
 169 97 169 97 160 241 c 0,12,13
 155 306 155 306 116 767 c 0,14,15
 88 1086 88 1086 88 1295 c 0,16,17
 88 1372 88 1372 107 1435 c 1,18,19
 160 1496 160 1496 348.5 1590 c 128,-1,20
 537 1684 537 1684 612 1684 c 0,21,22
 665 1684 665 1684 674 1619 c 0,23,24
 677 1612 677 1612 677 1516 c 0,25,26
 677 1514 677 1514 679 1500 c 0,27,28
 679 1486 679 1486 679 1475 c 2,29,-1
 679 1433 l 2,30,31
 679 1382 679 1382 665 1351 c 0,32,33
 644 1305 644 1305 544 1256 c 0,34,35
 323 1149 323 1149 221 1077 c 1,36,-1
 230 749 l 1,37,38
 237 746 237 746 256 746 c 0,39,40
 332 746 332 746 487 809 c 128,-1,41
 642 872 642 872 677 872 c 0,42,43
 730 872 730 872 730 665 c 0,44,45
 730 581 730 581 716 555 c 1,0,1
EndSplineSet
EndChar

StartChar: G
Encoding: 71 71 41
Width: 1164
GlyphClass: 2
Flags: W
LayerCount: 2
Fore
SplineSet
976 -361 m 1,0,1
 965 126 965 126 965 140 c 0,2,3
 965 163 965 163 951 179 c 1,4,5
 928 174 928 174 861 130 c 0,6,7
 768 70 768 70 710 45 c 0,8,9
 604 -2 604 -2 505 -2 c 0,10,11
 252 -2 252 -2 139 276 c 0,12,13
 58 473 58 473 58 771 c 0,14,15
 58 1060 58 1060 153 1331 c 0,16,17
 280 1692 280 1692 514 1692 c 0,18,19
 676 1692 676 1692 743 1574 c 0,20,21
 778 1512 778 1512 819 1310 c 0,22,23
 868 1072 868 1072 868 1033 c 0,24,25
 868 991 868 991 835 991 c 0,26,27
 740 991 740 991 694 1079 c 1,28,29
 676 1134 676 1134 634 1241 c 0,30,31
 597 1329 597 1329 518 1329 c 0,32,33
 387 1329 387 1329 278 1074 c 0,34,35
 185 857 185 857 185 702 c 0,36,37
 185 551 185 551 267.5 462 c 128,-1,38
 350 373 350 373 498 373 c 0,39,40
 643 373 643 373 729 457 c 1,41,-1
 729 512 l 1,42,-1
 454 512 l 1,43,-1
 447 834 l 1,44,45
 535 887 535 887 771 887 c 0,46,47
 933 887 933 887 1004 718 c 0,48,49
 1060 586 1060 586 1067 362 c 0,50,51
 1069 255 1069 255 1058 -275 c 1,52,53
 1038 -365 1038 -365 976 -361 c 1,0,1
EndSplineSet
EndChar

StartChar: H
Encoding: 72 72 42
Width: 963
GlyphClass: 2
Flags: W
LayerCount: 2
Fore
SplineSet
903 -14 m 1,0,1
 889 -30 889 -30 864.5 -37.5 c 128,-1,2
 840 -45 840 -45 811 -45 c 0,3,4
 770 -45 770 -45 752 -32 c 1,5,6
 715 24 715 24 686 182 c 0,7,8
 669 275 669 275 648 450 c 0,9,10
 631 588 631 588 624 597 c 1,11,12
 589 575 589 575 516 557.5 c 128,-1,13
 443 540 443 540 335 540 c 1,14,15
 342 461 342 461 345.5 389 c 128,-1,16
 349 317 349 317 349 259 c 0,17,18
 349 193 349 193 345.5 135 c 128,-1,19
 342 77 342 77 338 14 c 1,20,21
 302 -7 302 -7 246 -7 c 256,22,23
 190 -7 190 -7 164 14 c 1,24,25
 148 33 148 33 142.5 90 c 128,-1,26
 137 147 137 147 137 237 c 0,27,28
 137 303 137 303 138 371 c 128,-1,29
 139 439 139 439 140 507 c 1,30,-1
 77 1556 l 1,31,32
 92 1575 92 1575 121.5 1584.5 c 128,-1,33
 151 1594 151 1594 185 1594 c 0,34,35
 227 1594 227 1594 260 1581 c 1,36,37
 273 1473 273 1473 275 1320.5 c 128,-1,38
 277 1168 277 1168 279 1045 c 128,-1,39
 281 922 281 922 296 885 c 1,40,41
 348 885 348 885 441 906 c 0,42,43
 509 922 509 922 578 938 c 1,44,45
 578 983 578 983 578.5 1168.5 c 128,-1,46
 579 1354 579 1354 580 1524 c 128,-1,47
 581 1694 581 1694 582 1694 c 0,48,49
 598 1702 598 1702 614 1705 c 128,-1,50
 630 1708 630 1708 651 1708 c 0,51,52
 686 1708 686 1708 717.5 1697 c 128,-1,53
 749 1686 749 1686 758 1673 c 1,54,55
 776 1589 776 1589 784 1399 c 128,-1,56
 792 1209 792 1209 792 974 c 0,57,58
 792 796 792 796 820 547 c 0,59,60
 839 376 839 376 874 157 c 0,61,62
 901 -14 901 -14 903 -14 c 1,0,1
EndSplineSet
EndChar

StartChar: I
Encoding: 73 73 43
Width: 537
GlyphClass: 2
Flags: W
LayerCount: 2
Fore
SplineSet
434 287 m 0,0,1
 444 214 444 214 444 152 c 0,2,3
 444 95 444 95 433 62.5 c 128,-1,4
 422 30 422 30 396 30 c 1,5,6
 363 0 363 0 320 0 c 0,7,8
 280 0 280 0 242 30 c 1,9,10
 242 157 242 157 213.5 348.5 c 128,-1,11
 185 540 185 540 157 745.5 c 128,-1,12
 129 951 129 951 129 1145 c 0,13,14
 129 1341 129 1341 137 1484 c 0,15,16
 139 1533 139 1533 146 1595 c 1,17,18
 163 1604 163 1604 174 1608 c 0,19,20
 211 1622 211 1622 242 1622 c 0,21,22
 265 1622 265 1622 284.5 1616.5 c 128,-1,23
 304 1611 304 1611 323 1595 c 1,24,25
 323 1417 323 1417 351 1087 c 0,26,27
 369 870 369 870 405 542 c 0,28,29
 433 287 433 287 434 287 c 0,0,1
EndSplineSet
EndChar

StartChar: J
Encoding: 74 74 44
Width: 983
GlyphClass: 2
Flags: W
LayerCount: 2
Fore
SplineSet
912 1361 m 1,0,1
 829 1353 829 1353 745 1315 c 0,2,3
 678 1285 678 1285 594 1225 c 0,4,5
 538 1186 538 1186 455 1116 c 0,6,7
 331 1010 331 1010 280 896 c 0,8,9
 258 848 258 848 241 746 c 0,10,11
 231 690 231 690 198 690 c 0,12,13
 123 690 123 690 95 743 c 0,14,15
 89 755 89 755 68 845 c 0,16,17
 65 862 65 862 64 888 c 128,-1,18
 63 914 63 914 63 917 c 0,19,20
 63 1104 63 1104 230 1300 c 0,21,22
 361 1453 361 1453 558 1577 c 0,23,24
 727 1683 727 1683 788 1683 c 0,25,26
 831 1683 831 1683 858 1672 c 0,27,28
 876 1664 876 1664 911 1637 c 0,29,30
 927 1621 927 1621 934.5 1593 c 128,-1,31
 942 1565 942 1565 942 1531 c 0,32,33
 942 1481 942 1481 927 1416 c 0,34,35
 922 1395 922 1395 912 1361 c 1,0,1
819 245 m 1,36,-1
 819 214 l 2,37,38
 819 121 819 121 799 68 c 0,39,40
 766 -20 766 -20 678 -20 c 0,41,42
 658 -20 658 -20 585 5 c 0,43,44
 476 42 476 42 406 99 c 0,45,46
 307 179 307 179 297 291 c 0,47,48
 297 308 297 308 295.5 332.5 c 128,-1,49
 294 357 294 357 293 386 c 0,50,51
 293 423 293 423 300 443.5 c 128,-1,52
 307 464 307 464 330 477 c 0,53,54
 345 484 345 484 401 445.5 c 128,-1,55
 457 407 457 407 512 369 c 0,56,57
 580 325 580 325 610 325 c 0,58,59
 630 325 630 325 638 339 c 0,60,61
 640 343 640 343 640 350 c 0,62,63
 620 482 620 482 605 607 c 128,-1,64
 590 732 590 732 590 830 c 2,65,-1
 590 1157 l 1,66,67
 619 1177 619 1177 648 1198 c 0,68,69
 674 1215 674 1215 696 1215 c 0,70,71
 720 1215 720 1215 758 1196 c 1,72,73
 758 1162 758 1162 758 1139 c 0,74,75
 755 931 755 931 755 914 c 0,76,77
 755 793 755 793 771 625 c 0,78,79
 782 509 782 509 802 361 c 0,80,81
 818 245 818 245 819 245 c 1,36,-1
EndSplineSet
EndChar

StartChar: K
Encoding: 75 75 45
Width: 1004
GlyphClass: 2
Flags: W
LayerCount: 2
Fore
SplineSet
942 -30 m 1,0,1
 876 -22 876 -22 784 7.5 c 128,-1,2
 692 37 692 37 600 68 c 0,3,4
 472 109 472 109 378 131 c 1,5,6
 387 103 387 103 391 88 c 0,7,8
 405 39 405 39 405 21 c 0,9,10
 405 8 405 8 399 8 c 2,11,-1
 222 8 l 1,12,13
 176 199 176 199 137 618 c 0,14,15
 112 888 112 888 88 1303 c 0,16,17
 79 1465 79 1465 71 1628 c 1,18,19
 92 1628 92 1628 141 1628 c 128,-1,20
 190 1628 190 1628 222 1628 c 1,21,22
 250 1564 250 1564 263 1360 c 0,23,24
 271 1190 271 1190 279.5 1020.5 c 128,-1,25
 288 851 288 851 309 843 c 1,26,27
 437 1064 437 1064 458 1101 c 0,28,29
 559 1280 559 1280 611 1396 c 0,30,31
 681 1552 681 1552 681 1628 c 0,32,33
 681 1645 681 1645 694.5 1652 c 128,-1,34
 708 1659 708 1659 733 1659 c 0,35,36
 769 1659 769 1659 825 1644 c 0,37,38
 844 1639 844 1639 875 1628 c 1,39,40
 875 1403 875 1403 755 1110 c 128,-1,41
 635 817 635 817 443 578 c 0,42,43
 442 575 442 575 442 568 c 0,44,45
 442 524 442 524 567 470 c 0,46,47
 617 449 617 449 804 385 c 0,48,49
 936 340 936 340 942 323 c 1,50,-1
 942 -30 l 1,0,1
EndSplineSet
EndChar

StartChar: L
Encoding: 76 76 46
Width: 1160
GlyphClass: 2
Flags: W
LayerCount: 2
Fore
SplineSet
1090 20 m 1,0,1
 965 7 965 7 886 2 c 128,-1,2
 807 -3 807 -3 710 -3 c 0,3,4
 545 -3 545 -3 278 20 c 1,5,6
 269 55 269 55 235 148 c 0,7,8
 209 219 209 219 189 318 c 0,9,10
 159 463 159 463 129 707 c 0,11,12
 125 732 125 732 117 852 c 128,-1,13
 109 972 109 972 103 1119 c 128,-1,14
 97 1266 97 1266 97 1383 c 0,15,16
 97 1481 97 1481 101.5 1544.5 c 128,-1,17
 106 1608 106 1608 116 1637 c 1,18,19
 163 1637 163 1637 192.5 1632.5 c 128,-1,20
 222 1628 222 1628 242 1608 c 1,21,22
 261 1512 261 1512 268 1344.5 c 128,-1,23
 275 1177 275 1177 282 1002 c 0,24,25
 296 736 296 736 329 464 c 1,26,27
 413 456 413 456 489 451.5 c 128,-1,28
 565 447 565 447 613 447 c 0,29,30
 647 447 647 447 836 458 c 0,31,32
 939 464 939 464 1036 464 c 1,33,34
 1047 412 1047 412 1068 229 c 0,35,36
 1081 110 1081 110 1090 20 c 1,0,1
EndSplineSet
EndChar

StartChar: M
Encoding: 77 77 47
Width: 1401
GlyphClass: 2
Flags: W
LayerCount: 2
Fore
SplineSet
1346 -9 m 1,0,-1
 1197 -9 l 1,1,2
 1148 115 1148 115 1115 257 c 0,3,4
 1086 379 1086 379 1067 519 c 0,5,6
 1057 591 1057 591 1038 771 c 1,7,8
 1004 652 1004 652 966 567 c 0,9,10
 915 454 915 454 851 389 c 0,11,12
 775 312 775 312 688 312 c 0,13,14
 630 312 630 312 568 344 c 0,15,16
 500 379 500 379 429 452 c 1,17,18
 398 345 398 345 390.5 257.5 c 128,-1,19
 383 170 383 170 383 33 c 1,20,21
 369 19 369 19 339.5 11 c 128,-1,22
 310 3 310 3 280 3 c 0,23,24
 213 3 213 3 180 33 c 1,25,26
 138 53 138 53 114.5 252 c 128,-1,27
 91 451 91 451 82.5 783.5 c 128,-1,28
 74 1116 74 1116 74 1614 c 1,29,-1
 207 1614 l 1,30,31
 242 1562 242 1562 311 1326 c 0,32,33
 386 1069 386 1069 441 965 c 0,34,35
 535 788 535 788 665 788 c 0,36,37
 757 788 757 788 847 973 c 0,38,39
 898 1077 898 1077 989 1356 c 0,40,41
 1071 1604 1071 1604 1115 1677 c 1,42,43
 1131 1669 1131 1669 1157 1648 c 0,44,45
 1167 1640 1167 1640 1224 1589 c 1,46,47
 1223 1545 1223 1545 1222.5 1491 c 128,-1,48
 1222 1437 1222 1437 1222 1407 c 0,49,50
 1222 1177 1222 1177 1229 990 c 0,51,52
 1240 703 1240 703 1264 473 c 0,53,54
 1294 190 1294 190 1346 -9 c 1,0,-1
EndSplineSet
EndChar

StartChar: N
Encoding: 78 78 48
Width: 1268
GlyphClass: 2
Flags: W
LayerCount: 2
Fore
SplineSet
1194 207 m 0,0,1
 1194 191 1194 191 1195 165 c 128,-1,2
 1196 139 1196 139 1196 128 c 0,3,4
 1196 95 1196 95 1191.5 63.5 c 128,-1,5
 1187 32 1187 32 1173 -21 c 1,6,-1
 1056 -21 l 1,7,8
 1014 36 1014 36 861 208 c 0,9,10
 683 408 683 408 540 554 c 0,11,12
 353 745 353 745 267 803 c 1,13,14
 267 647 267 647 279 494 c 0,15,16
 285 415 285 415 301 278 c 0,17,18
 313 174 313 174 313 136 c 256,19,20
 313 98 313 98 306 74 c 0,21,22
 300 60 300 60 285 53.5 c 128,-1,23
 270 47 270 47 249 47 c 0,24,25
 205 47 205 47 161 69 c 1,26,27
 146 117 146 117 134 189 c 0,28,29
 114 309 114 309 104 486 c 0,30,31
 90 723 90 723 90 1055 c 0,32,33
 90 1124 90 1124 99.5 1279.5 c 128,-1,34
 109 1435 109 1435 122 1536 c 1,35,36
 137 1542 137 1542 154.5 1545 c 128,-1,37
 172 1548 172 1548 185 1548 c 0,38,39
 206 1548 206 1548 228.5 1542 c 128,-1,40
 251 1536 251 1536 273 1520 c 1,41,42
 282 1506 282 1506 285.5 1488.5 c 128,-1,43
 289 1471 289 1471 289 1449 c 0,44,45
 289 1440 289 1440 288 1420 c 128,-1,46
 287 1400 287 1400 287 1389 c 0,47,48
 287 1379 287 1379 287 1372.5 c 128,-1,49
 287 1366 287 1366 291 1350 c 1,50,-1
 866 737 l 1,51,52
 848 875 848 875 845 903 c 0,53,54
 833 1008 833 1008 827.5 1086.5 c 128,-1,55
 822 1165 822 1165 822 1269 c 0,56,57
 822 1330 822 1330 835 1463 c 0,58,59
 853 1642 853 1642 878 1710 c 1,60,61
 892 1710 892 1710 920 1716 c 128,-1,62
 948 1722 948 1722 963 1722 c 0,63,64
 984 1722 984 1722 1000.5 1713.5 c 128,-1,65
 1017 1705 1017 1705 1031 1680 c 1,66,67
 1031 1671 1031 1671 1020 1493 c 0,68,69
 1014 1396 1014 1396 1014 1322 c 0,70,71
 1014 1250 1014 1250 1018 1170 c 128,-1,72
 1022 1090 1022 1090 1032 992 c 0,73,74
 1055 785 1055 785 1097 626 c 1,75,76
 1130 517 1130 517 1162 409 c 128,-1,77
 1194 301 1194 301 1194 207 c 0,0,1
EndSplineSet
EndChar

StartChar: O
Encoding: 79 79 49
Width: 972
GlyphClass: 2
Flags: W
LayerCount: 2
Fore
SplineSet
902 825 m 0,0,1
 902 600 902 600 892 491 c 0,2,3
 871 263 871 263 803 135 c 0,4,5
 714 -32 714 -32 546 -32 c 0,6,7
 360 -32 360 -32 252 102 c 0,8,9
 167 208 167 208 132 399 c 0,10,11
 108 531 108 531 108 702 c 0,12,13
 108 1077 108 1077 193 1332 c 0,14,15
 255 1518 255 1518 354 1622 c 0,16,17
 420 1691 420 1691 449 1691 c 0,18,19
 540 1691 540 1691 642 1588 c 0,20,21
 753 1476 753 1476 822 1292 c 0,22,23
 902 1078 902 1078 902 825 c 0,0,1
734 738 m 256,24,25
 734 862 734 862 680.5 989.5 c 128,-1,26
 627 1117 627 1117 582 1117 c 0,27,28
 571 1117 571 1117 564 1109 c 0,29,30
 521 1021 521 1021 447 1021 c 0,31,32
 399 1021 399 1021 350 1058 c 1,33,34
 325 1058 325 1058 294 966.5 c 128,-1,35
 263 875 263 875 263 789 c 0,36,37
 263 776 263 776 263 767 c 128,-1,38
 263 758 263 758 267 738 c 0,39,40
 292 580 292 580 356 485 c 0,41,42
 402 416 402 416 466 384 c 0,43,44
 502 366 502 366 524 366 c 0,45,46
 642 366 642 366 697 514 c 0,47,48
 734 614 734 614 734 738 c 256,24,25
EndSplineSet
EndChar

StartChar: P
Encoding: 80 80 50
Width: 897
GlyphClass: 2
Flags: W
LayerCount: 2
Fore
SplineSet
824 1232 m 0,0,1
 824 897 824 897 752 722 c 0,2,3
 696 587 696 587 583 523 c 1,4,5
 484 480 484 480 386 438 c 1,6,7
 386 392 386 392 392 319 c 0,8,9
 408 124 408 124 408 0 c 1,10,-1
 254 0 l 1,11,12
 229 14 229 14 188 284 c 0,13,14
 155 504 155 504 120 821 c 0,15,16
 92 1072 92 1072 78 1232 c 1,17,18
 78 1446 78 1446 185 1581 c 0,19,20
 282 1703 282 1703 408 1703 c 0,21,22
 604 1703 604 1703 710 1590 c 0,23,24
 788 1507 788 1507 813 1371 c 0,25,26
 824 1312 824 1312 824 1232 c 0,0,1
653 1148 m 1,27,28
 631 1217 631 1217 558 1270 c 0,29,30
 493 1317 493 1317 443 1317 c 0,31,32
 358 1317 358 1317 311 1209 c 0,33,34
 276 1129 276 1129 276 1053 c 0,35,36
 276 1022 276 1022 284 954 c 0,37,38
 289 911 289 911 294 869 c 1,39,40
 441 882 441 882 540 967 c 0,41,42
 627 1041 627 1041 653 1148 c 1,27,28
EndSplineSet
EndChar

StartChar: Q
Encoding: 81 81 51
Width: 1047
GlyphClass: 2
Flags: W
LayerCount: 2
Fore
SplineSet
1104 111 m 1,0,-1
 906 -18 l 1,1,2
 838 41 838 41 783 102 c 1,3,4
 740 38 740 38 684 5 c 0,5,6
 622 -32 622 -32 542 -32 c 0,7,8
 356 -32 356 -32 249 102 c 0,9,10
 164 209 164 209 130 399 c 0,11,12
 107 529 107 529 107 702 c 0,13,14
 107 1076 107 1076 194 1332 c 0,15,16
 258 1519 258 1519 357 1622 c 0,17,18
 424 1691 424 1691 452 1691 c 0,19,20
 545 1691 545 1691 646 1588 c 0,21,22
 756 1476 756 1476 824 1292 c 0,23,24
 902 1081 902 1081 902 825 c 0,25,26
 902 790 902 790 902 752 c 128,-1,27
 902 714 902 714 903 673 c 0,28,29
 903 581 903 581 898 508.5 c 128,-1,30
 893 436 893 436 879 360 c 1,31,32
 975 225 975 225 1104 111 c 1,0,-1
732 738 m 0,33,34
 732 862 732 862 679.5 989.5 c 128,-1,35
 627 1117 627 1117 583 1117 c 0,36,37
 573 1117 573 1117 566 1109 c 0,38,39
 521 1021 521 1021 448 1021 c 0,40,41
 425 1021 425 1021 401 1030 c 128,-1,42
 377 1039 377 1039 353 1058 c 1,43,44
 327 1058 327 1058 294.5 966.5 c 128,-1,45
 262 875 262 875 262 786 c 0,46,47
 262 773 262 773 262.5 766.5 c 128,-1,48
 263 760 263 760 266 738 c 0,49,50
 290 580 290 580 354 485 c 0,51,52
 401 415 401 415 463 384 c 0,53,54
 499 366 499 366 521 366 c 0,55,56
 539 366 539 366 552.5 368.5 c 128,-1,57
 566 371 566 371 585 377 c 1,58,59
 557 426 557 426 528 482 c 0,60,61
 493 549 493 549 474 591 c 1,62,-1
 674 719 l 1,63,64
 680 705 680 705 697 670 c 128,-1,65
 714 635 714 635 725 615 c 1,66,67
 728 638 728 638 730 670 c 128,-1,68
 732 702 732 702 732 738 c 0,33,34
EndSplineSet
EndChar

StartChar: R
Encoding: 82 82 52
Width: 1079
GlyphClass: 2
Flags: W
LayerCount: 2
Fore
SplineSet
984 -29 m 1,0,1
 925 -22 925 -22 830.5 14 c 128,-1,2
 736 50 736 50 644 86 c 0,3,4
 530 129 530 129 453 146 c 1,5,6
 458 115 458 115 458 110 c 128,-1,7
 458 105 458 105 458 96 c 0,8,9
 458 8 458 8 371 -2 c 1,10,11
 317 -4 317 -4 299 -5 c 1,12,13
 256 173 256 173 231 385 c 0,14,15
 212 541 212 541 206 681 c 0,16,17
 204 739 204 739 203 798 c 1,18,19
 179 798 179 798 163 804 c 0,20,21
 117 821 117 821 89 875 c 0,22,23
 48 953 48 953 48 1094 c 0,24,25
 48 1243 48 1243 132 1384 c 0,26,27
 207 1510 207 1510 328 1593.5 c 128,-1,28
 449 1677 449 1677 554 1677 c 0,29,30
 707 1677 707 1677 788 1603 c 0,31,32
 854 1542 854 1542 877 1427 c 0,33,34
 891 1356 891 1356 891 1224 c 0,35,36
 891 1093 891 1093 839 942 c 0,37,38
 794 813 794 813 719 688 c 0,39,40
 654 580 654 580 584 504 c 1,41,42
 584 468 584 468 684 430 c 0,43,44
 713 419 713 419 873 371 c 0,45,46
 978 340 978 340 984 321 c 1,47,-1
 984 -29 l 1,0,1
708 1224 m 0,48,49
 708 1263 708 1263 666.5 1287.5 c 128,-1,50
 625 1312 625 1312 574 1312 c 0,51,52
 558 1312 558 1312 550.5 1310 c 128,-1,53
 543 1308 543 1308 539 1307 c 0,54,55
 459 1284 459 1284 414 1235 c 0,56,57
 408 1228 408 1228 300 1028 c 1,58,59
 360 980 360 980 382 890 c 0,60,61
 392 848 392 848 400 746 c 0,62,63
 405 676 405 676 423 669 c 1,64,65
 454 723 454 723 547 865 c 0,66,67
 626 986 626 986 659 1053 c 0,68,69
 708 1153 708 1153 708 1224 c 0,48,49
EndSplineSet
EndChar

StartChar: S
Encoding: 83 83 53
Width: 1214
GlyphClass: 2
Flags: W
LayerCount: 2
Fore
SplineSet
1151 530 m 0,0,1
 1151 214 1151 214 1030 94 c 0,2,3
 921 -14 921 -14 654 -14 c 2,4,-1
 299 -14 l 1,5,6
 298 -4 298 -4 308 96 c 128,-1,7
 318 196 318 196 328.5 298.5 c 128,-1,8
 339 401 339 401 339 407 c 1,9,10
 376 441 376 441 464 467 c 0,11,12
 493 475 493 475 545 486 c 1,13,14
 580 486 580 486 594 452 c 0,15,16
 627 375 627 375 704 375 c 0,17,18
 782 375 782 375 820 381 c 0,19,20
 888 392 888 392 900 423 c 1,21,22
 909 479 909 479 774 532 c 0,23,24
 629 589 629 589 430 589 c 0,25,26
 403 589 403 589 374.5 588 c 128,-1,27
 346 587 346 587 317 584 c 1,28,29
 182 612 182 612 144 659 c 0,30,31
 83 734 83 734 83 966 c 0,32,33
 83 1195 83 1195 228 1374 c 0,34,35
 337 1508 337 1508 511 1598 c 0,36,37
 645 1667 645 1667 704 1667 c 0,38,39
 735 1667 735 1667 778.5 1603.5 c 128,-1,40
 822 1540 822 1540 822 1491 c 0,41,42
 820 1449 820 1449 815 1408.5 c 128,-1,43
 810 1368 810 1368 795 1299 c 1,44,45
 620 1299 620 1299 479 1203 c 0,46,47
 351 1116 351 1116 339 1023 c 0,48,49
 335 1003 335 1003 360 996.5 c 128,-1,50
 385 990 385 990 440 990 c 0,51,52
 486 990 486 990 518 991 c 128,-1,53
 550 992 550 992 579 993 c 0,54,55
 734 993 734 993 833 969 c 0,56,57
 979 934 979 934 1056 843 c 0,58,59
 1151 731 1151 731 1151 530 c 0,0,1
EndSplineSet
EndChar

StartChar: T
Encoding: 84 84 54
Width: 1035
GlyphClass: 2
Flags: W
LayerCount: 2
Fore
SplineSet
975 1268 m 0,0,1
 967 1269 967 1269 962 1269 c 0,2,3
 911 1269 911 1269 818 1231 c 0,4,5
 751 1203 751 1203 667 1159 c 0,6,7
 631 1139 631 1139 596 1119 c 1,8,-1
 654 41 l 1,9,10
 621 7 621 7 591 -4 c 0,11,12
 572 -11 572 -11 541 -11 c 0,13,14
 526 -11 526 -11 511 -11 c 0,15,16
 495 -13 495 -13 479 -20 c 1,17,-1
 398 1046 l 1,18,19
 359 1019 359 1019 320 993 c 0,20,21
 224 929 224 929 173 899 c 0,22,23
 92 852 92 852 86 864 c 1,24,-1
 60 1346 l 1,25,26
 132 1386 132 1386 204 1426 c 0,27,28
 377 1520 377 1520 506 1585 c 0,29,30
 692 1678 692 1678 774 1704 c 0,31,32
 816 1718 816 1718 887 1724 c 0,33,34
 910 1725 910 1725 950 1727 c 1,35,36
 955 1680 955 1680 969 1552 c 0,37,38
 977 1474 977 1474 982 1414 c 128,-1,39
 987 1354 987 1354 987 1322 c 0,40,41
 987 1268 987 1268 975 1268 c 0,0,1
EndSplineSet
EndChar

StartChar: U
Encoding: 85 85 55
Width: 1140
GlyphClass: 2
Flags: W
LayerCount: 2
Fore
SplineSet
1061 669 m 0,0,1
 1061 485 1061 485 1045 366 c 0,2,3
 1021 187 1021 187 961 91 c 0,4,5
 886 -29 886 -29 755 -29 c 0,6,7
 614 -29 614 -29 499 -9 c 0,8,9
 413 6 413 6 323 36 c 1,10,11
 223 213 223 213 169 409 c 0,12,13
 124 574 124 574 106 784 c 0,14,15
 93 939 93 939 93 1164 c 0,16,17
 93 1246 93 1246 98 1345 c 0,18,19
 110 1583 110 1583 110 1611 c 1,20,-1
 287 1611 l 1,21,22
 287 1575 287 1575 281 1493 c 128,-1,23
 275 1411 275 1411 269.5 1322.5 c 128,-1,24
 264 1234 264 1234 264 1164 c 0,25,26
 264 730 264 730 344 561 c 128,-1,27
 424 392 424 392 636 392 c 0,28,29
 811 392 811 392 865 479 c 0,30,31
 908 548 908 548 908 758 c 0,32,33
 908 1009 908 1009 814 1136 c 0,34,35
 745 1229 745 1229 636 1247 c 1,36,-1
 677 1623 l 1,37,38
 685 1626 685 1626 725 1626 c 2,39,-1
 755 1626 l 2,40,41
 813 1626 813 1626 879 1530 c 0,42,43
 957 1416 957 1416 1004 1220 c 0,44,45
 1061 982 1061 982 1061 669 c 0,0,1
EndSplineSet
EndChar

StartChar: V
Encoding: 86 86 56
Width: 975
GlyphClass: 2
Flags: W
LayerCount: 2
Fore
SplineSet
912 1635 m 2,0,-1
 665 101 l 1,1,2
 629 63 629 63 598 39 c 0,3,4
 565 16 565 16 533 -6 c 1,5,6
 452 56 452 56 343.5 264 c 128,-1,7
 235 472 235 472 159 707 c 0,8,9
 77 960 77 960 77 1118 c 0,10,11
 77 1269 77 1269 88 1360 c 0,12,13
 104 1490 104 1490 140 1503 c 1,14,15
 163 1517 163 1517 188 1523.5 c 128,-1,16
 213 1530 213 1530 235 1530 c 0,17,18
 266 1530 266 1530 294 1520 c 0,19,20
 298 1519 298 1519 305 1515 c 1,21,22
 297 1464 297 1464 297 1402 c 0,23,24
 297 1227 297 1227 353 1029 c 0,25,26
 418 798 418 798 542 612 c 1,27,28
 587 892 587 892 628 1103 c 0,29,30
 665 1292 665 1292 701 1450 c 0,31,32
 714 1505 714 1505 762 1703 c 1,33,34
 777 1716 777 1716 819 1716 c 0,35,36
 857 1716 857 1716 885 1700.5 c 128,-1,37
 913 1685 913 1685 913 1650 c 0,38,39
 913 1640 913 1640 912 1635 c 2,0,-1
EndSplineSet
EndChar

StartChar: W
Encoding: 87 87 57
Width: 1505
GlyphClass: 2
Flags: W
LayerCount: 2
Fore
SplineSet
1442 779 m 0,0,1
 1442 581 1442 581 1407 420 c 0,2,3
 1365 226 1365 226 1280 117 c 0,4,5
 1180 -11 1180 -11 1029 -11 c 0,6,7
 898 -11 898 -11 788 76 c 0,8,9
 740 114 740 114 639 233 c 1,10,11
 605 132 605 132 563 81 c 0,12,13
 511 18 511 18 440 18 c 0,14,15
 329 18 329 18 239 176 c 0,16,17
 162 312 162 312 116 532 c 0,18,19
 74 733 74 733 74 912 c 0,20,21
 74 955 74 955 82 1108 c 128,-1,22
 90 1261 90 1261 102 1390 c 0,23,24
 118 1565 118 1565 137 1641 c 1,25,-1
 300 1641 l 1,26,27
 300 1234 300 1234 320 979.5 c 128,-1,28
 340 725 340 725 372 602 c 0,29,30
 400 494 400 494 435 485 c 1,31,32
 469 515 469 515 479 570.5 c 128,-1,33
 489 626 489 626 489 726 c 0,34,35
 489 759 489 759 488.5 795 c 128,-1,36
 488 831 488 831 488 869 c 0,37,38
 488 977 488 977 494 1078 c 128,-1,39
 500 1179 500 1179 518 1299 c 1,40,41
 540 1347 540 1347 562.5 1366 c 128,-1,42
 585 1385 585 1385 610 1385 c 0,43,44
 637 1385 637 1385 672 1359 c 0,45,46
 697 1338 697 1338 723 1317 c 1,47,48
 723 1284 723 1284 722.5 1249.5 c 128,-1,49
 722 1215 722 1215 722 1179 c 0,50,51
 722 984 722 984 737 864 c 0,52,53
 760 684 760 684 820 587 c 0,54,55
 895 467 895 467 1029 467 c 0,56,57
 1121 467 1121 467 1180 537 c 0,58,59
 1236 603 1236 603 1236 696 c 0,60,61
 1236 813 1236 813 1177 929 c 0,62,63
 1132 1017 1132 1017 1055 1102 c 0,64,65
 1008 1154 1008 1154 953 1200 c 1,66,67
 953 1319 953 1319 978.5 1453.5 c 128,-1,68
 1004 1588 1004 1588 1047 1677 c 1,69,70
 1153 1611 1153 1611 1237 1497 c 0,71,72
 1333 1367 1333 1367 1384 1199 c 0,73,74
 1442 1010 1442 1010 1442 779 c 0,0,1
EndSplineSet
EndChar

StartChar: X
Encoding: 88 88 58
Width: 1221
GlyphClass: 2
Flags: W
LayerCount: 2
Fore
SplineSet
1152 387 m 1,0,1
 1152 236 1152 236 1137.5 146.5 c 128,-1,2
 1123 57 1123 57 1091 17 c 1,3,-1
 990 17 l 1,4,5
 928 112 928 112 674 434 c 1,6,7
 649 361 649 361 632 291.5 c 128,-1,8
 615 222 615 222 609 156 c 1,9,10
 547 92 547 92 494 52 c 0,11,12
 427 2 427 2 385 2 c 0,13,14
 368 2 368 2 357 9 c 1,15,16
 357 75 357 75 379 168.5 c 128,-1,17
 401 262 401 262 441 381 c 0,18,19
 470 469 470 469 527 615 c 1,20,21
 500 648 500 648 348 829 c 0,22,23
 223 978 223 978 174 1039 c 0,24,25
 96 1136 96 1136 96 1149 c 1,26,27
 88 1158 88 1158 84 1182.5 c 128,-1,28
 80 1207 80 1207 80 1246 c 0,29,30
 80 1342 80 1342 103 1438 c 0,31,32
 130 1552 130 1552 180 1610 c 1,33,34
 191 1610 191 1610 275 1517 c 0,35,36
 334 1451 334 1451 469 1294 c 0,37,38
 609 1130 609 1130 695 1029 c 1,39,40
 747 1156 747 1156 781 1247 c 0,41,42
 821 1353 821 1353 844 1431 c 128,-1,43
 867 1509 867 1509 867 1549 c 0,44,45
 867 1563 867 1563 864 1574 c 1,46,-1
 1091 1682 l 1,47,48
 1091 1547 1091 1547 1055 1398 c 0,49,50
 1023 1265 1023 1265 965 1119 c 0,51,52
 931 1033 931 1033 845 846 c 1,53,54
 972 688 972 688 1048 576 c 0,55,56
 1135 449 1135 449 1152 387 c 1,0,1
EndSplineSet
EndChar

StartChar: Y
Encoding: 89 89 59
Width: 1182
GlyphClass: 2
Flags: W
LayerCount: 2
Fore
SplineSet
1106 1638 m 1,0,1
 1114 1594 1114 1594 1117 1555 c 128,-1,2
 1120 1516 1120 1516 1120 1471 c 0,3,4
 1120 1285 1120 1285 1047 1118 c 0,5,6
 991 991 991 991 896 879 c 0,7,8
 845 819 845 819 774 758 c 1,9,10
 774 695 774 695 782 545 c 128,-1,11
 790 395 790 395 790 304 c 0,12,13
 790 212 790 212 786.5 148.5 c 128,-1,14
 783 85 783 85 771 -5 c 1,15,-1
 591 -5 l 1,16,17
 591 116 591 116 580.5 324.5 c 128,-1,18
 570 533 570 533 558 639 c 1,19,20
 509 626 509 626 467 619.5 c 128,-1,21
 425 613 425 613 384 613 c 0,22,23
 204 613 204 613 128 756 c 0,24,25
 68 868 68 868 68 1083 c 0,26,27
 68 1155 68 1155 75 1245 c 0,28,29
 78 1278 78 1278 90 1400 c 1,30,31
 113 1437 113 1437 155.5 1456.5 c 128,-1,32
 198 1476 198 1476 246 1476 c 0,33,34
 267 1476 267 1476 282.5 1473 c 128,-1,35
 298 1470 298 1470 320 1463 c 1,36,37
 304 1392 304 1392 295 1335 c 0,38,39
 283 1259 283 1259 283 1205 c 0,40,41
 283 1118 283 1118 308 1074 c 0,42,43
 338 1020 338 1020 406 1020 c 0,44,45
 417 1020 417 1020 423.5 1021 c 128,-1,46
 430 1022 430 1022 447 1025 c 0,47,48
 632 1066 632 1066 788 1254 c 0,49,50
 941 1438 941 1438 941 1607 c 0,51,52
 941 1638 941 1638 935 1667 c 1,53,54
 982 1689 982 1689 1030 1689 c 0,55,56
 1064 1689 1064 1689 1085 1676.5 c 128,-1,57
 1106 1664 1106 1664 1106 1638 c 1,0,1
EndSplineSet
EndChar

StartChar: Z
Encoding: 90 90 60
Width: 1307
GlyphClass: 2
Flags: W
LayerCount: 2
Fore
SplineSet
1259 279 m 1,0,1
 1250 236 1250 236 1246 207 c 0,2,3
 1232 115 1232 115 1232 42 c 1,4,5
 1121 42 1121 42 1039.5 39.5 c 128,-1,6
 958 37 958 37 880.5 32 c 128,-1,7
 803 27 803 27 593 9 c 1,8,9
 425 9 425 9 387 16 c 0,10,11
 315 29 315 29 291 88.5 c 128,-1,12
 267 148 267 148 267 305 c 0,13,14
 267 423 267 423 330 633 c 0,15,16
 346 685 346 685 449 987 c 0,17,18
 513 1174 513 1174 513 1225 c 0,19,20
 513 1257 513 1257 494 1257 c 0,21,22
 429 1257 429 1257 355 1151 c 0,23,24
 275 1036 275 1036 243 875 c 1,25,26
 230 865 230 865 222 860 c 0,27,28
 196 845 196 845 170 845 c 0,29,30
 153 845 153 845 138 851.5 c 128,-1,31
 123 858 123 858 108 875 c 1,32,33
 94 917 94 917 87.5 963 c 128,-1,34
 81 1009 81 1009 81 1059 c 0,35,36
 81 1134 81 1134 94 1211 c 0,37,38
 98 1237 98 1237 108 1275 c 1,39,40
 140 1331 140 1331 172 1388 c 0,41,42
 241 1499 241 1499 314 1564 c 0,43,44
 416 1656 416 1656 519 1656 c 0,45,46
 679 1656 679 1656 738 1546 c 0,47,48
 773 1481 773 1481 773 1361 c 0,49,50
 773 1169 773 1169 719 1009 c 0,51,52
 717 1003 717 1003 609 749 c 0,53,54
 540 586 540 586 519 428 c 1,55,56
 536 426 536 426 554 426 c 128,-1,57
 572 426 572 426 591 426 c 0,58,59
 648 426 648 426 737 433 c 0,60,61
 940 449 940 449 988 449 c 0,62,63
 1117 449 1117 449 1180 417 c 0,64,65
 1259 377 1259 377 1259 279 c 1,0,1
EndSplineSet
EndChar

StartChar: bracketleft
Encoding: 91 91 61
Width: 764
GlyphClass: 2
Flags: W
LayerCount: 2
Fore
SplineSet
2274 1797 m 1,0,-1
 852 1797 l 1,1,2
 643 1657 643 1657 517.5 1360.5 c 128,-1,3
 392 1064 392 1064 392 696 c 0,4,5
 392 431 392 431 459 170 c 0,6,7
 531 -110 531 -110 676 -365 c 0,8,9
 690 -393 690 -393 707 -421 c 0,10,11
 732 -460 732 -460 744 -479 c 1,12,13
 510 -369 510 -369 342 -140 c 0,14,15
 186 73 186 73 103 364 c 0,16,17
 24 640 24 640 24 940 c 0,18,19
 24 1253 24 1253 110 1520 c 0,20,21
 201 1803 201 1803 366 1974 c 0,22,23
 545 2160 545 2160 792 2193 c 1,24,-1
 2274 2193 l 1,25,-1
 2274 1797 l 1,0,-1
EndSplineSet
EndChar

StartChar: backslash
Encoding: 92 92 62
Width: 1126
GlyphClass: 2
Flags: W
LayerCount: 2
Fore
SplineSet
920 -141 m 0,0,1
 870 -141 870 -141 840 -90 c 0,2,3
 802 -27 802 -27 723 160 c 1,4,-1
 432 905 l 1,5,6
 368 1056 368 1056 193 1374 c 0,7,8
 177 1403 177 1403 177 1427 c 0,9,10
 177 1466 177 1466 206.5 1495 c 128,-1,11
 236 1524 236 1524 274 1524 c 0,12,13
 319 1524 319 1524 350 1478 c 0,14,15
 464 1307 464 1307 597 990 c 1,16,-1
 802 475 l 2,17,18
 909 203 909 203 1003 2 c 0,19,20
 1015 -23 1015 -23 1015 -45 c 0,21,22
 1015 -84 1015 -84 986.5 -112.5 c 128,-1,23
 958 -141 958 -141 920 -141 c 0,0,1
EndSplineSet
EndChar

StartChar: bracketright
Encoding: 93 93 63
Width: 726
GlyphClass: 2
Flags: W
LayerCount: 2
Fore
SplineSet
14 -479 m 1,0,1
 20 -472 20 -472 22 -459.5 c 128,-1,2
 24 -447 24 -447 24 -444 c 0,3,4
 24 -426 24 -426 19 -404 c 0,5,6
 6 -346 6 -346 6 -335 c 0,7,8
 6 -319 6 -319 14 -305 c 0,9,10
 182 -70 182 -70 265 210 c 0,11,12
 341 466 341 466 341 740 c 0,13,14
 341 1069 341 1069 232 1361 c 0,15,16
 128 1640 128 1640 -42 1797 c 1,17,-1
 -594 1797 l 1,18,-1
 -594 2193 l 1,19,-1
 14 2193 l 1,20,21
 235 2168 235 2168 400 1990 c 0,22,23
 554 1824 554 1824 638 1551 c 0,24,25
 719 1288 719 1288 719 979 c 0,26,27
 719 680 719 680 644 405 c 0,28,29
 564 112 564 112 411 -111 c 0,30,31
 246 -352 246 -352 14 -479 c 1,0,1
EndSplineSet
EndChar

StartChar: asciicircum
Encoding: 94 94 64
Width: 1190
GlyphClass: 2
Flags: W
LayerCount: 2
Fore
SplineSet
594 1646 m 0,0,1
 649 1646 649 1646 726 1578 c 0,2,3
 750 1557 750 1557 836 1467 c 2,4,-1
 994 1297 l 2,5,6
 1021 1267 1021 1267 1021 1236 c 0,7,8
 1021 1199 1021 1199 993 1171.5 c 128,-1,9
 965 1144 965 1144 929 1144 c 0,10,11
 896 1144 896 1144 866 1173 c 0,12,13
 786 1263 786 1263 615 1433 c 1,14,15
 361 1122 361 1122 289 1122 c 0,16,17
 253 1122 253 1122 225.5 1150 c 128,-1,18
 198 1178 198 1178 198 1214 c 0,19,20
 198 1249 198 1249 229 1278 c 0,21,22
 284 1332 284 1332 533 1615 c 0,23,24
 560 1646 560 1646 594 1646 c 0,0,1
EndSplineSet
EndChar

StartChar: underscore
Encoding: 95 95 65
Width: 1284
GlyphClass: 2
Flags: W
LayerCount: 2
Fore
SplineSet
973 -345 m 2,0,1
 902 -345 902 -345 760 -340 c 128,-1,2
 618 -335 618 -335 547 -335 c 2,3,-1
 102 -335 l 2,4,5
 79 -335 79 -335 33 -340 c 128,-1,6
 -13 -345 -13 -345 -35 -345 c 1,7,-1
 -35 -160 l 1,8,9
 65 -160 65 -160 265 -158.5 c 128,-1,10
 465 -157 465 -157 565 -157 c 0,11,12
 636 -157 636 -157 776.5 -162.5 c 128,-1,13
 917 -168 917 -168 988 -168 c 2,14,-1
 1323 -160 l 1,15,-1
 1323 -345 l 1,16,-1
 973 -345 l 2,0,1
EndSplineSet
EndChar

StartChar: grave
Encoding: 96 96 66
Width: 1139
GlyphClass: 2
Flags: W
LayerCount: 2
Fore
SplineSet
577 1267 m 0,0,1
 577 1231 577 1231 548.5 1204.5 c 128,-1,2
 520 1178 520 1178 484 1178 c 0,3,4
 441 1178 441 1178 412 1220 c 2,5,-1
 312 1369 l 2,6,7
 259 1442 259 1442 188 1497 c 0,8,9
 149 1527 149 1527 149 1568 c 0,10,11
 149 1604 149 1604 175.5 1632.5 c 128,-1,12
 202 1661 202 1661 238 1661 c 0,13,14
 300 1661 300 1661 440 1495 c 0,15,16
 577 1331 577 1331 577 1267 c 0,0,1
EndSplineSet
EndChar

StartChar: a
Encoding: 97 97 67
Width: 740
GlyphClass: 2
Flags: W
LayerCount: 2
Fore
SplineSet
693 201 m 1,0,1
 706 129 706 129 709 107 c 128,-1,2
 712 85 712 85 712 65 c 0,3,4
 712 34 712 34 693.5 23.5 c 128,-1,5
 675 13 675 13 621 13 c 0,6,7
 539 13 539 13 515 96 c 1,8,9
 497 217 497 217 482 292 c 1,10,11
 377 253 377 253 333 233 c 0,12,13
 267 204 267 204 251 186 c 1,14,15
 251 162 251 162 252.5 128.5 c 128,-1,16
 254 95 254 95 254 93 c 0,17,18
 254 61 254 61 253 47 c 128,-1,19
 252 33 252 33 245 -9 c 1,20,-1
 101 -9 l 1,21,22
 89 49 89 49 77 108 c 0,23,24
 69 158 69 158 69 250 c 0,25,26
 69 338 69 338 102 561 c 0,27,28
 143 839 143 839 201 1033 c 0,29,30
 277 1289 277 1289 368 1345 c 1,31,32
 431 1345 431 1345 477 1251 c 0,33,34
 511 1180 511 1180 543 1032 c 0,35,36
 567 909 567 909 591 787 c 0,37,38
 626 619 626 619 652 470.5 c 128,-1,39
 678 322 678 322 693 201 c 1,0,1
393 624 m 0,40,41
 393 642 393 642 385.5 701.5 c 128,-1,42
 378 761 378 761 368 808 c 1,43,-1
 338 810 l 1,44,45
 323 763 323 763 310 702 c 128,-1,46
 297 641 297 641 288 576 c 1,47,48
 393 601 393 601 393 624 c 0,40,41
EndSplineSet
EndChar

StartChar: b
Encoding: 98 98 68
Width: 1056
GlyphClass: 2
Flags: W
LayerCount: 2
Fore
SplineSet
31 68 m 0,0,1
 31 80 31 80 33 95 c 0,2,3
 37 130 37 130 40.5 166.5 c 128,-1,4
 44 203 44 203 56 243 c 1,5,-1
 93 449 l 2,6,7
 90 451 90 451 90 461.5 c 128,-1,8
 90 472 90 472 97 495 c 0,9,10
 104 519 104 519 108 537 c 2,11,-1
 116 576 l 1,12,-1
 116 577 l 1,13,14
 106 591 106 591 115 615 c 2,15,-1
 128 649 l 1,16,-1
 130 642 l 1,17,18
 128 649 128 649 128 680 c 0,19,20
 128 709 128 709 140 733 c 1,21,-1
 147 771 l 1,22,-1
 163 830 l 1,23,-1
 187 1073 l 1,24,-1
 243 1392 l 1,25,-1
 308 1513 l 1,26,-1
 382 1518 l 1,27,-1
 394 1518 l 1,28,-1
 470 1491 l 1,29,-1
 470 1422 l 2,30,31
 470 1396 470 1396 456.5 1375 c 128,-1,32
 443 1354 443 1354 444 1346 c 2,33,-1
 444 1345 l 2,34,35
 445 1336 445 1336 445 1335 c 2,36,-1
 423 1204 l 2,37,38
 422 1200 422 1200 424 1198 c 2,39,-1
 409 1007 l 1,40,-1
 446 950 l 1,41,-1
 473 968 l 2,42,43
 480 973 480 973 509 977 c 0,44,45
 567 985 567 985 572 987 c 0,46,47
 630 1017 630 1017 631 1017 c 0,48,49
 641 1019 641 1019 733 1044 c 0,50,51
 755 1050 755 1050 804 1050 c 2,52,-1
 814 1050 l 2,53,54
 868 1050 868 1050 874 1047 c 2,55,-1
 913 1032 l 1,56,-1
 958 1012 l 1,57,-1
 991 991 l 1,58,-1
 1003 970 l 1,59,-1
 1006 949 l 1,60,61
 1026 924 1026 924 1026 900 c 2,62,-1
 1032 843 l 1,63,64
 1032 730 1032 730 988 663 c 0,65,66
 973 638 973 638 968 618 c 0,67,68
 966 610 966 610 947 572 c 1,69,70
 940 567 940 567 931.5 547 c 128,-1,71
 923 527 923 527 916 522 c 0,72,73
 915 517 915 517 900 492.5 c 128,-1,74
 885 468 885 468 878 464 c 1,75,76
 858 429 858 429 834 393 c 2,77,-1
 808 352 l 2,78,79
 789 322 789 322 767 299.5 c 128,-1,80
 745 277 745 277 736.5 264.5 c 128,-1,81
 728 252 728 252 713 235.5 c 128,-1,82
 698 219 698 219 663.5 186.5 c 128,-1,83
 629 154 629 154 628 149 c 0,84,85
 555 98 555 98 521 71.5 c 128,-1,86
 487 45 487 45 464.5 45 c 128,-1,87
 442 45 442 45 412 46 c 128,-1,88
 382 47 382 47 380 62 c 1,89,90
 348 93 348 93 345 104 c 128,-1,91
 342 115 342 115 312 137 c 0,92,93
 292 149 292 149 273 162 c 1,94,-1
 218 115 l 1,95,-1
 164 25 l 2,96,97
 146 -5 146 -5 97 -5 c 0,98,99
 49 -5 49 -5 34 42 c 0,100,101
 31 52 31 52 31 68 c 0,0,1
356 397 m 1,102,-1
 363 380 l 2,103,104
 367 376 367 376 371 364 c 0,105,106
 376 352 376 352 380 348 c 2,107,-1
 396 309 l 1,108,109
 423 301 423 301 432 301 c 0,110,111
 436 301 436 301 437 302 c 2,112,-1
 447 317 l 1,113,114
 465 317 465 317 473 323 c 0,115,116
 480 328 480 328 498 349 c 2,117,-1
 521 377 l 2,118,119
 527 381 527 381 539 400 c 128,-1,120
 551 419 551 419 556 423 c 2,121,-1
 589 447 l 2,122,123
 616 466 616 466 622 472 c 128,-1,124
 628 478 628 478 650 511 c 256,125,126
 672 544 672 544 678 552 c 2,127,-1
 724 594 l 1,128,-1
 739 640 l 1,129,130
 772 700 772 700 772 738 c 0,131,132
 772 823 772 823 683 823 c 0,133,134
 614 823 614 823 489 774 c 1,135,-1
 424 744 l 2,136,137
 400 731 400 731 399 712 c 2,138,-1
 401 694 l 2,139,140
 401 676 401 676 392 664 c 1,141,-1
 370 572 l 2,142,143
 366 544 366 544 360 504 c 0,144,145
 358 488 358 488 360 476 c 2,146,-1
 364 436 l 2,147,148
 364 427 364 427 361 425 c 2,149,-1
 356 397 l 1,102,-1
EndSplineSet
EndChar

StartChar: c
Encoding: 99 99 69
Width: 876
GlyphClass: 2
Flags: W
LayerCount: 2
Fore
SplineSet
822 183 m 0,0,1
 822 110 822 110 799 56 c 0,2,3
 787 29 787 29 765 0 c 1,4,-1
 237 0 l 1,5,6
 145 56 145 56 100 207 c 0,7,8
 59 345 59 345 59 554 c 0,9,10
 59 686 59 686 89 843 c 0,11,12
 128 1048 128 1048 200 1172 c 0,13,14
 291 1329 291 1329 422 1329 c 0,15,16
 524 1329 524 1329 590 1255 c 0,17,18
 645 1193 645 1193 671 1088 c 0,19,20
 692 1003 692 1003 692 912 c 0,21,22
 692 798 692 798 690 720 c 128,-1,23
 688 642 688 642 669 554 c 1,24,25
 636 554 636 554 609 543 c 0,26,27
 600 540 600 540 588 531 c 1,28,29
 528 531 528 531 506 589 c 0,30,31
 489 633 489 633 489 725 c 0,32,33
 489 761 489 761 490 795 c 128,-1,34
 491 829 491 829 492 863 c 0,35,36
 492 923 492 923 483 949 c 0,37,38
 471 984 471 984 440 984 c 0,39,40
 413 984 413 984 364 929 c 0,41,42
 308 866 308 866 272 778 c 0,43,44
 227 669 227 669 227 554 c 0,45,46
 227 453 227 453 254 399 c 0,47,48
 287 332 287 332 366 318 c 1,49,-1
 771 318 l 1,50,51
 790 289 790 289 809 261 c 0,52,53
 822 238 822 238 822 183 c 0,0,1
EndSplineSet
EndChar

StartChar: d
Encoding: 100 100 70
Width: 930
GlyphClass: 2
Flags: W
LayerCount: 2
Fore
SplineSet
887 680 m 0,0,1
 887 336 887 336 825 173 c 0,2,3
 773 37 773 37 663 1 c 0,4,5
 608 -17 608 -17 437 -17 c 0,6,7
 312 -17 312 -17 240.5 7.5 c 128,-1,8
 169 32 169 32 135 89 c 1,9,10
 131 121 131 121 128 154 c 0,11,12
 117 251 117 251 113 302 c 0,13,14
 105 401 105 401 105 459 c 1,15,-1
 170 443 l 1,16,17
 170 496 170 496 154 583 c 0,18,19
 142 650 142 650 123 719 c 1,20,21
 104 710 104 710 63 701 c 1,22,-1
 63 1050 l 1,23,24
 173 1216 173 1216 257 1277 c 0,25,26
 348 1343 348 1343 485 1343 c 0,27,28
 661 1343 661 1343 757 1237 c 0,29,30
 838 1148 838 1148 867 983 c 0,31,32
 887 870 887 870 887 680 c 0,0,1
744 692 m 0,33,34
 744 807 744 807 646 901 c 0,35,36
 562 981 562 981 497 981 c 0,37,38
 423 981 423 981 361 933 c 0,39,40
 284 874 284 874 284 774 c 0,41,42
 284 698 284 698 305 584 c 0,43,44
 318 511 318 511 341 423 c 1,45,46
 367 409 367 409 424 393 c 128,-1,47
 481 377 481 377 515 377 c 0,48,49
 662 377 662 377 703 432 c 128,-1,50
 744 487 744 487 744 692 c 0,33,34
EndSplineSet
EndChar

StartChar: e
Encoding: 101 101 71
Width: 768
GlyphClass: 2
Flags: W
LayerCount: 2
Fore
SplineSet
723 308 m 0,0,1
 732 299 732 299 732 258 c 0,2,3
 732 220 732 220 727 177 c 128,-1,4
 722 134 722 134 716 87 c 1,5,6
 716 30 716 30 678 7 c 0,7,8
 651 -9 651 -9 602 -9 c 0,9,10
 590 -9 590 -9 579.5 -8.5 c 128,-1,11
 569 -8 569 -8 560 -8 c 2,12,-1
 150 -8 l 1,13,14
 133 26 133 26 110.5 195 c 128,-1,15
 88 364 88 364 72 553 c 128,-1,16
 56 742 56 742 56 834 c 0,17,18
 56 943 56 943 162 1068 c 0,19,20
 252 1173 252 1173 384 1258 c 0,21,22
 507 1337 507 1337 581 1347 c 0,23,24
 585 1348 585 1348 593 1348 c 0,25,26
 629 1348 629 1348 645 1310 c 0,27,28
 657 1281 657 1281 657 1233 c 0,29,30
 657 1217 657 1217 655.5 1203 c 128,-1,31
 654 1189 654 1189 653 1176 c 0,32,33
 653 1041 653 1041 604 1010 c 1,34,35
 513 962 513 962 423 915 c 1,36,37
 346 859 346 859 290 807 c 0,38,39
 224 745 224 745 224 721 c 0,40,41
 224 708 224 708 245 708 c 1,42,43
 367 759 367 759 460.5 796 c 128,-1,44
 554 833 554 833 561 833 c 0,45,46
 601 833 601 833 617 778 c 0,47,48
 627 743 627 743 627 681 c 2,49,-1
 627 653 l 2,50,51
 627 551 627 551 596 509 c 0,52,53
 570 474 570 474 489 443 c 0,54,55
 314 376 314 376 285 363 c 1,56,57
 282 343 282 343 281 331 c 128,-1,58
 280 319 280 319 282 317 c 0,59,60
 361 320 361 320 443.5 322.5 c 128,-1,61
 526 325 526 325 565 325 c 0,62,63
 638 325 638 325 678 321.5 c 128,-1,64
 718 318 718 318 723 308 c 0,0,1
EndSplineSet
EndChar

StartChar: f
Encoding: 102 102 72
Width: 633
GlyphClass: 2
Flags: W
LayerCount: 2
Fore
SplineSet
596 576 m 2,0,-1
 596 556 l 2,1,2
 596 502 596 502 593 472.5 c 128,-1,3
 590 443 590 443 578 422 c 1,4,5
 448 379 448 379 366 352 c 128,-1,6
 284 325 284 325 264 300 c 0,7,8
 262 292 262 292 262 288 c 0,9,10
 262 265 262 265 266 218 c 0,11,12
 277 90 277 90 277 56 c 0,13,14
 277 1 277 1 263 -7.5 c 128,-1,15
 249 -16 249 -16 225 -16 c 0,16,17
 194 -16 194 -16 167 -1.5 c 128,-1,18
 140 13 140 13 129.5 39 c 128,-1,19
 119 65 119 65 114 124 c 0,20,21
 106 245 106 245 100 340 c 128,-1,22
 94 435 94 435 89 505 c 0,23,24
 70 761 70 761 69 774 c 0,25,26
 59 930 59 930 59 981 c 2,27,-1
 59 1009 l 2,28,29
 59 1049 59 1049 61.5 1077.5 c 128,-1,30
 64 1106 64 1106 75 1137 c 1,31,32
 113 1187 113 1187 269.5 1266.5 c 128,-1,33
 426 1346 426 1346 471 1346 c 0,34,35
 525 1346 525 1346 545 1266 c 1,36,37
 551 1221 551 1221 557 1176 c 0,38,39
 558 1156 558 1156 559.5 1139 c 128,-1,40
 561 1122 561 1122 561 1104 c 0,41,42
 561 1055 561 1055 548 1029 c 0,43,44
 528 996 528 996 400 927 c 0,45,46
 309 878 309 878 237 822 c 1,47,-1
 243 642 l 1,48,49
 284 642 284 642 371 680 c 0,50,51
 431 707 431 707 492 734 c 0,52,53
 503 737 503 737 511 737 c 0,54,55
 553 737 553 737 577 679 c 0,56,57
 596 632 596 632 596 576 c 2,0,-1
EndSplineSet
EndChar

StartChar: g
Encoding: 103 103 73
Width: 944
GlyphClass: 2
Flags: W
LayerCount: 2
Fore
SplineSet
894 164 m 0,0,1
 894 -4 894 -4 892 -85 c 128,-1,2
 890 -166 890 -166 887.5 -224 c 128,-1,3
 885 -282 885 -282 884 -282 c 0,4,5
 854 -314 854 -314 826.5 -327.5 c 128,-1,6
 799 -341 799 -341 761 -341 c 1,7,8
 751 -300 751 -300 748 -178 c 128,-1,9
 745 -56 745 -56 743.5 62.5 c 128,-1,10
 742 181 742 181 736 211 c 1,11,12
 712 123 712 123 640 54 c 0,13,14
 553 -29 553 -29 441 -29 c 0,15,16
 300 -29 300 -29 209 77 c 0,17,18
 133 166 133 166 97 323 c 0,19,20
 68 449 68 449 68 599 c 0,21,22
 68 682 68 682 93 821 c 0,23,24
 131 1034 131 1034 202 1164 c 0,25,26
 299 1343 299 1343 446 1343 c 0,27,28
 543 1343 543 1343 600 1296 c 0,29,30
 648 1256 648 1256 676 1177 c 0,31,32
 692 1130 692 1130 716 1016 c 0,33,34
 722 984 722 984 725 943 c 128,-1,35
 728 902 728 902 728 862 c 0,36,37
 728 803 728 803 721.5 765 c 128,-1,38
 715 727 715 727 701 723 c 1,39,40
 792 692 792 692 841 569 c 0,41,42
 878 477 878 477 889 338 c 0,43,44
 894 275 894 275 894 164 c 0,0,1
630 734 m 1,45,46
 592 754 592 754 568 819 c 0,47,48
 549 872 549 872 530 925 c 1,49,50
 503 978 503 978 452 978 c 0,51,52
 388 978 388 978 337 884 c 0,53,54
 297 811 297 811 270 693 c 0,55,56
 248 597 248 597 248 548 c 0,57,58
 248 462 248 462 287 406 c 0,59,60
 335 336 335 336 434 336 c 0,61,62
 472 336 472 336 517 361 c 0,63,64
 569 390 569 390 569 422 c 1,65,-1
 359 441 l 1,66,-1
 354 669 l 1,67,68
 392 700 392 700 459.5 717 c 128,-1,69
 527 734 527 734 630 734 c 1,45,46
EndSplineSet
EndChar

StartChar: h
Encoding: 104 104 74
Width: 846
GlyphClass: 2
Flags: W
LayerCount: 2
Fore
SplineSet
809 489 m 1,0,-1
 744 480 l 1,1,2
 758 399 758 399 772 285 c 0,3,4
 791 134 791 134 791 61 c 0,5,6
 791 32 791 32 788 15 c 1,7,8
 774 -2 774 -2 745 -11.5 c 128,-1,9
 716 -21 716 -21 688 -21 c 0,10,11
 651 -21 651 -21 636 -8 c 1,12,13
 611 32 611 32 590 136 c 0,14,15
 576 208 576 208 561 324.5 c 128,-1,16
 546 441 546 441 543 455 c 1,17,18
 526 447 526 447 509 439 c 0,19,20
 451 416 451 416 362 416 c 1,21,-1
 362 11 l 1,22,23
 342 1 342 1 320 -3.5 c 128,-1,24
 298 -8 298 -8 272 -8 c 0,25,26
 217 -8 217 -8 192 9 c 1,27,28
 185 20 185 20 182 57 c 128,-1,29
 179 94 179 94 179 138 c 0,30,31
 179 173 179 173 179 208 c 128,-1,32
 179 243 179 243 180 279 c 2,33,-1
 180 296 l 2,34,35
 180 359 180 359 173 393 c 1,36,37
 161 394 161 394 133 386 c 0,38,39
 83 372 83 372 68 368 c 1,40,41
 31 496 31 496 31 605 c 0,42,43
 31 665 31 665 44 698 c 1,44,-1
 128 710 l 1,45,46
 128 793 128 793 126.5 907.5 c 128,-1,47
 125 1022 125 1022 124 1104 c 128,-1,48
 123 1186 123 1186 123 1239 c 1,49,50
 140 1259 140 1259 169.5 1270.5 c 128,-1,51
 199 1282 199 1282 231 1282 c 0,52,53
 271 1282 271 1282 308 1266 c 1,54,55
 315 1205 315 1205 317.5 1134.5 c 128,-1,56
 320 1064 320 1064 320 980 c 2,57,-1
 320 863 l 2,58,59
 320 808 320 808 321.5 779 c 128,-1,60
 323 750 323 750 327 731 c 1,61,62
 353 731 353 731 391 739 c 0,63,64
 447 752 447 752 503 765 c 1,65,-1
 504 1350 l 1,66,67
 520 1359 520 1359 539 1363 c 128,-1,68
 558 1367 558 1367 577 1367 c 0,69,70
 611 1367 611 1367 640 1356 c 128,-1,71
 669 1345 669 1345 680 1332 c 1,72,73
 688 1291 688 1291 692 1169 c 128,-1,74
 696 1047 696 1047 699.5 930 c 128,-1,75
 703 813 703 813 708 782 c 1,76,77
 720 786 720 786 733 790 c 0,78,79
 741 795 741 795 758 807 c 1,80,81
 783 772 783 772 796 715.5 c 128,-1,82
 809 659 809 659 809 541 c 2,83,-1
 809 489 l 1,0,-1
EndSplineSet
EndChar

StartChar: i
Encoding: 105 105 75
Width: 480
GlyphClass: 2
Flags: W
LayerCount: 2
Fore
SplineSet
390 254 m 0,0,1
 393 219 393 219 393.5 208.5 c 128,-1,2
 394 198 394 198 394 174 c 0,3,4
 394 114 394 114 385 76 c 128,-1,5
 376 38 376 38 354 30 c 1,6,7
 325 4 325 4 293 4 c 0,8,9
 256 4 256 4 216 38 c 1,10,11
 216 144 216 144 193.5 291 c 128,-1,12
 171 438 171 438 148 598.5 c 128,-1,13
 125 759 125 759 125 905 c 0,14,15
 125 1055 125 1055 130 1178 c 0,16,17
 131 1219 131 1219 135 1271 c 1,18,19
 150 1280 150 1280 160 1284 c 0,20,21
 191 1297 191 1297 221 1297 c 0,22,23
 242 1297 242 1297 261.5 1290.5 c 128,-1,24
 281 1284 281 1284 299 1268 c 1,25,26
 299 1128 299 1128 322 871 c 0,27,28
 338 695 338 695 366 450 c 0,29,30
 389 254 389 254 390 254 c 0,0,1
EndSplineSet
EndChar

StartChar: j
Encoding: 106 106 76
Width: 801
GlyphClass: 2
Flags: W
LayerCount: 2
Fore
SplineSet
738 1052 m 1,0,1
 662 1044 662 1044 591 1011 c 0,2,3
 506 971 506 971 392 869 c 0,4,5
 252 746 252 746 220 588 c 0,6,7
 209 533 209 533 183 533 c 0,8,9
 114 533 114 533 88 580 c 0,10,11
 79 597 79 597 63 672 c 0,12,13
 59 699 59 699 59 730 c 0,14,15
 59 882 59 882 189 1039 c 0,16,17
 291 1162 291 1162 446 1262 c 0,18,19
 578 1347 578 1347 626 1347 c 0,20,21
 665 1347 665 1347 688 1337 c 0,22,23
 703 1331 703 1331 734 1307 c 0,24,25
 749 1291 749 1291 755.5 1265.5 c 128,-1,26
 762 1240 762 1240 762 1206 c 0,27,28
 762 1161 762 1161 750 1102 c 0,29,30
 746 1083 746 1083 738 1052 c 1,0,1
672 212 m 1,31,32
 672 126 672 126 659 81 c 0,33,34
 631 -17 631 -17 545 -17 c 0,35,36
 527 -17 527 -17 469 4 c 0,37,38
 384 34 384 34 325 85 c 0,39,40
 244 154 244 154 237.5 219 c 128,-1,41
 231 284 231 284 231 313 c 0,42,43
 231 350 231 350 240 374.5 c 128,-1,44
 249 399 249 399 272 414 c 0,45,46
 285 420 285 420 364 356 c 0,47,48
 448 288 448 288 476 288 c 0,49,50
 489 288 489 288 495 299 c 1,51,52
 483 383 483 383 469 483.5 c 128,-1,53
 455 584 455 584 455 665 c 2,54,-1
 455 879 l 1,55,56
 477 895 477 895 499 912 c 0,57,58
 533 936 533 936 558 936 c 0,59,60
 582 936 582 936 627 912 c 1,61,62
 627 893 627 893 627 880 c 0,63,64
 624 758 624 758 624 729 c 0,65,66
 624 636 624 636 636 507 c 0,67,68
 645 408 645 408 658 310 c 128,-1,69
 671 212 671 212 672 212 c 1,31,32
EndSplineSet
EndChar

StartChar: k
Encoding: 107 107 77
Width: 777
GlyphClass: 2
Flags: W
LayerCount: 2
Fore
SplineSet
734 -24 m 1,0,1
 660 -14 660 -14 538 27 c 0,2,3
 371 83 371 83 314 98 c 1,4,5
 315 88 315 88 315.5 76.5 c 128,-1,6
 316 65 316 65 316 54 c 0,7,8
 316 32 316 32 313.5 20 c 128,-1,9
 311 8 311 8 305 8 c 0,10,11
 252 8 252 8 216 8 c 128,-1,12
 180 8 180 8 155 5 c 1,13,14
 119 158 119 158 88 503 c 0,15,16
 66 747 66 747 49 1053 c 0,17,18
 42 1183 42 1183 36 1314 c 1,19,20
 53 1315 53 1315 82.5 1316 c 128,-1,21
 112 1317 112 1317 124 1317 c 0,22,23
 162 1317 162 1317 189 1314 c 1,24,25
 210 1263 210 1263 218 1132 c 0,26,27
 221 1090 221 1090 224.5 928 c 128,-1,28
 228 766 228 766 236 726 c 1,29,30
 324 882 324 882 344 919 c 0,31,32
 409 1039 409 1039 447 1128 c 0,33,34
 494 1238 494 1238 494 1292 c 0,35,36
 494 1311 494 1311 512.5 1318.5 c 128,-1,37
 531 1326 531 1326 561 1326 c 0,38,39
 594 1326 594 1326 642 1317 c 0,40,41
 657 1314 657 1314 683 1308 c 1,42,43
 683 1116 683 1116 595 886.5 c 128,-1,44
 507 657 507 657 357 464 c 1,45,46
 357 427 357 427 472 382 c 0,47,48
 602 332 602 332 732 282 c 1,49,-1
 734 -24 l 1,0,1
EndSplineSet
EndChar

StartChar: l
Encoding: 108 108 78
Width: 940
GlyphClass: 2
Flags: W
LayerCount: 2
Fore
SplineSet
871 18 m 1,0,1
 787 10 787 10 751 7 c 0,2,3
 654 -1 654 -1 561 -1 c 0,4,5
 433 -1 433 -1 212 18 c 1,6,7
 204 48 204 48 176 129 c 0,8,9
 155 189 155 189 140 266 c 0,10,11
 118 376 118 376 95 569 c 0,12,13
 94 578 94 578 87.5 682.5 c 128,-1,14
 81 787 81 787 76 908.5 c 128,-1,15
 71 1030 71 1030 71 1117 c 0,16,17
 71 1200 71 1200 74.5 1252 c 128,-1,18
 78 1304 78 1304 86 1330 c 1,19,20
 136 1330 136 1330 167 1324 c 128,-1,21
 198 1318 198 1318 221 1295 c 1,22,23
 236 1217 236 1217 241.5 1083 c 128,-1,24
 247 949 247 949 253 811 c 0,25,26
 264 610 264 610 288 404 c 1,27,28
 346 397 346 397 397 394 c 128,-1,29
 448 391 448 391 483 391 c 0,30,31
 508 391 508 391 660 401 c 0,32,33
 751 407 751 407 823 407 c 1,34,35
 833 357 833 357 851 200 c 0,36,37
 861 109 861 109 871 18 c 1,0,1
EndSplineSet
EndChar

StartChar: m
Encoding: 109 109 79
Width: 1085
GlyphClass: 2
Flags: W
LayerCount: 2
Fore
SplineSet
1053 -8 m 1,0,-1
 866 -8 l 1,1,2
 816 120 816 120 787 259 c 0,3,4
 765 362 765 362 749 507 c 1,5,6
 711 382 711 382 663 315 c 0,7,8
 603 232 603 232 525 232 c 0,9,10
 485 232 485 232 439.5 254 c 128,-1,11
 394 276 394 276 341 324 c 1,12,13
 325 256 325 256 321 198 c 128,-1,14
 317 140 317 140 317 41 c 1,15,16
 299 23 299 23 270.5 14 c 128,-1,17
 242 5 242 5 211 5 c 0,18,19
 157 5 157 5 128 29 c 1,20,21
 80 60 80 60 58 384 c 128,-1,22
 36 708 36 708 36 1286 c 1,23,-1
 170 1286 l 1,24,25
 201 1240 201 1240 251 1062 c 0,26,27
 306 864 306 864 345 786 c 0,28,29
 412 651 412 651 506 651 c 0,30,31
 575 651 575 651 639 791 c 0,32,33
 671 862 671 862 742 1086 c 0,34,35
 803 1280 803 1280 842 1343 c 1,36,37
 872 1326 872 1326 903 1300 c 0,38,39
 919 1287 919 1287 954 1254 c 1,40,41
 954 1222 954 1222 953.5 1189.5 c 128,-1,42
 953 1157 953 1157 953 1116 c 0,43,44
 953 948 953 948 960.5 755.5 c 128,-1,45
 968 563 968 563 987 382 c 0,46,47
 1011 154 1011 154 1053 -8 c 1,0,-1
EndSplineSet
EndChar

StartChar: n
Encoding: 110 110 80
Width: 1002
GlyphClass: 2
Flags: W
LayerCount: 2
Fore
SplineSet
956 183 m 0,0,1
 956 168 956 168 956 154.5 c 128,-1,2
 956 141 956 141 957 128 c 0,3,4
 957 95 957 95 953.5 68 c 128,-1,5
 950 41 950 41 936 -17 c 1,6,-1
 816 -17 l 1,7,8
 785 26 785 26 681 147 c 0,9,10
 560 287 560 287 458 396 c 0,11,12
 327 535 327 535 252 599 c 1,13,14
 252 475 252 475 262.5 356 c 128,-1,15
 273 237 273 237 284 118 c 0,16,17
 284 88 284 88 279 72 c 0,18,19
 272 56 272 56 253.5 48 c 128,-1,20
 235 40 235 40 210 40 c 0,21,22
 169 40 169 40 132 60 c 1,23,24
 117 105 117 105 108 160 c 0,25,26
 93 245 93 245 84 396 c 0,27,28
 72 589 72 589 72 842 c 0,29,30
 72 885 72 885 80.5 1017.5 c 128,-1,31
 89 1150 89 1150 99 1232 c 1,32,33
 115 1238 115 1238 134.5 1241 c 128,-1,34
 154 1244 154 1244 166 1244 c 0,35,36
 192 1244 192 1244 213 1236 c 128,-1,37
 234 1228 234 1228 249 1218 c 1,38,39
 262 1196 262 1196 264.5 1145 c 128,-1,40
 267 1094 267 1094 269 1082 c 1,41,42
 291 1059 291 1059 363 980 c 0,43,44
 476 857 476 857 507 822 c 0,45,46
 568 755 568 755 650 662 c 1,47,48
 637 789 637 789 632 868.5 c 128,-1,49
 627 948 627 948 627 1007 c 0,50,51
 627 1055 627 1055 638 1162 c 0,52,53
 653 1309 653 1309 675 1371 c 1,54,55
 691 1371 691 1371 708 1373 c 0,56,57
 751 1378 751 1378 759 1378 c 0,58,59
 783 1378 783 1378 799.5 1369 c 128,-1,60
 816 1360 816 1360 831 1334 c 1,61,62
 831 1312 831 1312 825 1220 c 128,-1,63
 819 1128 819 1128 819 1050 c 0,64,65
 819 986 819 986 821.5 928 c 128,-1,66
 824 870 824 870 831 795 c 0,67,68
 849 638 849 638 882 510 c 0,69,70
 907 424 907 424 933 339 c 0,71,72
 956 258 956 258 956 183 c 0,0,1
EndSplineSet
EndChar

StartChar: o
Encoding: 111 111 81
Width: 743
GlyphClass: 2
Flags: W
LayerCount: 2
Fore
SplineSet
705 660 m 0,0,1
 705 500 705 500 692 393 c 0,2,3
 670 211 670 211 612 107 c 0,4,5
 538 -26 538 -26 407 -26 c 0,6,7
 262 -26 262 -26 178 81 c 0,8,9
 110 168 110 168 83 320 c 0,10,11
 65 422 65 422 65 566 c 0,12,13
 65 867 65 867 138 1069 c 0,14,15
 191 1216 191 1216 275 1298 c 0,16,17
 330 1352 330 1352 354 1352 c 0,18,19
 426 1352 426 1352 505 1270 c 0,20,21
 591 1181 591 1181 644 1034 c 0,22,23
 705 865 705 865 705 660 c 0,0,1
530 594 m 0,24,25
 530 689 530 689 508.5 779.5 c 128,-1,26
 487 870 487 870 462 870 c 0,27,28
 458 870 458 870 453 867 c 0,29,30
 412 787 412 787 345 787 c 0,31,32
 307 787 307 787 267 813 c 1,33,34
 253 802 253 802 241 745 c 128,-1,35
 229 688 229 688 229 630 c 0,36,37
 229 618 229 618 229 607 c 0,38,39
 231 598 231 598 231 594 c 0,40,41
 248 470 248 470 294 401 c 0,42,43
 344 327 344 327 393 327 c 0,44,45
 472 327 472 327 507 434 c 0,46,47
 530 504 530 504 530 594 c 0,24,25
EndSplineSet
EndChar

StartChar: p
Encoding: 112 112 82
Width: 693
GlyphClass: 2
Flags: W
LayerCount: 2
Fore
SplineSet
647 977 m 0,0,1
 647 713 647 713 595 575 c 0,2,3
 554 465 554 465 470 413 c 1,4,5
 396 380 396 380 323 347 c 1,6,7
 330 250 330 250 335.5 165.5 c 128,-1,8
 341 81 341 81 341 0 c 1,9,-1
 197 2 l 1,10,11
 177 13 177 13 143 225 c 0,12,13
 114 401 114 401 85 648 c 0,14,15
 60 860 60 860 50 974 c 1,16,17
 50 1151 50 1151 137 1262 c 0,18,19
 215 1362 215 1362 317 1362 c 0,20,21
 471 1362 471 1362 556 1269 c 0,22,23
 618 1201 618 1201 638 1090 c 0,24,25
 647 1041 647 1041 647 977 c 0,0,1
476 911 m 1,26,27
 459 955 459 955 413 989 c 0,28,29
 372 1019 372 1019 342 1019 c 0,30,31
 288 1019 288 1019 261 944 c 0,32,33
 242 892 242 892 242 839 c 0,34,35
 242 801 242 801 246 770 c 128,-1,36
 250 739 250 739 252 720 c 1,37,38
 342 734 342 734 403 790 c 0,39,40
 459 841 459 841 476 911 c 1,26,27
EndSplineSet
EndChar

StartChar: q
Encoding: 113 113 83
Width: 839
GlyphClass: 2
Flags: W
LayerCount: 2
Fore
SplineSet
858 105 m 1,0,-1
 669 -23 l 1,1,2
 634 12 634 12 621 25 c 0,3,4
 599 47 599 47 585 63 c 1,5,6
 551 18 551 18 508 -4 c 128,-1,7
 465 -26 465 -26 405 -26 c 0,8,9
 260 -26 260 -26 177 81 c 0,10,11
 110 167 110 167 83 320 c 0,12,13
 65 422 65 422 65 566 c 0,14,15
 65 868 65 868 137 1069 c 0,16,17
 190 1216 190 1216 274 1298 c 0,18,19
 329 1352 329 1352 353 1352 c 0,20,21
 423 1352 423 1352 502 1270 c 0,22,23
 588 1180 588 1180 641 1034 c 0,24,25
 702 865 702 865 702 660 c 2,26,-1
 702 625 l 1,27,-1
 702 591 l 2,28,29
 702 489 702 489 696.5 425 c 128,-1,30
 691 361 691 361 681 305 c 1,31,32
 717 255 717 255 755 211 c 0,33,34
 798 162 798 162 858 105 c 1,0,-1
534 575 m 1,35,36
 533 569 533 569 532.5 566 c 128,-1,37
 532 563 532 563 530 560 c 1,38,39
 529 567 529 567 529 576 c 0,40,41
 527 589 527 589 527 594 c 0,42,43
 527 689 527 689 506.5 779.5 c 128,-1,44
 486 870 486 870 461 870 c 0,45,46
 457 870 457 870 452 867 c 0,47,48
 411 787 411 787 344 787 c 0,49,50
 307 787 307 787 267 813 c 1,51,52
 253 801 253 801 241 746 c 128,-1,53
 229 691 229 691 229 633 c 0,54,55
 229 623 229 623 229 614 c 128,-1,56
 229 605 229 605 231 594 c 0,57,58
 247 471 247 471 295 399 c 128,-1,59
 343 327 343 327 392 327 c 0,60,61
 401 327 401 327 404 329 c 0,62,63
 366 408 366 408 329 488 c 1,64,-1
 516 614 l 1,65,66
 526 593 526 593 537 573 c 0,67,68
 540 566 540 566 546 553 c 1,69,-1
 534 575 l 1,35,36
EndSplineSet
EndChar

StartChar: r
Encoding: 114 114 84
Width: 846
GlyphClass: 2
Flags: W
LayerCount: 2
Fore
SplineSet
794 -23 m 1,0,1
 718 -13 718 -13 644 -8.5 c 128,-1,2
 570 -4 570 -4 469.5 -3 c 128,-1,3
 369 -2 369 -2 236 -2 c 1,4,5
 207 125 207 125 187 269 c 0,6,7
 171 386 171 386 165 473.5 c 128,-1,8
 159 561 159 561 159 618 c 1,9,10
 115 627 115 627 87 670 c 0,11,12
 44 736 44 736 44 869 c 0,13,14
 44 1051 44 1051 182 1202 c 0,15,16
 311 1343 311 1343 444 1343 c 0,17,18
 568 1343 568 1343 634 1282 c 0,19,20
 689 1231 689 1231 708 1137 c 0,21,22
 720 1078 720 1078 720 969 c 0,23,24
 720 862 720 862 687.5 764 c 128,-1,25
 655 666 655 666 590 561 c 0,26,27
 536 474 536 474 432 341 c 1,28,29
 432 302 432 302 608.5 291.5 c 128,-1,30
 785 281 785 281 789 269 c 2,31,-1
 794 -23 l 1,0,1
540 969 m 0,32,33
 540 990 540 990 517 1002.5 c 128,-1,34
 494 1015 494 1015 466 1015 c 0,35,36
 459 1015 459 1015 454 1014.5 c 128,-1,37
 449 1014 449 1014 440 1011 c 0,38,39
 368 992 368 992 313 940 c 0,40,41
 267 897 267 897 227 824 c 1,42,43
 261 788 261 788 273 726 c 1,44,45
 280 652 280 652 288 579 c 1,46,47
 318 627 318 627 393 718 c 128,-1,48
 468 809 468 809 494 849 c 0,49,50
 540 919 540 919 540 969 c 0,32,33
EndSplineSet
EndChar

StartChar: s
Encoding: 115 115 85
Width: 929
GlyphClass: 2
Flags: W
LayerCount: 2
Fore
SplineSet
906 431 m 0,0,1
 906 174 906 174 809 77 c 0,2,3
 723 -9 723 -9 509 -9 c 2,4,-1
 218 -9 l 1,5,6
 216 9 216 9 225.5 118.5 c 128,-1,7
 235 228 235 228 246 345 c 1,8,9
 282 379 282 379 356 403 c 0,10,11
 381 411 381 411 425 420 c 1,12,13
 450 420 450 420 468 378 c 128,-1,14
 486 336 486 336 546 336 c 0,15,16
 555 336 555 336 569.5 335.5 c 128,-1,17
 584 335 584 335 603 334 c 0,18,19
 631 334 631 334 648.5 338.5 c 128,-1,20
 666 343 666 343 671 357 c 0,21,22
 678 394 678 394 582.5 425 c 128,-1,23
 487 456 487 456 349 456 c 0,24,25
 319 456 319 456 289 456 c 0,26,27
 263 453 263 453 251 452 c 0,28,29
 139 475 139 475 106 514 c 0,30,31
 53 578 53 578 53 771 c 0,32,33
 53 954 53 954 168 1097 c 0,34,35
 255 1206 255 1206 393 1277 c 0,36,37
 499 1332 499 1332 546 1332 c 0,38,39
 575 1332 575 1332 617 1275.5 c 128,-1,40
 659 1219 659 1219 659 1175 c 0,41,42
 658 1163 658 1163 658 1153 c 0,43,44
 653 1096 653 1096 633 1002 c 1,45,46
 497 1002 497 1002 394 937 c 0,47,48
 301 878 301 878 293 810 c 0,49,50
 290 795 290 795 308 789.5 c 128,-1,51
 326 784 326 784 367 784 c 0,52,53
 381 784 381 784 419 785 c 128,-1,54
 457 786 457 786 479 786 c 0,55,56
 598 786 598 786 670 768 c 0,57,58
 776 741 776 741 835 670 c 0,59,60
 906 584 906 584 906 431 c 0,0,1
EndSplineSet
EndChar

StartChar: t
Encoding: 116 116 86
Width: 801
GlyphClass: 2
Flags: W
LayerCount: 2
Fore
SplineSet
762 1382 m 1,0,1
 777 1244 777 1244 777 1133 c 0,2,3
 777 984 777 984 755 984 c 0,4,5
 706 990 706 990 577 927 c 0,6,7
 555 916 555 916 489 881 c 1,8,-1
 518 56 l 1,9,10
 485 22 485 22 452 11 c 0,11,12
 397 -3 397 -3 342 -17 c 1,13,-1
 296 800 l 1,14,15
 204 750 204 750 152 725 c 0,16,17
 60 680 60 680 54 692 c 1,18,-1
 41 1079 l 1,19,20
 97 1110 97 1110 154 1142 c 0,21,22
 281 1212 281 1212 392 1268 c 0,23,24
 540 1343 540 1343 600 1362 c 0,25,26
 632 1374 632 1374 701 1379 c 0,27,28
 723 1380 723 1380 762 1382 c 1,0,1
EndSplineSet
EndChar

StartChar: u
Encoding: 117 117 87
Width: 873
GlyphClass: 2
Flags: W
LayerCount: 2
Fore
SplineSet
830 540 m 0,0,1
 830 394 830 394 815 294 c 0,2,3
 794 154 794 154 742 73 c 0,4,5
 680 -23 680 -23 576 -23 c 0,6,7
 466 -23 466 -23 379 -7 c 0,8,9
 311 5 311 5 237 32 c 1,10,11
 159 173 159 173 117 327 c 0,12,13
 81 461 81 461 67 622 c 0,14,15
 57 740 57 740 57 921 c 0,16,17
 57 991 57 991 60 1061 c 0,18,19
 69 1272 69 1272 69 1289 c 1,20,-1
 249 1289 l 1,21,22
 249 1256 249 1256 237 1069 c 0,23,24
 231 975 231 975 231 921 c 0,25,26
 231 598 231 598 285 473 c 128,-1,27
 339 348 339 348 489 348 c 0,28,29
 608 348 608 348 643 411 c 0,30,31
 669 458 669 458 669 609 c 0,32,33
 669 792 669 792 603 882 c 0,34,35
 554 949 554 949 464 968 c 1,36,-1
 498 1298 l 1,37,38
 522 1301 522 1301 552 1301 c 2,39,-1
 578 1301 l 2,40,41
 624 1301 624 1301 678 1225 c 0,42,43
 743 1134 743 1134 782 980 c 0,44,45
 830 791 830 791 830 540 c 0,0,1
EndSplineSet
EndChar

StartChar: v
Encoding: 118 118 88
Width: 762
GlyphClass: 2
Flags: W
LayerCount: 2
Fore
SplineSet
729 1289 m 2,0,-1
 545 99 l 1,1,2
 513 65 513 65 488 44 c 0,3,4
 457 19 457 19 426 -5 c 1,5,6
 358 50 358 50 270 220 c 0,7,8
 186 382 186 382 126 570 c 0,9,10
 62 770 62 770 62 894 c 0,11,12
 62 1012 62 1012 74 1094 c 0,13,14
 90 1199 90 1199 119 1212 c 0,15,16
 137 1222 137 1222 158 1227.5 c 128,-1,17
 179 1233 179 1233 198 1233 c 0,18,19
 230 1233 230 1233 265 1220 c 0,20,21
 270 1218 270 1218 279 1214 c 1,22,23
 272 1172 272 1172 272 1113 c 0,24,25
 272 988 272 988 306 853 c 0,26,27
 344 703 344 703 419 570 c 1,28,29
 449 767 449 767 478 917 c 0,30,31
 503 1049 503 1049 530 1168 c 0,32,33
 538 1205 538 1205 575 1356 c 1,34,35
 594 1373 594 1373 641 1373 c 0,36,37
 679 1373 679 1373 704.5 1357.5 c 128,-1,38
 730 1342 730 1342 730 1305 c 0,39,40
 730 1295 730 1295 729 1289 c 2,0,-1
EndSplineSet
EndChar

StartChar: w
Encoding: 119 119 89
Width: 1205
GlyphClass: 2
Flags: W
LayerCount: 2
Fore
SplineSet
1154 618 m 0,0,1
 1154 461 1154 461 1124 332 c 0,2,3
 1088 179 1088 179 1018 92 c 0,4,5
 936 -9 936 -9 815 -9 c 0,6,7
 748 -9 748 -9 691 17 c 0,8,9
 646 38 646 38 597 81 c 0,10,11
 567 108 567 108 524 156 c 1,12,13
 495 89 495 89 460 54 c 0,14,15
 419 14 419 14 365 14 c 0,16,17
 277 14 277 14 203 138 c 0,18,19
 139 246 139 246 100.5 414 c 128,-1,20
 62 582 62 582 62 719 c 0,21,22
 62 760 62 760 68 873.5 c 128,-1,23
 74 987 74 987 85.5 1111 c 128,-1,24
 97 1235 97 1235 114 1302 c 1,25,-1
 281 1302 l 1,26,27
 281 852 281 852 299.5 651.5 c 128,-1,28
 318 451 318 451 356 422 c 1,29,30
 372 443 372 443 377.5 474 c 128,-1,31
 383 505 383 505 383 558 c 0,32,33
 383 614 383 614 382 654.5 c 128,-1,34
 381 695 381 695 380 732 c 0,35,36
 380 801 380 801 384.5 871.5 c 128,-1,37
 389 942 389 942 401 1023 c 1,38,39
 423 1069 423 1069 445.5 1088 c 128,-1,40
 468 1107 468 1107 493 1107 c 0,41,42
 519 1107 519 1107 553 1084 c 0,43,44
 590 1055 590 1055 606 1044 c 1,45,46
 606 1015 606 1015 605 947 c 128,-1,47
 604 879 604 879 604 878 c 0,48,49
 604 744 604 744 616 659 c 0,50,51
 633 540 633 540 674 479 c 0,52,53
 725 404 725 404 815 404 c 0,54,55
 875 404 875 404 913 449.5 c 128,-1,56
 951 495 951 495 951 555 c 0,57,58
 951 649 951 649 897.5 743 c 128,-1,59
 844 837 844 837 735 932 c 1,60,61
 735 1035 735 1035 757 1143.5 c 128,-1,62
 779 1252 779 1252 821 1343 c 1,63,64
 968 1248 968 1248 1054 1080 c 0,65,66
 1154 884 1154 884 1154 618 c 0,0,1
EndSplineSet
EndChar

StartChar: x
Encoding: 120 120 90
Width: 962
GlyphClass: 2
Flags: W
LayerCount: 2
Fore
SplineSet
908 320 m 1,0,1
 908 230 908 230 901 170 c 0,2,3
 888 56 888 56 852 8 c 1,4,-1
 749 8 l 1,5,6
 729 41 729 41 669 123 c 128,-1,7
 609 205 609 205 533 303 c 1,8,9
 514 243 514 243 508 218 c 0,10,11
 497 172 497 172 497 131 c 1,12,13
 445 75 445 75 396 42 c 0,14,15
 339 4 339 4 296 4 c 0,16,17
 274 4 274 4 258 14 c 1,18,19
 258 70 258 70 274 143 c 128,-1,20
 290 216 290 216 320 306 c 0,21,22
 346 385 346 385 384 483 c 1,23,24
 336 543 336 543 246.5 653 c 128,-1,25
 157 763 157 763 118 812 c 0,26,27
 60 885 60 885 60 891 c 1,28,29
 55 896 55 896 52 915.5 c 128,-1,30
 49 935 49 935 49 965 c 0,31,32
 49 1045 49 1045 68 1126 c 0,33,34
 91 1225 91 1225 135 1277 c 1,35,36
 149 1277 149 1277 213 1212 c 0,37,38
 252 1172 252 1172 359 1051 c 0,39,40
 462 935 462 935 531 852 c 1,41,42
 586 986 586 986 611 1061 c 0,43,44
 644 1159 644 1159 644 1210 c 0,45,46
 644 1227 644 1227 641 1239 c 1,47,-1
 863 1346 l 1,48,49
 863 1222 863 1222 837 1102 c 0,50,51
 815 1001 815 1001 769 880 c 0,52,53
 739 801 739 801 680 671 c 1,54,55
 770 558 770 558 832.5 462.5 c 128,-1,56
 895 367 895 367 908 320 c 1,0,1
EndSplineSet
EndChar

StartChar: y
Encoding: 121 121 91
Width: 918
GlyphClass: 2
Flags: W
LayerCount: 2
Fore
SplineSet
870 1298 m 1,0,1
 882 1226 882 1226 882 1161 c 0,2,3
 882 1020 882 1020 829 891 c 0,4,5
 788 791 788 791 718 704 c 0,6,7
 677 653 677 653 621 602 c 1,8,9
 621 555 621 555 624 486 c 0,10,11
 631 324 631 324 631 265 c 0,12,13
 631 192 631 192 628 135.5 c 128,-1,14
 625 79 625 79 614 -3 c 1,15,-1
 437 -3 l 1,16,17
 437 91 437 91 430 244 c 128,-1,18
 423 397 423 397 414 489 c 1,19,20
 382 482 382 482 355.5 478.5 c 128,-1,21
 329 475 329 475 300 475 c 0,22,23
 153 475 153 475 90 596 c 0,24,25
 41 691 41 691 41 871 c 0,26,27
 41 928 41 928 45.5 987 c 128,-1,28
 50 1046 50 1046 57 1118 c 1,29,30
 78 1150 78 1150 117.5 1168.5 c 128,-1,31
 157 1187 157 1187 202 1187 c 0,32,33
 246 1187 246 1187 282 1173 c 1,34,35
 263 1092 263 1092 257 1057 c 0,36,37
 245 991 245 991 245 946 c 0,38,39
 245 895 245 895 262 866 c 128,-1,40
 279 837 279 837 319 837 c 0,41,42
 330 837 330 837 345 840 c 0,43,44
 479 872 479 872 589 1007 c 128,-1,45
 699 1142 699 1142 699 1273 c 0,46,47
 699 1300 699 1300 693 1326 c 1,48,49
 744 1352 744 1352 792 1352 c 0,50,51
 827 1352 827 1352 848.5 1337.5 c 128,-1,52
 870 1323 870 1323 870 1298 c 1,0,1
EndSplineSet
EndChar

StartChar: z
Encoding: 122 122 92
Width: 1046
GlyphClass: 2
Flags: W
LayerCount: 2
Fore
SplineSet
1007 223 m 1,0,1
 1000 188 1000 188 997 165 c 0,2,3
 986 90 986 90 986 34 c 1,4,5
 948 34 948 34 714 16 c 0,6,7
 597 7 597 7 474 7 c 0,8,9
 294 7 294 7 262 31 c 0,10,11
 214 67 214 67 214 244 c 0,12,13
 214 338 214 338 264 506 c 0,14,15
 275 542 275 542 359 790 c 0,16,17
 410 940 410 940 410 981 c 0,18,19
 410 1006 410 1006 395 1006 c 0,20,21
 343 1006 343 1006 284 921 c 0,22,23
 220 829 220 829 194 700 c 1,24,25
 179 688 179 688 169 684 c 0,26,27
 151 676 151 676 136 676 c 0,28,29
 123 676 123 676 110.5 681.5 c 128,-1,30
 98 687 98 687 86 700 c 1,31,32
 76 730 76 730 70.5 770 c 128,-1,33
 65 810 65 810 65 847 c 0,34,35
 65 908 65 908 75 969 c 0,36,37
 78 990 78 990 86 1020 c 1,38,39
 111 1065 111 1065 137 1110 c 0,40,41
 193 1198 193 1198 252 1252 c 0,42,43
 333 1325 333 1325 415 1325 c 0,44,45
 543 1325 543 1325 590 1237 c 0,46,47
 618 1185 618 1185 618 1089 c 0,48,49
 618 936 618 936 575 808 c 0,50,51
 573 801 573 801 487 599 c 0,52,53
 432 469 432 469 415 342 c 1,54,55
 465 342 465 342 543 349 c 0,56,57
 732 366 732 366 776 366 c 0,58,59
 885 366 885 366 940 338 c 0,60,61
 1007 304 1007 304 1007 223 c 1,0,1
EndSplineSet
EndChar

StartChar: braceleft
Encoding: 123 123 93
Width: 750
GlyphClass: 2
Flags: W
LayerCount: 2
Fore
SplineSet
259 573 m 1,0,1
 314 600 314 600 357 679 c 0,2,3
 398 754 398 754 398 814 c 0,4,5
 398 857 398 857 391.5 1018 c 128,-1,6
 385 1179 385 1179 385 1222 c 0,7,8
 385 1419 385 1419 525 1434 c 0,9,10
 559 1435 559 1435 626 1444 c 1,11,12
 697 1460 697 1460 697 1514 c 0,13,14
 697 1566 697 1566 639 1598 c 0,15,16
 591 1625 591 1625 535 1625 c 0,17,18
 472 1625 472 1625 403 1596 c 0,19,20
 204 1509 204 1509 204 1193 c 1,21,-1
 209 994 l 1,22,-1
 212 795 l 1,23,-1
 212 767 l 1,24,25
 162 753 162 753 88 684 c 0,26,27
 6 608 6 608 6 556 c 0,28,29
 6 511 6 511 100.5 443.5 c 128,-1,30
 195 376 195 376 195 294 c 0,31,32
 195 267 195 267 187 212 c 128,-1,33
 179 157 179 157 179 130 c 0,34,35
 179 -47 179 -47 262 -200 c 0,36,37
 362 -384 362 -384 523 -384 c 0,38,39
 597 -384 597 -384 628 -372 c 0,40,41
 679 -351 679 -351 679 -288 c 0,42,43
 679 -222 679 -222 628 -205 c 0,44,45
 605 -197 605 -197 523 -197 c 0,46,47
 454 -197 454 -197 405 -62 c 0,48,49
 366 46 366 46 366 130 c 0,50,51
 366 163 366 163 374 229 c 128,-1,52
 382 295 382 295 382 328 c 0,53,54
 382 375 382 375 337 457 c 0,55,56
 299 528 299 528 259 573 c 1,0,1
EndSplineSet
EndChar

StartChar: bar
Encoding: 124 124 94
Width: 863
GlyphClass: 2
Flags: W
LayerCount: 2
Fore
SplineSet
445 1715 m 0,0,1
 531 1715 531 1715 531 1626 c 2,2,-1
 531 -245 l 2,3,4
 529 -362 529 -362 444 -362 c 0,5,6
 385 -362 385 -362 364 -286 c 0,7,8
 353 -246 353 -246 353 25 c 2,9,-1
 353 1626 l 2,10,11
 353 1665 353 1665 379 1690 c 128,-1,12
 405 1715 405 1715 445 1715 c 0,0,1
EndSplineSet
EndChar

StartChar: braceright
Encoding: 125 125 95
Width: 750
GlyphClass: 2
Flags: W
LayerCount: 2
Fore
SplineSet
444 573 m 1,0,1
 389 600 389 600 346 679 c 0,2,3
 305 754 305 754 305 814 c 0,4,5
 305 857 305 857 311.5 1018 c 128,-1,6
 318 1179 318 1179 318 1222 c 0,7,8
 318 1419 318 1419 178 1434 c 0,9,10
 144 1435 144 1435 77 1444 c 1,11,12
 6 1460 6 1460 6 1514 c 0,13,14
 6 1566 6 1566 64 1598 c 0,15,16
 112 1625 112 1625 168 1625 c 0,17,18
 231 1625 231 1625 300 1596 c 0,19,20
 499 1509 499 1509 499 1193 c 1,21,-1
 494 994 l 1,22,-1
 491 795 l 1,23,-1
 491 767 l 1,24,25
 541 753 541 753 615 684 c 0,26,27
 697 608 697 608 697 556 c 0,28,29
 697 511 697 511 602 443.5 c 128,-1,30
 507 376 507 376 507 294 c 0,31,32
 507 267 507 267 515.5 212 c 128,-1,33
 524 157 524 157 524 130 c 0,34,35
 524 -47 524 -47 441 -200 c 0,36,37
 341 -384 341 -384 180 -384 c 0,38,39
 106 -384 106 -384 75 -372 c 0,40,41
 24 -351 24 -351 24 -288 c 0,42,43
 24 -222 24 -222 75 -205 c 0,44,45
 98 -197 98 -197 180 -197 c 0,46,47
 249 -197 249 -197 298 -62 c 0,48,49
 337 46 337 46 337 130 c 0,50,51
 337 163 337 163 329 229 c 128,-1,52
 321 295 321 295 321 328 c 0,53,54
 321 375 321 375 366 457 c 0,55,56
 404 528 404 528 444 573 c 1,0,1
EndSplineSet
EndChar

StartChar: asciitilde
Encoding: 126 126 96
Width: 1224
GlyphClass: 2
Flags: W
LayerCount: 2
Fore
SplineSet
467 934 m 0,0,1
 554 934 554 934 625 863 c 1,2,-1
 735 730 l 2,3,4
 801 656 801 656 872 650 c 0,5,6
 913 647 913 647 951.5 770 c 128,-1,7
 990 893 990 893 1052 893 c 0,8,9
 1090 893 1090 893 1116 868.5 c 128,-1,10
 1142 844 1142 844 1142 806 c 0,11,12
 1143 674 1143 674 1062 572 c 0,13,14
 980 467 980 467 869 467 c 256,15,16
 758 467 758 467 666 542 c 0,17,18
 614 585 614 585 543 681 c 0,19,20
 488 756 488 756 467 756 c 0,21,22
 380 756 380 756 270 567 c 0,23,24
 241 516 241 516 193 516 c 0,25,26
 157 516 157 516 128.5 541.5 c 128,-1,27
 100 567 100 567 100 603 c 0,28,29
 100 622 100 622 110 645 c 0,30,31
 164 762 164 762 251 841 c 0,32,33
 354 934 354 934 467 934 c 0,0,1
EndSplineSet
EndChar

StartChar: exclamdown
Encoding: 161 161 97
Width: 1668
GlyphClass: 2
Flags: W
LayerCount: 2
Fore
SplineSet
474 983 m 0,0,1
 474 957 474 957 459 929 c 0,2,3
 441 896 441 896 417 896 c 0,4,5
 408 896 408 896 408 915 c 0,6,7
 408 941 408 941 422.5 979 c 128,-1,8
 437 1017 437 1017 448 1017 c 0,9,10
 460 1017 460 1017 467 1007 c 128,-1,11
 474 997 474 997 474 983 c 0,0,1
1634 1117 m 0,12,13
 1634 1067 1634 1067 1623 1009 c 0,14,15
 1605 915 1605 915 1564 823 c 0,16,17
 1511 705 1511 705 1423 601 c 0,18,19
 1340 502 1340 502 1185 370 c 0,20,21
 1037 243 1037 243 961 202 c 1,22,23
 961 194 961 194 970 140 c 0,24,25
 973 123 973 123 979 88 c 1,26,27
 978 68 978 68 977 59 c 0,28,29
 971 30 971 30 956 30 c 0,30,31
 950 30 950 30 945 34 c 1,32,33
 936 31 936 31 931 55 c 0,34,35
 924 126 924 126 921 168 c 1,36,37
 915 161 915 161 891.5 148.5 c 128,-1,38
 868 136 868 136 862 136 c 1,39,40
 862 125 862 125 863 95.5 c 128,-1,41
 864 66 864 66 864 58 c 0,42,43
 864 6 864 6 859 -12 c 128,-1,44
 854 -30 854 -30 844 -34 c 0,45,46
 825 -41 825 -41 820 -6 c 128,-1,47
 815 29 815 29 815 99 c 1,48,49
 724 36 724 36 609 -16 c 0,50,51
 587 -26 587 -26 448 -81 c 0,52,53
 379 -108 379 -108 365 -128 c 0,54,55
 362 -133 362 -133 362 -150 c 0,56,57
 362 -160 362 -160 369 -274 c 0,58,59
 373 -339 373 -339 373 -367 c 0,60,61
 373 -414 373 -414 368.5 -444 c 128,-1,62
 364 -474 364 -474 352 -491 c 0,63,64
 344 -499 344 -499 335 -499 c 0,65,66
 318 -499 318 -499 306.5 -474.5 c 128,-1,67
 295 -450 295 -450 295 -427 c 0,68,69
 295 -405 295 -405 306 -396 c 0,70,71
 332 -375 332 -375 332 -300 c 0,72,73
 335 -258 335 -258 335 -230 c 0,74,75
 335 -153 335 -153 298 -142 c 0,76,77
 276 -136 276 -136 270 -114 c 0,78,79
 268 -108 268 -108 268 -94 c 0,80,81
 268 -68 268 -68 279 -37 c 128,-1,82
 290 -6 290 -6 303 27 c 1,83,84
 291 50 291 50 273 187 c 0,85,86
 267 232 267 232 257 319 c 1,87,88
 232 272 232 272 207 226 c 0,89,90
 163 156 163 156 126 156 c 0,91,92
 87 156 87 156 61 197 c 0,93,94
 39 232 39 232 39 267 c 0,95,96
 39 292 39 292 45 307 c 0,97,98
 55 325 55 325 60 335 c 1,99,100
 68 337 68 337 72 337 c 0,101,102
 79 337 79 337 81 335 c 0,103,104
 87 309 87 309 93 283 c 0,105,106
 103 256 103 256 126 256 c 0,107,108
 156 256 156 256 188 296 c 0,109,110
 228 345 228 345 239 424 c 1,111,112
 226 490 226 490 214 556 c 0,113,114
 176 757 176 757 159 860 c 0,115,116
 126 1058 126 1058 112 1194 c 0,117,118
 110 1222 110 1222 108.5 1249.5 c 128,-1,119
 107 1277 107 1277 107 1286 c 0,120,121
 107 1405 107 1405 128 1458 c 0,122,123
 145 1500 145 1500 174 1496 c 0,124,125
 250 1483 250 1483 292 1359 c 0,126,127
 320 1275 320 1275 334 1137.5 c 128,-1,128
 348 1000 348 1000 351 997 c 0,129,130
 343 945 343 945 338 917 c 0,131,132
 321 833 321 833 303 811 c 0,133,134
 299 807 299 807 295 807 c 0,135,136
 280 807 280 807 271 883 c 0,137,138
 258 992 258 992 257 997 c 0,139,140
 274 1022 274 1022 278.5 1038.5 c 128,-1,141
 283 1055 283 1055 283 1105 c 0,142,143
 283 1163 283 1163 257 1242 c 0,144,145
 223 1346 223 1346 174 1361 c 0,146,147
 164 1361 164 1361 159.5 1339 c 128,-1,148
 155 1317 155 1317 155 1290 c 0,149,150
 155 1279 155 1279 155 1268 c 0,151,152
 157 1261 157 1261 157 1259 c 0,153,154
 157 1203 157 1203 179 1030 c 0,155,156
 197 885 197 885 226 707 c 128,-1,157
 255 529 255 529 270 484 c 1,158,159
 299 569 299 569 317 618 c 0,160,161
 350 709 350 709 379 717 c 1,162,163
 407 710 407 710 419 664 c 0,164,165
 428 628 428 628 428 574 c 0,166,167
 428 552 428 552 427 529.5 c 128,-1,168
 426 507 426 507 427 506 c 1,169,170
 447 554 447 554 468 602 c 0,171,172
 510 704 510 704 543 704 c 0,173,174
 555 702 555 702 569.5 631 c 128,-1,175
 584 560 584 560 596 556 c 1,176,177
 612 561 612 561 614 596 c 128,-1,178
 616 631 616 631 627 642 c 1,179,180
 638 645 638 645 646 645 c 0,181,182
 678 645 678 645 695 599.5 c 128,-1,183
 712 554 712 554 720 553 c 0,184,185
 750 546 750 546 754.5 619.5 c 128,-1,186
 759 693 759 693 771 735 c 0,187,188
 787 798 787 798 807.5 831.5 c 128,-1,189
 828 865 828 865 850 858 c 0,190,191
 875 851 875 851 887 807 c 0,192,193
 896 775 896 775 896 735 c 0,194,195
 896 669 896 669 877 632 c 1,196,197
 855 609 855 609 833 587 c 1,198,199
 833 573 833 573 849.5 563 c 128,-1,200
 866 553 866 553 896 553 c 0,201,202
 938 553 938 553 957 585 c 0,203,204
 971 610 971 610 986 635 c 1,205,206
 995 639 995 639 1011 633 c 0,207,208
 1016 631 1016 631 1026 626 c 1,209,210
 1026 575 1026 575 998 529 c 0,211,212
 957 461 957 461 874 461 c 0,213,214
 826 461 826 461 801 475 c 128,-1,215
 776 489 776 489 771 526 c 1,216,217
 771 503 771 503 751 491.5 c 128,-1,218
 731 480 731 480 702 480 c 0,219,220
 675 480 675 480 653.5 487 c 128,-1,221
 632 494 632 494 627 506 c 1,222,223
 613 485 613 485 603 446 c 0,224,225
 585 376 585 376 580 376 c 0,226,227
 569 376 569 376 542 491 c 0,228,229
 527 554 527 554 511 579 c 1,230,231
 493 579 493 579 459 433.5 c 128,-1,232
 425 288 425 288 399 288 c 0,233,234
 382 288 382 288 380 444.5 c 128,-1,235
 378 601 378 601 365 601 c 1,236,237
 352 594 352 594 319.5 501.5 c 128,-1,238
 287 409 287 409 281 379 c 1,239,240
 307 189 307 189 324.5 77.5 c 128,-1,241
 342 -34 342 -34 352 -34 c 0,242,243
 398 -34 398 -34 505 7 c 0,244,245
 596 42 596 42 692 89.5 c 128,-1,246
 788 137 788 137 807 156 c 1,247,248
 807 164 807 164 803 189 c 128,-1,249
 799 214 799 214 797 233 c 0,250,251
 797 265 797 265 807.5 287.5 c 128,-1,252
 818 310 818 310 835 310 c 0,253,254
 838 310 838 310 844 308 c 1,255,256
 853 287 853 287 855 242.5 c 128,-1,257
 857 198 857 198 862 187 c 0,258,259
 866 187 866 187 888 201.5 c 128,-1,260
 910 216 910 216 912 216 c 1,261,262
 912 225 912 225 911 251 c 128,-1,263
 910 277 910 277 910 283 c 0,264,265
 910 328 910 328 918.5 358 c 128,-1,266
 927 388 927 388 952 396 c 1,267,268
 955 384 955 384 955 363 c 0,269,270
 955 347 955 347 954.5 331 c 128,-1,271
 954 315 954 315 954 300 c 0,272,273
 954 267 954 267 961 267 c 0,274,275
 1007 291 1007 291 1054 316 c 1,276,277
 1141 378 1141 378 1247 471 c 0,278,279
 1362 572 1362 572 1410 635 c 0,280,281
 1496 749 1496 749 1546 865.5 c 128,-1,282
 1596 982 1596 982 1596 1080 c 0,283,284
 1596 1174 1596 1174 1539 1249 c 0,285,286
 1475 1333 1475 1333 1377 1333 c 0,287,288
 1269 1333 1269 1333 1086.5 1264 c 128,-1,289
 904 1195 904 1195 769 1103 c 0,290,291
 619 1001 619 1001 611 922 c 1,292,293
 600 911 600 911 592 911 c 256,294,295
 584 911 584 911 581 922 c 128,-1,296
 578 933 578 933 578 950 c 0,297,298
 578 958 578 958 578.5 964.5 c 128,-1,299
 579 971 579 971 580 976 c 0,300,301
 618 1082 618 1082 786 1187 c 0,302,303
 925 1273 925 1273 1117 1340 c 0,304,305
 1287 1399 1287 1399 1385 1408 c 0,306,307
 1391 1409 1391 1409 1397.5 1409 c 128,-1,308
 1404 1409 1404 1409 1408 1409 c 0,309,310
 1506 1409 1506 1409 1568 1334 c 0,311,312
 1634 1254 1634 1254 1634 1117 c 0,12,13
862 701 m 0,313,314
 862 729 862 729 842 729 c 0,315,316
 830 729 830 729 824 717 c 0,317,318
 818 708 818 708 814 688 c 128,-1,319
 810 668 810 668 810 652 c 0,320,321
 810 634 810 634 815 626 c 1,322,323
 835 637 835 637 848.5 659.5 c 128,-1,324
 862 682 862 682 862 701 c 0,313,314
EndSplineSet
EndChar

StartChar: cent
Encoding: 162 162 98
Width: 870
GlyphClass: 2
Flags: W
LayerCount: 2
Fore
SplineSet
444 260 m 1,0,-1
 444 -192 l 1,1,2
 411 -260 411 -260 329 -264 c 1,3,-1
 329 273 l 1,4,5
 53 334 53 334 53 644 c 0,6,7
 53 814 53 814 121 992 c 0,8,9
 198 1197 198 1197 329 1281 c 1,10,-1
 329 1805 l 2,11,12
 329 1870 329 1870 444 1875 c 1,13,-1
 444 1323 l 1,14,15
 471 1327 471 1327 485 1327 c 0,16,17
 569 1327 569 1327 616 1210 c 0,18,19
 651 1123 651 1123 651 1031 c 0,20,21
 651 903 651 903 581 801 c 1,22,-1
 516 801 l 1,23,24
 536 840 536 840 536 879 c 0,25,26
 536 977 536 977 444 1021 c 1,27,-1
 444 434 l 1,28,29
 557 453 557 453 657.5 525 c 128,-1,30
 758 597 758 597 805 692 c 1,31,-1
 817 692 l 2,32,33
 887 692 887 692 887 612 c 0,34,35
 887 460 887 460 747 358 c 0,36,37
 616 262 616 262 444 260 c 1,0,-1
329 438 m 1,38,-1
 329 1033 l 1,39,40
 178 981 178 981 178 671 c 0,41,42
 178 479 178 479 329 438 c 1,38,-1
EndSplineSet
EndChar

StartChar: glyph99
Encoding: 163 163 99
Width: 2012
GlyphClass: 2
Flags: W
LayerCount: 2
Fore
SplineSet
551 570 m 0,0,1
 551 560 551 560 552 538 c 128,-1,2
 553 516 553 516 553 505 c 0,3,4
 553 477 553 477 550 460.5 c 128,-1,5
 547 444 547 444 537 432 c 1,6,7
 516 418 516 418 436 395 c 0,8,9
 302 357 302 357 297 356 c 0,10,11
 224 332 224 332 207 313 c 1,12,13
 209 290 209 290 209.5 259.5 c 128,-1,14
 210 229 210 229 210 188 c 0,15,16
 210 106 210 106 204.5 52.5 c 128,-1,17
 199 -1 199 -1 184 -1 c 0,18,19
 131 -1 131 -1 112 27 c 128,-1,20
 93 55 93 55 83 151.5 c 128,-1,21
 73 248 73 248 63 357 c 0,22,23
 63 361 63 361 52 499 c 0,24,25
 34 736 34 736 31 773 c 0,26,27
 21 930 21 930 21 985 c 2,28,-1
 21 1010 l 2,29,30
 21 1043 21 1043 24 1072.5 c 128,-1,31
 27 1102 27 1102 37 1130 c 1,32,33
 63 1163 63 1163 154 1214 c 0,34,35
 230 1256 230 1256 322.5 1293.5 c 128,-1,36
 415 1331 415 1331 442 1331 c 0,37,38
 481 1331 481 1331 499 1286 c 1,39,40
 506 1233 506 1233 513 1179 c 0,41,42
 513 1162 513 1162 513 1146 c 128,-1,43
 513 1130 513 1130 514 1115 c 0,44,45
 514 1094 514 1094 512 1077 c 128,-1,46
 510 1060 510 1060 502 1045 c 0,47,48
 484 1014 484 1014 437 988 c 0,49,50
 382 960 382 960 326 933 c 0,51,52
 239 888 239 888 165 834 c 1,53,-1
 172 614 l 2,54,55
 176 613 176 613 184 613 c 0,56,57
 229 613 229 613 330 653 c 0,58,59
 401 680 401 680 472 709 c 0,60,61
 481 711 481 711 488 711 c 0,62,63
 523 711 523 711 540 660 c 0,64,65
 551 623 551 623 551 570 c 0,0,1
788 140 m 0,66,67
 790 120 790 120 790.5 114 c 128,-1,68
 791 108 791 108 791 94 c 0,69,70
 791 58 791 58 784 36 c 128,-1,71
 777 14 777 14 760 9 c 1,72,73
 738 -6 738 -6 713 -6 c 0,74,75
 685 -6 685 -6 654 14 c 1,76,77
 654 76 654 76 636.5 162 c 128,-1,78
 619 248 619 248 601.5 342 c 128,-1,79
 584 436 584 436 584 521 c 0,80,81
 584 609 584 609 588 681 c 0,82,83
 588 705 588 705 592 736 c 1,84,85
 603 741 603 741 611 743 c 0,86,87
 635 751 635 751 658 751 c 0,88,89
 674 751 674 751 689 747 c 128,-1,90
 704 743 704 743 718 734 c 1,91,92
 718 652 718 652 736 502 c 0,93,94
 748 399 748 399 769 255 c 0,95,96
 787 140 787 140 788 140 c 0,66,67
741 877 m 1,97,-1
 660 766 l 1,98,99
 615 797 615 797 613 866 c 1,100,-1
 694 977 l 1,101,102
 739 946 739 946 741 877 c 1,97,-1
1363 93 m 0,103,104
 1363 83 1363 83 1363 74.5 c 128,-1,105
 1363 66 1363 66 1364 58 c 0,106,107
 1364 37 1364 37 1361.5 20 c 128,-1,108
 1359 3 1359 3 1351 -33 c 1,109,-1
 1275 -33 l 1,110,111
 1256 -6 1256 -6 1190 70 c 0,112,113
 1114 158 1114 158 1050 226 c 0,114,115
 968 314 968 314 921 354 c 1,116,117
 921 276 921 276 927.5 201.5 c 128,-1,118
 934 127 934 127 941 52 c 0,119,120
 941 33 941 33 938 23 c 0,121,122
 934 13 934 13 922 8 c 128,-1,123
 910 3 910 3 895 3 c 0,124,125
 869 3 869 3 846 15 c 1,126,127
 836 44 836 44 831 78 c 0,128,129
 821 132 821 132 816 226 c 0,130,131
 808 348 808 348 808 506 c 0,132,133
 808 533 808 533 813.5 616.5 c 128,-1,134
 819 700 819 700 825 751 c 1,135,136
 835 755 835 755 847 757 c 128,-1,137
 859 759 859 759 867 759 c 0,138,139
 883 759 883 759 896.5 754 c 128,-1,140
 910 749 910 749 919 743 c 1,141,142
 927 729 927 729 928.5 697 c 128,-1,143
 930 665 930 665 932 657 c 1,144,145
 946 643 946 643 991 593 c 0,146,147
 1062 516 1062 516 1081 494 c 0,148,149
 1119 452 1119 452 1171 393 c 1,150,151
 1163 473 1163 473 1160 523 c 128,-1,152
 1157 573 1157 573 1157 610 c 0,153,154
 1157 640 1157 640 1163 707 c 0,155,156
 1173 800 1173 800 1187 839 c 1,157,158
 1197 839 1197 839 1207 840 c 0,159,160
 1234 843 1234 843 1239 843 c 0,161,162
 1254 843 1254 843 1264.5 837.5 c 128,-1,163
 1275 832 1275 832 1285 815 c 1,164,165
 1285 802 1285 802 1281 744 c 128,-1,166
 1277 686 1277 686 1277 637 c 0,167,168
 1277 597 1277 597 1278.5 560.5 c 128,-1,169
 1280 524 1280 524 1285 477 c 0,170,171
 1296 378 1296 378 1317 298 c 0,172,173
 1332 244 1332 244 1349 191 c 0,174,175
 1363 140 1363 140 1363 93 c 0,103,104
1922 274 m 0,176,177
 1930 266 1930 266 1930 231 c 0,178,179
 1930 198 1930 198 1925.5 160.5 c 128,-1,180
 1921 123 1921 123 1916 82 c 1,181,182
 1916 33 1916 33 1883 13 c 0,183,184
 1860 -1 1860 -1 1817 -1 c 0,185,186
 1807 -1 1807 -1 1797.5 -0.5 c 128,-1,187
 1788 0 1788 0 1781 0 c 2,188,-1
 1425 0 l 1,189,190
 1410 29 1410 29 1390.5 176 c 128,-1,191
 1371 323 1371 323 1357 487 c 128,-1,192
 1343 651 1343 651 1343 731 c 0,193,194
 1343 826 1343 826 1435 934 c 0,195,196
 1513 1025 1513 1025 1628 1099 c 0,197,198
 1735 1168 1735 1168 1799 1176 c 0,199,200
 1802 1177 1802 1177 1809 1177 c 0,201,202
 1841 1177 1841 1177 1854 1144 c 0,203,204
 1865 1119 1865 1119 1865 1077 c 0,205,206
 1865 1064 1865 1064 1863.5 1051.5 c 128,-1,207
 1862 1039 1862 1039 1861 1028 c 0,208,209
 1861 911 1861 911 1819 884 c 1,210,211
 1740 842 1740 842 1662 801 c 1,212,213
 1595 753 1595 753 1546 708 c 0,214,215
 1489 654 1489 654 1489 633 c 0,216,217
 1489 622 1489 622 1507 622 c 1,218,219
 1613 666 1613 666 1694 698 c 128,-1,220
 1775 730 1775 730 1782 730 c 0,221,222
 1816 730 1816 730 1830 682 c 0,223,224
 1839 652 1839 652 1839 598 c 2,225,-1
 1839 574 l 2,226,227
 1839 485 1839 485 1812 449 c 0,228,229
 1789 418 1789 418 1719 391 c 0,230,231
 1567 333 1567 333 1542 322 c 1,232,233
 1539 305 1539 305 1538.5 294.5 c 128,-1,234
 1538 284 1538 284 1539 282 c 0,235,236
 1608 285 1608 285 1679.5 287 c 128,-1,237
 1751 289 1751 289 1785 289 c 0,238,239
 1848 289 1848 289 1883 286 c 128,-1,240
 1918 283 1918 283 1922 274 c 0,176,177
EndSplineSet
EndChar

StartChar: currency
Encoding: 164 164 100
Width: 1287
GlyphClass: 2
Flags: W
LayerCount: 2
Fore
SplineSet
1377 868 m 1,0,-1
 1170 831 l 1,1,2
 1121 658 1121 658 993 514.5 c 128,-1,3
 865 371 865 371 712 314 c 1,4,5
 712 255 712 255 718 176 c 0,6,7
 734 -35 734 -35 734 -76 c 1,8,-1
 657 -87 l 1,9,-1
 635 297 l 1,10,11
 440 297 440 297 304 388 c 0,12,13
 148 492 148 492 125 685 c 1,14,-1
 -55 644 l 1,15,-1
 -103 775 l 1,16,-1
 129 814 l 1,17,18
 154 1002 154 1002 283 1167 c 0,19,20
 408 1328 408 1328 575 1394 c 1,21,-1
 558 1708 l 1,22,-1
 635 1725 l 1,23,-1
 653 1410 l 1,24,25
 725 1432 725 1432 792 1432 c 0,26,27
 967 1432 967 1432 1077 1298.5 c 128,-1,28
 1187 1165 1187 1165 1187 962 c 1,29,-1
 1337 992 l 1,30,-1
 1377 868 l 1,0,-1
787 907 m 1,31,32
 787 1108 787 1108 757 1193.5 c 128,-1,33
 727 1279 727 1279 660 1279 c 1,34,35
 660 1215 660 1215 671 1085 c 128,-1,36
 682 955 682 955 682 890 c 1,37,38
 700 897 700 897 731.5 902 c 128,-1,39
 763 907 763 907 787 907 c 1,31,32
602 884 m 1,40,41
 602 945 602 945 588 1122 c 0,42,43
 581 1211 581 1211 581 1267 c 1,44,45
 513 1236 513 1236 502 1101 c 0,46,47
 497 1037 497 1037 497 868 c 1,48,49
 509 871 509 871 533 874 c 0,50,51
 591 882 591 882 602 884 c 1,40,41
794 775 m 1,52,-1
 688 760 l 1,53,-1
 705 440 l 1,54,55
 764 478 764 478 781 526 c 0,56,57
 795 565 795 565 795 666 c 2,58,-1
 795 678 l 2,59,60
 795 697 795 697 794.5 718 c 128,-1,61
 794 739 794 739 794 761 c 2,62,-1
 794 775 l 1,52,-1
627 422 m 1,63,64
 627 477 627 477 619 589 c 128,-1,65
 611 701 611 701 611 757 c 1,66,-1
 505 737 l 1,67,68
 505 555 505 555 525 487 c 128,-1,69
 545 419 545 419 598 419 c 0,70,71
 612 419 612 419 627 422 c 1,63,64
EndSplineSet
EndChar

StartChar: brokenbar
Encoding: 166 166 101
Width: 828
GlyphClass: 2
Flags: W
LayerCount: 2
Fore
SplineSet
484 1620 m 2,0,-1
 481 1164 l 2,1,2
 483 1088 483 1088 479 937 c 0,3,4
 475 876 475 876 403 876 c 0,5,6
 332 876 332 876 332 964 c 0,7,8
 332 1073 332 1073 333.5 1292 c 128,-1,9
 335 1511 335 1511 335 1620 c 0,10,11
 335 1695 335 1695 410 1695 c 0,12,13
 484 1695 484 1695 484 1620 c 2,0,-1
479 641 m 0,14,15
 479 628 479 628 477.5 600.5 c 128,-1,16
 476 573 476 573 476 559 c 0,17,18
 476 471 476 471 483.5 295 c 128,-1,19
 491 119 491 119 491 31 c 0,20,21
 491 -44 491 -44 416 -44 c 256,22,23
 341 -44 341 -44 341 31 c 0,24,25
 341 119 341 119 334 295 c 128,-1,26
 327 471 327 471 327 559 c 0,27,28
 327 716 327 716 408 716 c 0,29,30
 479 716 479 716 479 641 c 0,14,15
EndSplineSet
EndChar

StartChar: section
Encoding: 167 167 102
Width: 1169
GlyphClass: 2
Flags: W
LayerCount: 2
Fore
SplineSet
696 957 m 1,0,1
 838 933 838 933 924 856 c 0,2,3
 1032 760 1032 760 1063 576 c 0,4,5
 1082 462 1082 462 1082 377 c 0,6,7
 1082 225 1082 225 1007 167 c 0,8,9
 937 113 937 113 760 113 c 2,10,-1
 458 113 l 1,11,12
 455 125 455 125 448.5 191.5 c 128,-1,13
 442 258 442 258 442 317 c 0,14,15
 442 363 442 363 445.5 393 c 128,-1,16
 449 423 449 423 458 444 c 0,17,18
 474 477 474 477 527 511 c 0,19,20
 544 522 544 522 577 538 c 1,21,22
 605 538 605 538 636 491 c 128,-1,23
 667 444 667 444 733 444 c 256,24,25
 799 444 799 444 830 449 c 0,26,27
 886 458 886 458 891 485 c 1,28,29
 891 516 891 516 838 552 c 0,30,31
 780 592 780 592 694 613 c 0,32,33
 670 619 670 619 635.5 621 c 128,-1,34
 601 623 601 623 565 623 c 2,35,-1
 516 623 l 1,36,37
 424 443 424 443 333.5 264.5 c 128,-1,38
 243 86 243 86 192 3 c 0,39,40
 128 -101 128 -101 91 -121 c 1,41,42
 66 -121 66 -121 55 -112 c 0,43,44
 39 -98 39 -98 39 -61 c 0,45,46
 39 -35 39 -35 44 -6 c 128,-1,47
 49 23 49 23 64 74 c 128,-1,48
 79 125 79 125 151 276 c 0,49,50
 217 413 217 413 331 632 c 1,51,52
 285 640 285 640 252 655 c 0,53,54
 200 681 200 681 167 741 c 0,55,56
 130 808 130 808 100 946 c 0,57,58
 87 1008 87 1008 87 1066 c 0,59,60
 87 1221 87 1221 182 1342 c 0,61,62
 253 1433 253 1433 369 1494 c 0,63,64
 460 1542 460 1542 502 1542 c 0,65,66
 528 1542 528 1542 577 1488 c 128,-1,67
 626 1434 626 1434 634 1392 c 0,68,69
 639 1356 639 1356 642 1315 c 128,-1,70
 645 1274 645 1274 645 1229 c 1,71,72
 496 1229 496 1229 394 1148 c 0,73,74
 300 1074 300 1074 307 995 c 0,75,76
 307 978 307 978 327 972.5 c 128,-1,77
 347 967 347 967 391 967 c 0,78,79
 405 967 405 967 446 968 c 128,-1,80
 487 969 487 969 512 969 c 1,81,82
 635 1192 635 1192 727 1343 c 0,83,84
 834 1519 834 1519 913 1624 c 0,85,86
 997 1735 997 1735 1031 1735 c 0,87,88
 1064 1735 1064 1735 1088 1720 c 0,89,90
 1120 1700 1120 1700 1120 1661 c 0,91,92
 1120 1648 1120 1648 1115 1630 c 1,93,94
 1001 1468 1001 1468 891 1291 c 0,95,96
 798 1140 798 1140 696 957 c 1,0,1
146 613 m 0,97,98
 146 586 146 586 124 534 c 0,99,100
 97 470 97 470 66 457 c 1,101,102
 41 453 41 453 2 452.5 c 128,-1,103
 -37 452 -37 452 -49 452 c 0,104,105
 -63 452 -63 452 -74.5 461.5 c 128,-1,106
 -86 471 -86 471 -86 484 c 0,107,108
 -86 510 -86 510 -56 567 c 128,-1,109
 -26 624 -26 624 -10 640 c 0,110,111
 -5 644 -5 644 25.5 645 c 128,-1,112
 56 646 56 646 71 646 c 0,113,114
 111 646 111 646 128.5 642.5 c 128,-1,115
 146 639 146 639 146 613 c 0,97,98
1115 1160 m 0,116,117
 1115 1133 1115 1133 1093 1081 c 0,118,119
 1066 1018 1066 1018 1034 1005 c 1,120,121
 1012 1001 1012 1001 964.5 998 c 128,-1,122
 917 995 917 995 891 995 c 0,123,124
 880 995 880 995 880 1006 c 0,125,126
 882 1021 882 1021 882 1031 c 0,127,128
 882 1057 882 1057 913 1117 c 0,129,130
 941 1171 941 1171 958 1188 c 0,131,132
 964 1191 964 1191 1002 1192 c 128,-1,133
 1040 1193 1040 1193 1046 1193 c 0,134,135
 1066 1193 1066 1193 1076 1193 c 128,-1,136
 1086 1193 1086 1193 1091 1192 c 0,137,138
 1115 1186 1115 1186 1115 1160 c 0,116,117
EndSplineSet
EndChar

StartChar: dieresis
Encoding: 168 168 103
Width: 1139
GlyphClass: 2
Flags: W
LayerCount: 2
Fore
SplineSet
332 1372 m 0,0,1
 463 1372 463 1372 463 1267 c 0,2,3
 463 1237 463 1237 419 1209 c 0,4,5
 379 1184 379 1184 344 1184 c 0,6,7
 221 1184 221 1184 221 1287 c 0,8,9
 221 1316 221 1316 258.5 1344 c 128,-1,10
 296 1372 296 1372 332 1372 c 0,0,1
871 1380 m 0,11,12
 905 1380 905 1380 940 1348.5 c 128,-1,13
 975 1317 975 1317 975 1287 c 0,14,15
 975 1195 975 1195 832 1195 c 0,16,17
 791 1195 791 1195 759 1216 c 0,18,19
 723 1240 723 1240 723 1279 c 0,20,21
 723 1348 723 1348 768 1368 c 0,22,23
 793 1380 793 1380 871 1380 c 0,11,12
EndSplineSet
EndChar

StartChar: copyright
Encoding: 169 169 104
Width: 1629
GlyphClass: 2
Flags: W
LayerCount: 2
Fore
SplineSet
945 1438 m 0,0,1
 644 1440 644 1440 454 1290 c 0,2,3
 268 1142 268 1142 268 911 c 0,4,5
 268 646 268 646 415 531 c 0,6,7
 546 427 546 427 818 429 c 0,8,9
 1039 430 1039 430 1200 630 c 0,10,11
 1343 807 1343 807 1343 993 c 0,12,13
 1343 1191 1343 1191 1250 1307 c 0,14,15
 1146 1437 1146 1437 945 1438 c 0,0,1
903 1620 m 0,16,17
 1192 1620 1192 1620 1361 1434 c 0,18,19
 1522 1257 1522 1257 1522 973 c 0,20,21
 1522 725 1522 725 1320 498 c 0,22,23
 1102 254 1102 254 818 251 c 0,24,25
 90 243 90 243 90 911 c 0,26,27
 90 1183 90 1183 338 1401.5 c 128,-1,28
 586 1620 586 1620 903 1620 c 0,16,17
893 1139 m 0,29,30
 779 1139 779 1139 689 1084 c 0,31,32
 596 1026 596 1026 596 944 c 0,33,34
 596 887 596 887 661 848 c 0,35,36
 718 814 718 814 779 814 c 0,37,38
 853 814 853 814 930.5 875.5 c 128,-1,39
 1008 937 1008 937 1029 937 c 0,40,41
 1066 937 1066 937 1093 908.5 c 128,-1,42
 1120 880 1120 880 1120 844 c 0,43,44
 1120 774 1120 774 1006.5 706 c 128,-1,45
 893 638 893 638 779 636 c 0,46,47
 643 633 643 633 534 719 c 0,48,49
 418 810 418 810 418 944 c 0,50,51
 418 1101 418 1101 577 1214 c 0,52,53
 723 1318 723 1318 886 1318 c 0,54,55
 942 1318 942 1318 983 1290 c 0,56,57
 1030 1258 1030 1258 1030 1205 c 0,58,59
 1030 1128 1030 1128 952 1128 c 0,60,61
 941 1128 941 1128 922 1133.5 c 128,-1,62
 903 1139 903 1139 893 1139 c 0,29,30
EndSplineSet
EndChar

StartChar: ordfeminine
Encoding: 170 170 105
Width: 591
GlyphClass: 2
Flags: W
LayerCount: 2
Fore
SplineSet
-26 775 m 1,0,1
 -31 809 -31 809 -31 847 c 0,2,3
 -31 1042 -31 1042 59 1338 c 0,4,5
 160 1674 160 1674 281 1766 c 1,6,7
 405 1695 405 1695 504 1395 c 0,8,9
 590 1130 590 1130 590 954 c 0,10,11
 590 920 590 920 585 906 c 0,12,13
 557 855 557 855 303 813 c 0,14,15
 109 782 109 782 -26 775 c 1,0,1
412 1098 m 1,16,17
 412 1151 412 1151 363 1280 c 0,18,19
 317 1398 317 1398 281 1457 c 1,20,21
 250 1453 250 1453 197 1266 c 0,22,23
 148 1096 148 1096 148 1035 c 1,24,25
 255 1050 255 1050 394 1084 c 1,26,27
 412 1100 412 1100 412 1098 c 1,16,17
EndSplineSet
EndChar

StartChar: guillemotleft
Encoding: 171 171 106
Width: 1183
GlyphClass: 2
Flags: W
LayerCount: 2
Fore
SplineSet
298 614 m 1,0,1
 354 573 354 573 436 487 c 0,2,3
 533 386 533 386 569 355 c 128,-1,4
 605 324 605 324 605 287 c 256,5,6
 605 250 605 250 578 222 c 128,-1,7
 551 194 551 194 515 194 c 0,8,9
 487 194 487 194 459 215 c 0,10,11
 419 244 419 244 288 381 c 0,12,13
 188 486 188 486 95 522 c 0,14,15
 19 550 19 550 19 605 c 0,16,17
 19 655 19 655 88 688 c 0,18,19
 181 733 181 733 292 850 c 0,20,21
 447 1012 447 1012 476.5 1036.5 c 128,-1,22
 506 1061 506 1061 536 1061 c 0,23,24
 572 1061 572 1061 599.5 1033.5 c 128,-1,25
 627 1006 627 1006 627 969 c 0,26,27
 627 935 627 935 597 905 c 0,28,29
 501 803 501 803 298 614 c 1,0,1
752 592 m 1,30,31
 808 551 808 551 890 466 c 0,32,33
 986 365 986 365 1022 333.5 c 128,-1,34
 1058 302 1058 302 1058 265 c 0,35,36
 1058 229 1058 229 1031 200.5 c 128,-1,37
 1004 172 1004 172 968 172 c 0,38,39
 941 172 941 172 913 193 c 0,40,41
 873 222 873 222 741 360 c 0,42,43
 641 465 641 465 548 500 c 0,44,45
 473 529 473 529 473 583 c 0,46,47
 473 634 473 634 541 667 c 0,48,49
 635 711 635 711 746 828 c 0,50,51
 900 990 900 990 930 1015 c 128,-1,52
 960 1040 960 1040 990 1040 c 0,53,54
 1026 1040 1026 1040 1053.5 1012 c 128,-1,55
 1081 984 1081 984 1081 948 c 0,56,57
 1081 914 1081 914 1050 883 c 0,58,59
 954 781 954 781 752 592 c 1,30,31
EndSplineSet
EndChar

StartChar: logicalnot
Encoding: 172 172 107
Width: 1287
GlyphClass: 2
Flags: W
LayerCount: 2
Fore
SplineSet
1377 868 m 1,0,-1
 1170 831 l 1,1,2
 1121 658 1121 658 993 514.5 c 128,-1,3
 865 371 865 371 712 314 c 1,4,5
 712 255 712 255 718 176 c 0,6,7
 734 -35 734 -35 734 -76 c 1,8,-1
 657 -87 l 1,9,-1
 635 297 l 1,10,11
 440 297 440 297 304 388 c 0,12,13
 148 492 148 492 125 685 c 1,14,-1
 -55 644 l 1,15,-1
 -103 775 l 1,16,-1
 129 814 l 1,17,18
 154 1002 154 1002 283 1167 c 0,19,20
 408 1328 408 1328 575 1394 c 1,21,-1
 558 1708 l 1,22,-1
 635 1725 l 1,23,-1
 653 1410 l 1,24,25
 725 1432 725 1432 792 1432 c 0,26,27
 967 1432 967 1432 1077 1298.5 c 128,-1,28
 1187 1165 1187 1165 1187 962 c 1,29,-1
 1337 992 l 1,30,-1
 1377 868 l 1,0,-1
787 907 m 1,31,32
 787 1108 787 1108 757 1193.5 c 128,-1,33
 727 1279 727 1279 660 1279 c 1,34,35
 660 1215 660 1215 671 1085 c 128,-1,36
 682 955 682 955 682 890 c 1,37,38
 700 897 700 897 731.5 902 c 128,-1,39
 763 907 763 907 787 907 c 1,31,32
602 884 m 1,40,41
 602 945 602 945 588 1122 c 0,42,43
 581 1211 581 1211 581 1267 c 1,44,45
 513 1236 513 1236 502 1101 c 0,46,47
 497 1037 497 1037 497 868 c 1,48,49
 509 871 509 871 533 874 c 0,50,51
 591 882 591 882 602 884 c 1,40,41
794 775 m 1,52,-1
 688 760 l 1,53,-1
 705 440 l 1,54,55
 764 478 764 478 781 526 c 0,56,57
 795 565 795 565 795 666 c 2,58,-1
 795 678 l 2,59,60
 795 697 795 697 794.5 718 c 128,-1,61
 794 739 794 739 794 761 c 2,62,-1
 794 775 l 1,52,-1
627 422 m 1,63,64
 627 477 627 477 619 589 c 128,-1,65
 611 701 611 701 611 757 c 1,66,-1
 505 737 l 1,67,68
 505 555 505 555 525 487 c 128,-1,69
 545 419 545 419 598 419 c 0,70,71
 612 419 612 419 627 422 c 1,63,64
EndSplineSet
EndChar

StartChar: uni00AD
Encoding: 173 173 108
Width: 853
GlyphClass: 2
Flags: W
LayerCount: 2
Fore
SplineSet
158 528 m 0,0,1
 111 528 111 528 111 565 c 0,2,3
 111 590 111 590 141.5 651.5 c 128,-1,4
 172 713 172 713 193 733 c 0,5,6
 201 741 201 741 279 754 c 0,7,8
 310 758 310 758 370 770 c 128,-1,9
 430 782 430 782 549 811 c 0,10,11
 691 844 691 844 717 844 c 0,12,13
 748 844 748 844 748 819 c 0,14,15
 748 793 748 793 719 723 c 0,16,17
 691 647 691 647 672 639 c 0,18,19
 621 612 621 612 421.5 570 c 128,-1,20
 222 528 222 528 158 528 c 0,0,1
EndSplineSet
EndChar

StartChar: registered
Encoding: 174 174 109
Width: 1581
GlyphClass: 2
Flags: W
LayerCount: 2
Fore
SplineSet
1505 995 m 0,0,1
 1522 922 1522 922 1522 823 c 0,2,3
 1522 637 1522 637 1468 479 c 0,4,5
 1399 277 1399 277 1256 163 c 0,6,7
 1082 24 1082 24 810 24 c 0,8,9
 475 24 475 24 290 209 c 0,10,11
 125 373 125 373 63 704 c 0,12,13
 56 742 56 742 56 791 c 0,14,15
 56 985 56 985 161 1212 c 0,16,17
 273 1454 273 1454 446 1605 c 0,18,19
 645 1779 645 1779 869 1779 c 0,20,21
 1067 1779 1067 1779 1207 1649 c 0,22,23
 1322 1542 1322 1542 1401 1345 c 0,24,25
 1453 1216 1453 1216 1505 995 c 0,0,1
1361 969 m 0,26,27
 1319 1154 1319 1154 1174 1263.5 c 128,-1,28
 1029 1373 1029 1373 834 1373 c 0,29,30
 688 1373 688 1373 545 1304 c 0,31,32
 394 1231 394 1231 303 1107 c 0,33,34
 201 968 201 968 201 797 c 0,35,36
 201 783 201 783 201 772 c 128,-1,37
 201 761 201 761 203 743 c 1,38,39
 281 575 281 575 448 484 c 128,-1,40
 615 393 615 393 830 393 c 0,41,42
 1112 393 1112 393 1252 507 c 0,43,44
 1382 613 1382 613 1382 807 c 0,45,46
 1382 877 1382 877 1361 969 c 0,26,27
1044 492 m 1,47,48
 1003 497 1003 497 898 530 c 0,49,50
 783 567 783 567 729 576 c 1,51,52
 732 562 732 562 732 553 c 0,53,54
 732 510 732 510 681 506 c 0,55,56
 658 505 658 505 636 504 c 1,57,58
 613 585 613 585 598 689 c 0,59,60
 589 753 589 753 585.5 805 c 128,-1,61
 582 857 582 857 581 885 c 1,62,63
 563 885 563 885 553 889 c 0,64,65
 489 914 489 914 489 1026 c 0,66,67
 489 1133 489 1133 592 1221 c 0,68,69
 689 1304 689 1304 789 1304 c 0,70,71
 919 1304 919 1304 963 1230 c 0,72,73
 989 1186 989 1186 989 1088 c 0,74,75
 989 996 989 996 926 891 c 0,76,77
 874 804 874 804 806 746 c 1,78,79
 806 724 806 724 923 696.5 c 128,-1,80
 1040 669 1040 669 1044 659 c 1,81,-1
 1044 492 l 1,47,48
881 1088 m 0,82,83
 881 1106 881 1106 855.5 1118 c 128,-1,84
 830 1130 830 1130 799 1130 c 0,85,86
 785 1130 785 1130 779 1128 c 0,87,88
 732 1117 732 1117 706 1094 c 0,89,90
 701 1089 701 1089 639 996 c 1,91,92
 685 965 685 965 693.5 896 c 128,-1,93
 702 827 702 827 711 825 c 1,94,95
 723 842 723 842 794 929 c 0,96,97
 881 1036 881 1036 881 1088 c 0,82,83
EndSplineSet
EndChar

StartChar: degree
Encoding: 176 176 111
Width: 587
GlyphClass: 2
Flags: W
LayerCount: 2
Fore
SplineSet
580 1293 m 0,0,1
 580 1203 580 1203 566 1136 c 0,2,3
 546 1032 546 1032 494 974 c 0,4,5
 427 901 427 901 312 901 c 0,6,7
 181 901 181 901 107 961 c 0,8,9
 47 1009 47 1009 23 1095 c 0,10,11
 6 1154 6 1154 6 1237 c 0,12,13
 6 1411 6 1411 74 1527 c 0,14,15
 123 1612 123 1612 200 1657 c 0,16,17
 249 1686 249 1686 267 1686 c 0,18,19
 328 1686 328 1686 398 1641 c 0,20,21
 475 1591 475 1591 524 1507 c 0,22,23
 580 1410 580 1410 580 1293 c 0,0,1
460 1255 m 0,24,25
 460 1324 460 1324 430 1381.5 c 128,-1,26
 400 1439 400 1439 359 1435 c 1,27,28
 325 1397 325 1397 295 1397 c 0,29,30
 263 1397 263 1397 193 1437 c 1,31,32
 162 1416 162 1416 144 1386 c 0,33,34
 118 1341 118 1341 118 1285 c 0,35,36
 118 1267 118 1267 119 1256 c 0,37,38
 130 1174 130 1174 188 1138 c 0,39,40
 226 1116 226 1116 279 1116 c 0,41,42
 287 1116 287 1116 293 1116.5 c 128,-1,43
 299 1117 299 1117 302 1118 c 0,44,45
 372 1118 372 1118 416 1156 c 128,-1,46
 460 1194 460 1194 460 1255 c 0,24,25
EndSplineSet
EndChar

StartChar: plusminus
Encoding: 177 177 112
Width: 466
GlyphClass: 2
Flags: W
LayerCount: 2
Fore
SplineSet
412 509 m 0,0,1
 408 478 408 478 408 435 c 0,2,3
 408 378 408 378 416 249 c 128,-1,4
 424 120 424 120 424 68 c 0,5,6
 424 -46 424 -46 398 -46 c 0,7,8
 349 -46 349 -46 324 464 c 1,9,10
 297 408 297 408 218.5 366 c 128,-1,11
 140 324 140 324 91 324 c 0,12,13
 74 324 74 324 66 331 c 0,14,15
 23 365 23 365 23 474 c 0,16,17
 23 632 23 632 134 771 c 0,18,19
 195 849 195 849 227 871.5 c 128,-1,20
 259 894 259 894 316 900 c 0,21,22
 340 900 340 900 365 876.5 c 128,-1,23
 390 853 390 853 404 853 c 0,24,25
 410 853 410 853 420 857 c 0,26,27
 429 859 429 859 431 814 c 256,28,29
 433 769 433 769 427.5 689 c 128,-1,30
 422 609 422 609 412 509 c 0,0,1
148 578 m 1,31,32
 207 582 207 582 252 609 c 0,33,34
 306 640 306 640 308 687 c 0,35,36
 310 714 310 714 300.5 730 c 128,-1,37
 291 746 291 746 267 740 c 0,38,39
 213 728 213 728 177.5 673.5 c 128,-1,40
 142 619 142 619 148 578 c 1,31,32
460 1292 m 256,41,42
 460 1174 460 1174 417 1080 c 0,43,44
 379 996 379 996 316 946 c 0,45,46
 257 899 257 899 198 899 c 0,47,48
 135 899 135 899 84 958 c 0,49,50
 26 1027 26 1027 26 1137 c 0,51,52
 26 1191 26 1191 46 1318 c 0,53,54
 73 1487 73 1487 110 1592 c 0,55,56
 162 1733 162 1733 227 1733 c 0,57,58
 252 1733 252 1733 266.5 1721 c 128,-1,59
 281 1709 281 1709 281 1691 c 0,60,61
 281 1654 281 1654 277 1627 c 0,62,63
 271 1590 271 1590 255 1568 c 0,64,65
 252 1563 252 1563 241 1563 c 0,66,67
 235 1563 235 1563 230 1563.5 c 128,-1,68
 225 1564 225 1564 220 1564 c 0,69,70
 210 1564 210 1564 205 1559 c 0,71,72
 177 1510 177 1510 161 1450.5 c 128,-1,73
 145 1391 145 1391 128 1271 c 0,74,75
 124 1239 124 1239 124 1205 c 0,76,77
 124 1180 124 1180 128 1159 c 128,-1,78
 132 1138 132 1138 141 1128 c 1,79,80
 147 1192 147 1192 180 1277 c 0,81,82
 213 1367 213 1367 257 1426 c 0,83,84
 308 1494 308 1494 356 1494 c 256,85,86
 404 1494 404 1494 430 1455 c 0,87,88
 460 1410 460 1410 460 1292 c 256,41,42
384 1257 m 0,89,90
 384 1277 384 1277 381 1290 c 0,91,92
 376 1312 376 1312 361 1321 c 1,93,94
 340 1321 340 1321 303 1270 c 0,95,96
 271 1225 271 1225 243.5 1167.5 c 128,-1,97
 216 1110 216 1110 216 1088 c 0,98,99
 216 1084 216 1084 217 1083 c 0,100,101
 262 1083 262 1083 305 1125 c 0,102,103
 337 1156 337 1156 362 1205 c 0,104,105
 384 1246 384 1246 384 1257 c 0,89,90
EndSplineSet
EndChar

StartChar: uni00B2
Encoding: 178 178 113
Width: 1302
GlyphClass: 2
Flags: W
LayerCount: 2
Fore
SplineSet
1149 1518 m 0,0,1
 948 1225 948 1225 751 831 c 1,2,3
 618 548 618 548 485 265 c 0,4,5
 368 17 368 17 314 -18 c 1,6,7
 300 -16 300 -16 294 -8 c 128,-1,8
 288 0 288 0 288 23 c 0,9,10
 288 56 288 56 303.5 129.5 c 128,-1,11
 319 203 319 203 486 563 c 0,12,13
 667 954 667 954 822 1228 c 0,14,15
 1016 1572 1016 1572 1082 1572 c 0,16,17
 1107 1572 1107 1572 1124 1565 c 0,18,19
 1150 1554 1150 1554 1150 1530 c 0,20,21
 1150 1522 1150 1522 1149 1518 c 0,0,1
1215 324 m 0,22,23
 1215 313 1215 313 1184 300 c 0,24,25
 1169 294 1169 294 1128 281 c 1,26,27
 1138 219 1138 219 1146 160.5 c 128,-1,28
 1154 102 1154 102 1154 65 c 0,29,30
 1154 46 1154 46 1153 36 c 128,-1,31
 1152 26 1152 26 1149 5 c 1,32,-1
 1086 5 l 1,33,34
 1075 87 1075 87 1069 130 c 0,35,36
 1058 207 1058 207 1035 257 c 1,37,38
 976 236 976 236 909.5 219.5 c 128,-1,39
 843 203 843 203 807 203 c 0,40,41
 763 203 763 203 743 217.5 c 128,-1,42
 723 232 723 232 720.5 254.5 c 128,-1,43
 718 277 718 277 718 292 c 0,44,45
 718 388 718 388 788 568 c 0,46,47
 850 728 850 728 934.5 871.5 c 128,-1,48
 1019 1015 1019 1015 1058 1022 c 1,49,50
 1066 1006 1066 1006 1069 990 c 128,-1,51
 1072 974 1072 974 1072 955 c 0,52,53
 1072 947 1072 947 1070 901 c 128,-1,54
 1068 855 1068 855 1068 810 c 0,55,56
 1068 719 1068 719 1073 633 c 0,57,58
 1075 601 1075 601 1086 476 c 1,59,60
 1104 476 1104 476 1136.5 484 c 128,-1,61
 1169 492 1169 492 1202 500 c 1,62,63
 1210 485 1210 485 1212.5 432.5 c 128,-1,64
 1215 380 1215 380 1215 324 c 0,22,23
1017 447 m 1,65,66
 1007 514 1007 514 1001 578 c 0,67,68
 992 670 992 670 992 743 c 1,69,70
 964 708 964 708 903.5 587.5 c 128,-1,71
 843 467 843 467 828 413 c 1,72,73
 877 413 877 413 941 427 c 0,74,75
 962 432 962 432 1017 447 c 1,65,66
134 1126 m 256,76,77
 140 1165 140 1165 208 1339 c 0,78,79
 284 1536 284 1536 318 1550 c 0,80,81
 390 1571 390 1571 581 1571 c 0,82,83
 677 1571 677 1571 693 1558 c 0,84,85
 718 1536 718 1536 718 1495 c 0,86,87
 718 1466 718 1466 706.5 1438.5 c 128,-1,88
 695 1411 695 1411 685 1409 c 0,89,90
 513 1384 513 1384 446.5 1363.5 c 128,-1,91
 380 1343 380 1343 361 1317 c 0,92,93
 359 1312 359 1312 341 1249 c 1,94,95
 404 1243 404 1243 423 1231 c 0,96,97
 460 1204 460 1204 460 1112 c 0,98,99
 460 1056 460 1056 447 975 c 0,100,101
 425 841 425 841 368.5 764.5 c 128,-1,102
 312 688 312 688 245 682 c 0,103,104
 175 676 175 676 175 774 c 0,105,106
 175 825 175 825 194 858 c 0,107,108
 202 874 202 874 230 874 c 0,109,110
 237 874 237 874 251 874 c 0,111,112
 265 872 265 872 273 872 c 0,113,114
 349 872 349 872 353 975 c 0,115,116
 355 1052 355 1052 294 1073 c 0,117,118
 284 1077 284 1077 185 1083 c 0,119,120
 128 1087 128 1087 134 1126 c 256,76,77
EndSplineSet
EndChar

StartChar: uni00B3
Encoding: 179 179 114
Width: 1361
GlyphClass: 2
Flags: W
LayerCount: 2
Fore
SplineSet
1149 1518 m 0,0,1
 948 1225 948 1225 751 831 c 1,2,3
 618 548 618 548 485 265 c 0,4,5
 368 17 368 17 314 -18 c 1,6,7
 300 -16 300 -16 294 -8 c 128,-1,8
 288 0 288 0 288 23 c 0,9,10
 288 56 288 56 303.5 129.5 c 128,-1,11
 319 203 319 203 486 563 c 0,12,13
 667 954 667 954 822 1228 c 0,14,15
 1016 1572 1016 1572 1082 1572 c 0,16,17
 1107 1572 1107 1572 1124 1565 c 0,18,19
 1150 1554 1150 1554 1150 1530 c 0,20,21
 1150 1522 1150 1522 1149 1518 c 0,0,1
587 1123 m 0,22,23
 587 974 587 974 538 854 c 0,24,25
 495 747 495 747 424 683 c 0,26,27
 357 624 357 624 290 624 c 0,28,29
 218 624 218 624 160 699 c 0,30,31
 94 786 94 786 94 926 c 0,32,33
 94 995 94 995 117 1156 c 0,34,35
 147 1370 147 1370 190 1504 c 0,36,37
 249 1683 249 1683 323 1683 c 0,38,39
 351 1683 351 1683 367.5 1668 c 128,-1,40
 384 1653 384 1653 384 1629 c 0,41,42
 384 1582 384 1582 379 1549 c 0,43,44
 372 1501 372 1501 354 1473 c 0,45,46
 351 1467 351 1467 338 1467 c 0,47,48
 332 1467 332 1467 326 1467.5 c 128,-1,49
 320 1468 320 1468 314 1469 c 0,50,51
 303 1469 303 1469 298 1462 c 0,52,53
 266 1400 266 1400 247.5 1324 c 128,-1,54
 229 1248 229 1248 210 1096 c 0,55,56
 205 1056 205 1056 205 1013 c 0,57,58
 205 980 205 980 209.5 954 c 128,-1,59
 214 928 214 928 225 914 c 1,60,61
 232 996 232 996 269 1104 c 0,62,63
 307 1218 307 1218 357 1293 c 0,64,65
 414 1379 414 1379 469 1379 c 256,66,67
 524 1379 524 1379 553 1330 c 0,68,69
 587 1273 587 1273 587 1123 c 0,22,23
501 1079 m 0,70,71
 501 1104 501 1104 498 1120 c 0,72,73
 492 1148 492 1148 475 1160 c 1,74,75
 451 1160 451 1160 409 1095 c 0,76,77
 372 1038 372 1038 341 965 c 128,-1,78
 310 892 310 892 310 864 c 0,79,80
 310 859 310 859 311 857 c 0,81,82
 362 857 362 857 411 911 c 0,83,84
 447 950 447 950 476 1013 c 0,85,86
 501 1064 501 1064 501 1079 c 0,70,71
1296 160 m 0,87,88
 1274 87 1274 87 1229 50 c 128,-1,89
 1184 13 1184 13 1113 13 c 0,90,91
 1012 13 1012 13 945 90 c 0,92,93
 925 115 925 115 906.5 150.5 c 128,-1,94
 888 186 888 186 871 234 c 0,95,96
 869 240 869 240 868 246 c 128,-1,97
 867 252 867 252 867 255 c 0,98,99
 864 259 864 259 861.5 266.5 c 128,-1,100
 859 274 859 274 858 277 c 0,101,102
 848 307 848 307 848 344 c 0,103,104
 848 368 848 368 851.5 391.5 c 128,-1,105
 855 415 855 415 863 447 c 0,106,107
 882 506 882 506 911 535 c 0,108,109
 945 570 945 570 1009 587 c 1,110,111
 989 611 989 611 966 632 c 0,112,113
 924 672 924 672 919 682 c 0,114,115
 899 712 899 712 890 736 c 0,116,117
 880 766 880 766 874.5 796.5 c 128,-1,118
 869 827 869 827 869 860 c 0,119,120
 869 909 869 909 883 961 c 128,-1,121
 897 1013 897 1013 933 1047 c 0,122,123
 966 1077 966 1077 994 1077 c 256,124,125
 1022 1077 1022 1077 1051 1065 c 128,-1,126
 1080 1053 1080 1053 1108 1028 c 0,127,128
 1129 1011 1129 1011 1145.5 987.5 c 128,-1,129
 1162 964 1162 964 1173 936 c 0,130,131
 1185 898 1185 898 1192 846.5 c 128,-1,132
 1199 795 1199 795 1199 736 c 0,133,134
 1199 701 1199 701 1192 668 c 0,135,136
 1182 628 1182 628 1157 581 c 1,137,138
 1175 568 1175 568 1193 554 c 0,139,140
 1214 539 1214 539 1235 524 c 0,141,142
 1250 510 1250 510 1261.5 491.5 c 128,-1,143
 1273 473 1273 473 1281 451 c 0,144,145
 1312 360 1312 360 1312 277 c 0,146,147
 1312 216 1312 216 1296 160 c 0,87,88
1108 741 m 0,148,149
 1111 753 1111 753 1111 767 c 0,150,151
 1111 778 1111 778 1108.5 793 c 128,-1,152
 1106 808 1106 808 1102 823.5 c 128,-1,153
 1098 839 1098 839 1091.5 851 c 128,-1,154
 1085 863 1085 863 1074 873 c 0,155,156
 1058 895 1058 895 1030 899 c 0,157,158
 1020 902 1020 902 1009 902 c 0,159,160
 976 902 976 902 966 863 c 0,161,162
 964 858 964 858 964 852 c 128,-1,163
 964 846 964 846 964 843 c 0,164,165
 964 819 964 819 974 786 c 0,166,167
 979 772 979 772 986 758 c 0,168,169
 991 748 991 748 1000 733 c 1,170,171
 1012 721 1012 721 1024 711.5 c 128,-1,172
 1036 702 1036 702 1046.5 699 c 128,-1,173
 1057 696 1057 696 1064 696 c 0,174,175
 1080 696 1080 696 1091.5 706 c 128,-1,176
 1103 716 1103 716 1108 741 c 0,148,149
1144 247 m 0,177,178
 1146 259 1146 259 1147.5 269 c 128,-1,179
 1149 279 1149 279 1149 291 c 0,180,181
 1149 310 1149 310 1145 328.5 c 128,-1,182
 1141 347 1141 347 1134.5 367 c 128,-1,183
 1128 387 1128 387 1123 397.5 c 128,-1,184
 1118 408 1118 408 1108 421 c 0,185,186
 1090 442 1090 442 1067 450 c 2,187,-1
 1055 453 l 1,188,-1
 1043 456 l 1,189,190
 1021 456 1021 456 1005 439.5 c 128,-1,191
 989 423 989 423 985 389 c 0,192,193
 985 358 985 358 988 333.5 c 128,-1,194
 991 309 991 309 999 279 c 0,195,196
 1004 262 1004 262 1010 249 c 128,-1,197
 1016 236 1016 236 1026 224 c 0,198,199
 1034 211 1034 211 1045.5 202.5 c 128,-1,200
 1057 194 1057 194 1068.5 190 c 128,-1,201
 1080 186 1080 186 1090 186 c 0,202,203
 1110 186 1110 186 1124 200 c 128,-1,204
 1138 214 1138 214 1144 247 c 0,177,178
EndSplineSet
EndChar

StartChar: acute
Encoding: 180 180 115
Width: 1139
GlyphClass: 2
Flags: W
LayerCount: 2
Fore
SplineSet
304 1187 m 0,0,1
 268 1187 268 1187 240.5 1215 c 128,-1,2
 213 1243 213 1243 213 1279 c 0,3,4
 213 1313 213 1313 244 1344 c 0,5,6
 287 1386 287 1386 375 1503 c 0,7,8
 441 1589 441 1589 522 1646 c 0,9,10
 549 1665 549 1665 575 1665 c 0,11,12
 611 1665 611 1665 638 1636.5 c 128,-1,13
 665 1608 665 1608 665 1572 c 0,14,15
 665 1532 665 1532 627 1502 c 0,16,17
 557 1446 557 1446 492 1357 c 0,18,19
 424 1263 424 1263 363 1212 c 0,20,21
 335 1187 335 1187 304 1187 c 0,0,1
EndSplineSet
EndChar

StartChar: paragraph
Encoding: 182 182 116
Width: 1421
GlyphClass: 2
Flags: W
LayerCount: 2
Fore
SplineSet
1326 1249 m 0,0,1
 1326 1076 1326 1076 1239 543 c 0,2,3
 1149 -17 1149 -17 1091 -125 c 0,4,5
 1060 -184 1060 -184 1011 -184 c 0,6,7
 974 -184 974 -184 946 -159 c 128,-1,8
 918 -134 918 -134 918 -98 c 0,9,10
 918 -84 918 -84 924 -63 c 0,11,12
 999 175 999 175 1072 590 c 0,13,14
 1148 1024 1148 1024 1148 1249 c 0,15,16
 1148 1300 1148 1300 1132.5 1400.5 c 128,-1,17
 1117 1501 1117 1501 1117 1551 c 0,18,19
 1117 1637 1117 1637 1208 1637 c 0,20,21
 1273 1637 1273 1637 1295 1560 c 0,22,23
 1326 1445 1326 1445 1326 1249 c 0,0,1
819 1428 m 1,24,25
 553 1365 553 1365 417 1250 c 0,26,27
 249 1106 249 1106 249 858 c 0,28,29
 249 723 249 723 393 639 c 0,30,31
 515 568 515 568 662 568 c 0,32,33
 704 568 704 568 764 588 c 1,34,35
 821 915 821 915 821 1276 c 1,36,-1
 819 1428 l 1,24,25
995 1477 m 1,37,-1
 998 1380 l 1,38,39
 998 1003 998 1003 948 587 c 0,40,41
 885 63 885 63 817 -137 c 0,42,43
 795 -196 795 -196 736 -196 c 0,44,45
 699 -196 699 -196 671 -171.5 c 128,-1,46
 643 -147 643 -147 643 -110 c 0,47,48
 643 -99 643 -99 647 -82 c 0,49,50
 670 10 670 10 691 156 c 2,51,-1
 726 396 l 1,52,53
 693 390 693 390 662 390 c 0,54,55
 438 390 438 390 265 510 c 0,56,57
 71 644 71 644 71 858 c 0,58,59
 71 1109 71 1109 213 1291 c 0,60,61
 349 1465 349 1465 592 1551 c 1,62,-1
 949 1650 l 2,63,64
 970 1657 970 1657 984 1657 c 0,65,66
 1021 1657 1021 1657 1046 1628.5 c 128,-1,67
 1071 1600 1071 1600 1071 1563 c 0,68,69
 1071 1499 1071 1499 995 1477 c 1,37,-1
EndSplineSet
EndChar

StartChar: cedilla
Encoding: 184 184 118
Width: 1139
GlyphClass: 2
Flags: W
LayerCount: 2
Fore
SplineSet
865 -196 m 0,0,1
 865 -320 865 -320 804.5 -382.5 c 128,-1,2
 744 -445 744 -445 623 -445 c 0,3,4
 538 -445 538 -445 462 -413 c 0,5,6
 366 -371 366 -371 366 -298 c 0,7,8
 366 -244 366 -244 434 -244 c 0,9,10
 470 -244 470 -244 515.5 -268.5 c 128,-1,11
 561 -293 561 -293 612 -293 c 0,12,13
 661 -292 661 -292 685 -269 c 128,-1,14
 709 -246 709 -246 709 -201 c 0,15,16
 709 -141 709 -141 639 -91 c 0,17,18
 583 -51 583 -51 514 -34 c 0,19,20
 449 -19 449 -19 449 39 c 0,21,22
 449 115 449 115 521 115 c 0,23,24
 641 115 641 115 751 20 c 0,25,26
 865 -78 865 -78 865 -196 c 0,0,1
EndSplineSet
EndChar

StartChar: uni00B9
Encoding: 185 185 119
Width: 1302
GlyphClass: 2
Flags: W
LayerCount: 2
Fore
SplineSet
1149 1518 m 0,0,1
 948 1225 948 1225 751 831 c 1,2,3
 618 548 618 548 485 265 c 0,4,5
 368 17 368 17 314 -18 c 1,6,7
 300 -16 300 -16 294 -8 c 128,-1,8
 288 0 288 0 288 23 c 0,9,10
 288 56 288 56 303.5 129.5 c 128,-1,11
 319 203 319 203 486 563 c 0,12,13
 667 954 667 954 822 1228 c 0,14,15
 1016 1572 1016 1572 1082 1572 c 0,16,17
 1107 1572 1107 1572 1124 1565 c 0,18,19
 1150 1554 1150 1554 1150 1530 c 0,20,21
 1150 1522 1150 1522 1149 1518 c 0,0,1
1215 324 m 0,22,23
 1215 313 1215 313 1184 300 c 0,24,25
 1169 294 1169 294 1128 281 c 1,26,27
 1138 219 1138 219 1146 160.5 c 128,-1,28
 1154 102 1154 102 1154 65 c 0,29,30
 1154 46 1154 46 1153 36 c 128,-1,31
 1152 26 1152 26 1149 5 c 1,32,-1
 1086 5 l 1,33,34
 1075 87 1075 87 1069 130 c 0,35,36
 1058 207 1058 207 1035 257 c 1,37,38
 976 236 976 236 909.5 219.5 c 128,-1,39
 843 203 843 203 807 203 c 0,40,41
 763 203 763 203 743 217.5 c 128,-1,42
 723 232 723 232 720.5 254.5 c 128,-1,43
 718 277 718 277 718 292 c 0,44,45
 718 388 718 388 788 568 c 0,46,47
 850 728 850 728 934.5 871.5 c 128,-1,48
 1019 1015 1019 1015 1058 1022 c 1,49,50
 1066 1006 1066 1006 1069 990 c 128,-1,51
 1072 974 1072 974 1072 955 c 0,52,53
 1072 947 1072 947 1070 901 c 128,-1,54
 1068 855 1068 855 1068 810 c 0,55,56
 1068 719 1068 719 1073 633 c 0,57,58
 1075 601 1075 601 1086 476 c 1,59,60
 1104 476 1104 476 1136.5 484 c 128,-1,61
 1169 492 1169 492 1202 500 c 1,62,63
 1210 485 1210 485 1212.5 432.5 c 128,-1,64
 1215 380 1215 380 1215 324 c 0,22,23
1017 447 m 1,65,66
 1007 514 1007 514 1001 578 c 0,67,68
 992 670 992 670 992 743 c 1,69,70
 964 708 964 708 903.5 587.5 c 128,-1,71
 843 467 843 467 828 413 c 1,72,73
 877 413 877 413 941 427 c 0,74,75
 962 432 962 432 1017 447 c 1,65,66
527 994 m 0,76,77
 527 983 527 983 498 970 c 0,78,79
 484 964 484 964 446 951 c 1,80,81
 455 889 455 889 462.5 830.5 c 128,-1,82
 470 772 470 772 470 735 c 0,83,84
 470 716 470 716 469 706 c 128,-1,85
 468 696 468 696 466 675 c 1,86,-1
 407 675 l 1,87,88
 397 757 397 757 391 800 c 0,89,90
 381 877 381 877 360 927 c 1,91,92
 305 906 305 906 243 889.5 c 128,-1,93
 181 873 181 873 148 873 c 0,94,95
 107 873 107 873 88.5 887.5 c 128,-1,96
 70 902 70 902 67.5 924.5 c 128,-1,97
 65 947 65 947 65 962 c 0,98,99
 65 1058 65 1058 130 1238 c 0,100,101
 188 1398 188 1398 266.5 1541.5 c 128,-1,102
 345 1685 345 1685 381 1692 c 1,103,104
 388 1676 388 1676 391 1660 c 128,-1,105
 394 1644 394 1644 394 1625 c 0,106,107
 394 1617 394 1617 392 1571 c 128,-1,108
 390 1525 390 1525 390 1480 c 0,109,110
 390 1389 390 1389 395 1303 c 0,111,112
 397 1271 397 1271 407 1146 c 1,113,114
 424 1146 424 1146 454 1154 c 128,-1,115
 484 1162 484 1162 515 1170 c 1,116,117
 522 1155 522 1155 524.5 1102.5 c 128,-1,118
 527 1050 527 1050 527 994 c 0,76,77
343 1117 m 1,119,120
 334 1184 334 1184 328 1248 c 0,121,122
 320 1340 320 1340 320 1413 c 1,123,124
 294 1378 294 1378 237.5 1257.5 c 128,-1,125
 181 1137 181 1137 167 1083 c 1,126,127
 213 1083 213 1083 272 1097 c 0,128,129
 292 1102 292 1102 343 1117 c 1,119,120
EndSplineSet
EndChar

StartChar: ordmasculine
Encoding: 186 186 120
Width: 799
GlyphClass: 2
Flags: W
LayerCount: 2
Fore
SplineSet
741 1244 m 0,0,1
 741 1132 741 1132 725 1050 c 0,2,3
 699 922 699 922 636 851 c 0,4,5
 556 762 556 762 415 762 c 0,6,7
 255 762 255 762 164 835 c 0,8,9
 91 893 91 893 62 998 c 0,10,11
 41 1072 41 1072 41 1174 c 0,12,13
 41 1390 41 1390 125 1533 c 0,14,15
 185 1635 185 1635 279 1691 c 0,16,17
 338 1726 338 1726 358 1726 c 0,18,19
 432 1726 432 1726 518 1671 c 0,20,21
 613 1610 613 1610 672 1507 c 0,22,23
 741 1388 741 1388 741 1244 c 0,0,1
608 1196 m 0,24,25
 608 1285 608 1285 568.5 1360.5 c 128,-1,26
 529 1436 529 1436 469 1430 c 1,27,28
 428 1383 428 1383 394 1383 c 0,29,30
 357 1383 357 1383 265 1435 c 1,31,32
 221 1403 221 1403 198 1364 c 0,33,34
 163 1305 163 1305 163 1234 c 0,35,36
 163 1210 163 1210 165 1196 c 0,37,38
 179 1089 179 1089 256 1043 c 0,39,40
 305 1014 305 1014 373 1014 c 0,41,42
 383 1014 383 1014 391 1014.5 c 128,-1,43
 399 1015 399 1015 403 1016 c 0,44,45
 493 1016 493 1016 550.5 1066 c 128,-1,46
 608 1116 608 1116 608 1196 c 0,24,25
EndSplineSet
EndChar

StartChar: guillemotright
Encoding: 187 187 121
Width: 1183
GlyphClass: 2
Flags: W
LayerCount: 2
Fore
SplineSet
802 614 m 1,0,1
 746 573 746 573 664 487 c 0,2,3
 567 386 567 386 531.5 355 c 128,-1,4
 496 324 496 324 496 287 c 256,5,6
 496 250 496 250 523 222 c 128,-1,7
 550 194 550 194 586 194 c 0,8,9
 613 194 613 194 641 215 c 0,10,11
 681 244 681 244 812 381 c 0,12,13
 913 486 913 486 1005 522 c 0,14,15
 1081 550 1081 550 1081 605 c 0,16,17
 1081 655 1081 655 1012 688 c 0,18,19
 919 733 919 733 808 850 c 0,20,21
 653 1012 653 1012 623.5 1036.5 c 128,-1,22
 594 1061 594 1061 564 1061 c 0,23,24
 528 1061 528 1061 500.5 1033.5 c 128,-1,25
 473 1006 473 1006 473 969 c 0,26,27
 473 935 473 935 504 905 c 0,28,29
 599 803 599 803 802 614 c 1,0,1
348 592 m 1,30,31
 292 551 292 551 211 466 c 0,32,33
 114 365 114 365 78 333.5 c 128,-1,34
 42 302 42 302 42 265 c 0,35,36
 42 229 42 229 69 200.5 c 128,-1,37
 96 172 96 172 132 172 c 0,38,39
 159 172 159 172 187 193 c 0,40,41
 227 222 227 222 359 360 c 0,42,43
 459 465 459 465 552 500 c 0,44,45
 627 529 627 529 627 583 c 0,46,47
 627 634 627 634 559 667 c 0,48,49
 465 711 465 711 354 828 c 0,50,51
 200 990 200 990 170 1015 c 128,-1,52
 140 1040 140 1040 110 1040 c 0,53,54
 74 1040 74 1040 46.5 1012 c 128,-1,55
 19 984 19 984 19 948 c 0,56,57
 19 914 19 914 50 883 c 0,58,59
 146 781 146 781 348 592 c 1,30,31
EndSplineSet
EndChar

StartChar: onequarter
Encoding: 188 188 122
Width: 1302
GlyphClass: 2
Flags: W
LayerCount: 2
Fore
SplineSet
1149 1518 m 0,0,1
 948 1225 948 1225 751 831 c 1,2,3
 618 548 618 548 485 265 c 0,4,5
 368 17 368 17 314 -18 c 1,6,7
 300 -16 300 -16 294 -8 c 128,-1,8
 288 0 288 0 288 23 c 0,9,10
 288 56 288 56 303.5 129.5 c 128,-1,11
 319 203 319 203 486 563 c 0,12,13
 667 954 667 954 822 1228 c 0,14,15
 1016 1572 1016 1572 1082 1572 c 0,16,17
 1107 1572 1107 1572 1124 1565 c 0,18,19
 1150 1554 1150 1554 1150 1530 c 0,20,21
 1150 1522 1150 1522 1149 1518 c 0,0,1
1215 324 m 0,22,23
 1215 313 1215 313 1184 300 c 0,24,25
 1169 294 1169 294 1128 281 c 1,26,27
 1138 219 1138 219 1146 160.5 c 128,-1,28
 1154 102 1154 102 1154 65 c 0,29,30
 1154 46 1154 46 1153 36 c 128,-1,31
 1152 26 1152 26 1149 5 c 1,32,-1
 1086 5 l 1,33,34
 1075 87 1075 87 1069 130 c 0,35,36
 1058 207 1058 207 1035 257 c 1,37,38
 976 236 976 236 909.5 219.5 c 128,-1,39
 843 203 843 203 807 203 c 0,40,41
 763 203 763 203 743 217.5 c 128,-1,42
 723 232 723 232 720.5 254.5 c 128,-1,43
 718 277 718 277 718 292 c 0,44,45
 718 388 718 388 788 568 c 0,46,47
 850 728 850 728 934.5 871.5 c 128,-1,48
 1019 1015 1019 1015 1058 1022 c 1,49,50
 1066 1006 1066 1006 1069 990 c 128,-1,51
 1072 974 1072 974 1072 955 c 0,52,53
 1072 947 1072 947 1070 901 c 128,-1,54
 1068 855 1068 855 1068 810 c 0,55,56
 1068 719 1068 719 1073 633 c 0,57,58
 1075 601 1075 601 1086 476 c 1,59,60
 1104 476 1104 476 1136.5 484 c 128,-1,61
 1169 492 1169 492 1202 500 c 1,62,63
 1210 485 1210 485 1212.5 432.5 c 128,-1,64
 1215 380 1215 380 1215 324 c 0,22,23
453 666 m 1,65,66
 341 619 341 619 226 598 c 0,67,68
 148 584 148 584 86 584 c 0,69,70
 75 584 75 584 68 584 c 128,-1,71
 61 584 61 584 56 585 c 1,72,-1
 68 743 l 1,73,74
 76 748 76 748 137 753 c 128,-1,75
 198 758 198 758 205.5 763.5 c 128,-1,76
 213 769 213 769 213 855 c 0,77,78
 213 957 213 957 205.5 1080.5 c 128,-1,79
 198 1204 198 1204 189 1232 c 1,80,81
 171 1188 171 1188 161 1141 c 128,-1,82
 151 1094 151 1094 143 1052 c 1,83,84
 135 1045 135 1045 127 1045 c 0,85,86
 115 1045 115 1045 107 1066.5 c 128,-1,87
 99 1088 99 1088 99 1121 c 1,88,89
 107 1186 107 1186 132 1284 c 0,90,91
 154 1366 154 1366 176 1450 c 128,-1,92
 198 1534 198 1534 198 1560 c 1,93,94
 204 1567 204 1567 215.5 1570.5 c 128,-1,95
 227 1574 227 1574 242 1574 c 0,96,97
 275 1574 275 1574 284 1560 c 1,98,-1
 300 774 l 1,99,100
 323 774 323 774 348 780 c 0,101,102
 400 794 400 794 453 809 c 1,103,-1
 453 666 l 1,65,66
1017 447 m 1,104,105
 1007 514 1007 514 1001 578 c 0,106,107
 992 670 992 670 992 743 c 1,108,109
 964 708 964 708 903.5 587.5 c 128,-1,110
 843 467 843 467 828 413 c 1,111,112
 877 413 877 413 941 427 c 0,113,114
 962 432 962 432 1017 447 c 1,104,105
EndSplineSet
EndChar

StartChar: onehalf
Encoding: 189 189 123
Width: 1302
GlyphClass: 2
Flags: W
LayerCount: 2
Fore
SplineSet
1149 1518 m 0,0,1
 948 1225 948 1225 751 831 c 1,2,3
 618 548 618 548 485 265 c 0,4,5
 368 17 368 17 314 -18 c 1,6,7
 300 -16 300 -16 294 -8 c 128,-1,8
 288 0 288 0 288 23 c 0,9,10
 288 56 288 56 303.5 129.5 c 128,-1,11
 319 203 319 203 486 563 c 0,12,13
 667 954 667 954 822 1228 c 0,14,15
 1016 1572 1016 1572 1082 1572 c 0,16,17
 1107 1572 1107 1572 1124 1565 c 0,18,19
 1150 1554 1150 1554 1150 1530 c 0,20,21
 1150 1522 1150 1522 1149 1518 c 0,0,1
453 666 m 1,22,23
 341 619 341 619 226 598 c 0,24,25
 148 584 148 584 86 584 c 0,26,27
 75 584 75 584 68 584 c 128,-1,28
 61 584 61 584 56 585 c 1,29,-1
 68 743 l 1,30,31
 76 748 76 748 137 753 c 128,-1,32
 198 758 198 758 205.5 763.5 c 128,-1,33
 213 769 213 769 213 855 c 0,34,35
 213 957 213 957 205.5 1080.5 c 128,-1,36
 198 1204 198 1204 189 1232 c 1,37,38
 171 1188 171 1188 161 1141 c 128,-1,39
 151 1094 151 1094 143 1052 c 1,40,41
 135 1045 135 1045 127 1045 c 0,42,43
 115 1045 115 1045 107 1066.5 c 128,-1,44
 99 1088 99 1088 99 1121 c 1,45,46
 107 1186 107 1186 132 1284 c 0,47,48
 154 1366 154 1366 176 1450 c 128,-1,49
 198 1534 198 1534 198 1560 c 1,50,51
 204 1567 204 1567 215.5 1570.5 c 128,-1,52
 227 1574 227 1574 242 1574 c 0,53,54
 275 1574 275 1574 284 1560 c 1,55,-1
 300 774 l 1,56,57
 323 774 323 774 348 780 c 0,58,59
 400 794 400 794 453 809 c 1,60,-1
 453 666 l 1,22,23
1299 222 m 1,61,62
 1299 135 1299 135 1190 47 c 0,63,64
 1077 -45 1077 -45 953 -45 c 0,65,66
 908 -45 908 -45 889 -6 c 0,67,68
 874 25 874 25 874 78 c 0,69,70
 874 95 874 95 875 108 c 128,-1,71
 876 121 876 121 878 143 c 0,72,73
 878 238 878 238 908 334 c 0,74,75
 926 391 926 391 975 505 c 128,-1,76
 1024 619 1024 619 1043 689 c 0,77,78
 1044 694 1044 694 1052 716.5 c 128,-1,79
 1060 739 1060 739 1060 750 c 0,80,81
 1060 777 1060 777 1025 777 c 0,82,83
 959 777 959 777 933 705 c 0,84,85
 917 661 917 661 917 597 c 0,86,87
 917 586 917 586 917 584.5 c 128,-1,88
 917 583 917 583 917 582 c 2,89,-1
 917 498 l 2,90,91
 917 479 917 479 895.5 455.5 c 128,-1,92
 874 432 874 432 844 432 c 0,93,94
 835 432 835 432 824 435 c 1,95,96
 824 440 824 440 819.5 499 c 128,-1,97
 815 558 815 558 815 589 c 0,98,99
 815 626 815 626 816.5 642.5 c 128,-1,100
 818 659 818 659 824 689 c 0,101,102
 863 865 863 865 926 929 c 0,103,104
 982 986 982 986 1070 986 c 0,105,106
 1119 986 1119 986 1137 939 c 0,107,108
 1149 907 1149 907 1149 841 c 2,109,-1
 1149 809 l 2,110,111
 1149 677 1149 677 1114 549 c 0,112,113
 1091 464 1091 464 1039 339 c 0,114,115
 982 201 982 201 968 152 c 1,116,117
 975 148 975 148 982.5 145.5 c 128,-1,118
 990 143 990 143 1002 143 c 0,119,120
 1042 143 1042 143 1098 180 c 0,121,122
 1268 292 1268 292 1274 294 c 1,123,124
 1276 273 1276 273 1288 245 c 0,125,126
 1291 236 1291 236 1299 222 c 1,61,62
EndSplineSet
EndChar

StartChar: threequarters
Encoding: 190 190 124
Width: 1302
GlyphClass: 2
Flags: W
LayerCount: 2
Fore
SplineSet
1149 1518 m 0,0,1
 948 1225 948 1225 751 831 c 1,2,3
 618 548 618 548 485 265 c 0,4,5
 368 17 368 17 314 -18 c 1,6,7
 300 -16 300 -16 294 -8 c 128,-1,8
 288 0 288 0 288 23 c 0,9,10
 288 56 288 56 303.5 129.5 c 128,-1,11
 319 203 319 203 486 563 c 0,12,13
 667 954 667 954 822 1228 c 0,14,15
 1016 1572 1016 1572 1082 1572 c 0,16,17
 1107 1572 1107 1572 1124 1565 c 0,18,19
 1150 1554 1150 1554 1150 1530 c 0,20,21
 1150 1522 1150 1522 1149 1518 c 0,0,1
1215 324 m 0,22,23
 1215 313 1215 313 1184 300 c 0,24,25
 1169 294 1169 294 1128 281 c 1,26,27
 1138 219 1138 219 1146 160.5 c 128,-1,28
 1154 102 1154 102 1154 65 c 0,29,30
 1154 46 1154 46 1153 36 c 128,-1,31
 1152 26 1152 26 1149 5 c 1,32,-1
 1086 5 l 1,33,34
 1075 87 1075 87 1069 130 c 0,35,36
 1058 207 1058 207 1035 257 c 1,37,38
 976 236 976 236 909.5 219.5 c 128,-1,39
 843 203 843 203 807 203 c 0,40,41
 763 203 763 203 743 217.5 c 128,-1,42
 723 232 723 232 720.5 254.5 c 128,-1,43
 718 277 718 277 718 292 c 0,44,45
 718 388 718 388 788 568 c 0,46,47
 850 728 850 728 934.5 871.5 c 128,-1,48
 1019 1015 1019 1015 1058 1022 c 1,49,50
 1066 1006 1066 1006 1069 990 c 128,-1,51
 1072 974 1072 974 1072 955 c 0,52,53
 1072 947 1072 947 1070 901 c 128,-1,54
 1068 855 1068 855 1068 810 c 0,55,56
 1068 719 1068 719 1073 633 c 0,57,58
 1075 601 1075 601 1086 476 c 1,59,60
 1104 476 1104 476 1136.5 484 c 128,-1,61
 1169 492 1169 492 1202 500 c 1,62,63
 1210 485 1210 485 1212.5 432.5 c 128,-1,64
 1215 380 1215 380 1215 324 c 0,22,23
1017 447 m 1,65,66
 1007 514 1007 514 1001 578 c 0,67,68
 992 670 992 670 992 743 c 1,69,70
 964 708 964 708 903.5 587.5 c 128,-1,71
 843 467 843 467 828 413 c 1,72,73
 877 413 877 413 941 427 c 0,74,75
 962 432 962 432 1017 447 c 1,65,66
482 882 m 0,76,77
 482 755 482 755 401.5 629.5 c 128,-1,78
 321 504 321 504 243 504 c 0,79,80
 188 504 188 504 166 545 c 0,81,82
 149 576 149 576 149 633 c 0,83,84
 149 672 149 672 169 707 c 0,85,86
 186 736 186 736 216 759 c 1,87,88
 252 743 252 743 252 706 c 0,89,90
 252 698 252 698 249 690 c 1,91,92
 300 704 300 704 354 783 c 0,93,94
 401 852 401 852 401 882 c 0,95,96
 401 895 401 895 382 907 c 0,97,98
 356 923 356 923 311 923 c 0,99,100
 262 923 262 923 216 892 c 0,101,102
 202 883 202 883 141 828 c 1,103,104
 116 828 116 828 107.5 845.5 c 128,-1,105
 99 863 99 863 99 900 c 0,106,107
 99 916 99 916 100 955.5 c 128,-1,108
 101 995 101 995 101 998 c 0,109,110
 164 1089 164 1089 202 1152 c 0,111,112
 279 1278 279 1278 279 1320 c 0,113,114
 279 1343 279 1343 258 1340 c 0,115,116
 208 1333 208 1333 176 1280 c 0,117,118
 164 1261 164 1261 119 1106 c 1,119,120
 105 1092 105 1092 92 1092 c 256,121,122
 79 1092 79 1092 65 1106 c 1,123,124
 59 1136 59 1136 59 1168 c 0,125,126
 59 1220 59 1220 75 1295 c 0,127,128
 97 1395 97 1395 143 1454 c 0,129,130
 197 1524 197 1524 276 1524 c 0,131,132
 320 1524 320 1524 343 1482.5 c 128,-1,133
 366 1441 366 1441 366 1382 c 0,134,135
 366 1311 366 1311 352 1257 c 128,-1,136
 338 1203 338 1203 276 1088 c 1,137,138
 306 1094 306 1094 331 1094 c 0,139,140
 414 1094 414 1094 452 1025 c 0,141,142
 482 970 482 970 482 882 c 0,76,77
EndSplineSet
EndChar

StartChar: AE
Encoding: 198 198 130
Width: 2226
GlyphClass: 2
Flags: W
LayerCount: 2
Fore
SplineSet
1152 672 m 1,0,1
 1046 669 1046 669 880 653 c 2,2,-1
 608 628 l 1,3,4
 521 509 521 509 351 243 c 2,5,-1
 230 58 l 2,6,7
 197 12 197 12 150 12 c 0,8,9
 110 12 110 12 78 41.5 c 128,-1,10
 46 71 46 71 46 111 c 0,11,12
 46 138 46 138 65 168 c 0,13,14
 376 676 376 676 604 942 c 1,15,-1
 876 1288 l 1,16,17
 1056 1507 1056 1507 1192 1570 c 0,18,19
 1226 1586 1226 1586 1262 1586 c 0,20,21
 1304 1586 1304 1586 1334 1557 c 1,22,23
 1454 1589 1454 1589 1560.5 1605 c 128,-1,24
 1667 1621 1667 1621 1761 1621 c 0,25,26
 2023 1621 2023 1621 2149 1563 c 0,27,28
 2216 1532 2216 1532 2216 1467 c 0,29,30
 2216 1425 2216 1425 2187.5 1393.5 c 128,-1,31
 2159 1362 2159 1362 2118 1362 c 0,32,33
 2106 1362 2106 1362 2087 1367 c 0,34,35
 1900 1415 1900 1415 1761 1415 c 0,36,37
 1679 1415 1679 1415 1582 1400 c 128,-1,38
 1485 1385 1485 1385 1373 1354 c 1,39,40
 1382 1291 1382 1291 1382 1250 c 0,41,42
 1382 1110 1382 1110 1365 868 c 1,43,-1
 1803 910 l 2,44,45
 1989 930 1989 930 2040 930 c 0,46,47
 2085 930 2085 930 2114 900.5 c 128,-1,48
 2143 871 2143 871 2143 826 c 0,49,50
 2143 742 2143 742 2052 724 c 1,51,-1
 1814 704 l 1,52,-1
 1352 661 l 1,53,54
 1343 519 1343 519 1343 409 c 0,55,56
 1343 183 1343 183 1375 149 c 0,57,58
 1402 121 1402 121 1532 121 c 0,59,60
 1594 121 1594 121 1718.5 124.5 c 128,-1,61
 1843 128 1843 128 1906 128 c 0,62,63
 1925 128 1925 128 1964 134 c 128,-1,64
 2003 140 2003 140 2023 140 c 0,65,66
 2129 140 2129 140 2129 37 c 0,67,68
 2129 -42 2129 -42 2044 -64 c 128,-1,69
 1959 -86 1959 -86 1828 -87 c 2,70,-1
 1610 -85 l 2,71,72
 1319 -85 1319 -85 1229 12 c 0,73,74
 1143 105 1143 105 1143 409 c 0,75,76
 1143 523 1143 523 1152 672 c 1,0,1
781 844 m 1,77,78
 1026 868 1026 868 1165 871 c 1,79,80
 1182 1113 1182 1113 1182 1250 c 0,81,82
 1182 1280 1182 1280 1177 1318 c 1,83,84
 1085 1234 1085 1234 971 1088 c 2,85,-1
 781 844 l 1,77,78
EndSplineSet
EndChar

StartChar: Ccedilla
Encoding: 199 199 131
Width: 1030
GlyphClass: 2
Flags: W
LayerCount: 2
Fore
SplineSet
981 207 m 0,0,1
 981 137 981 137 966.5 87.5 c 128,-1,2
 952 38 952 38 924 0 c 1,3,-1
 277 0 l 1,4,5
 217 38 217 38 174 121 c 0,6,7
 135 197 135 197 112 311 c 0,8,9
 94 403 94 403 84 494 c 128,-1,10
 74 585 74 585 74 689 c 0,11,12
 74 812 74 812 90 949 c 0,13,14
 112 1133 112 1133 158 1277 c 0,15,16
 214 1451 214 1451 292 1547 c 0,17,18
 385 1661 385 1661 506 1661 c 0,19,20
 605 1661 605 1661 675 1597 c 0,21,22
 733 1543 733 1543 768 1444 c 0,23,24
 793 1377 793 1377 805.5 1297 c 128,-1,25
 818 1217 818 1217 818 1151 c 0,26,27
 818 996 818 996 817 958 c 0,28,29
 814 817 814 817 796 716 c 1,30,31
 759 716 759 716 729 703 c 0,32,33
 719 699 719 699 705 689 c 1,34,35
 658 689 658 689 631 720 c 0,36,37
 615 738 615 738 606 763 c 128,-1,38
 597 788 597 788 592.5 817 c 128,-1,39
 588 846 588 846 587 869.5 c 128,-1,40
 586 893 586 893 586 926 c 0,41,42
 586 971 586 971 588.5 1041 c 128,-1,43
 591 1111 591 1111 591 1117 c 0,44,45
 591 1196 591 1196 580 1230 c 0,46,47
 565 1275 565 1275 525 1275 c 0,48,49
 488 1275 488 1275 420 1200 c 0,50,51
 341 1113 341 1113 292 995 c 0,52,53
 229 846 229 846 229 689 c 0,54,55
 229 578 229 578 264 493 c 0,56,57
 288 435 288 435 326 401 c 0,58,59
 369 363 369 363 433 351 c 1,60,-1
 672 351 l 1,61,-1
 913 351 l 1,62,-1
 930 351 l 1,63,64
 959 312 959 312 968 297 c 0,65,66
 981 273 981 273 981 207 c 0,0,1
498 2 m 1,67,-1
 583 -98 l 1,68,-1
 572 -195 l 1,69,-1
 494 -221 l 1,70,-1
 487 -254 l 1,71,-1
 505 -299 l 1,72,-1
 568 -295 l 1,73,-1
 606 -266 l 1,74,-1
 646 -206 l 1,75,-1
 658 -139 l 1,76,-1
 639 -65 l 1,77,-1
 606 -17 l 1,78,-1
 583 2 l 1,79,-1
 498 2 l 1,67,-1
EndSplineSet
EndChar

StartChar: multiply
Encoding: 215 215 146
Width: 984
GlyphClass: 2
Flags: W
LayerCount: 2
Fore
SplineSet
601 638 m 1,0,1
 670 587 670 587 737 514 c 0,2,3
 827 416 827 416 827 361 c 0,4,5
 827 321 827 321 805 290 c 0,6,7
 780 256 780 256 742 256 c 0,8,9
 669 256 669 256 587 388 c 0,10,11
 557 437 557 437 491 481 c 1,12,13
 419 392 419 392 343 295 c 1,14,15
 318 224 318 224 248 224 c 0,16,17
 206 224 206 224 177 250.5 c 128,-1,18
 148 277 148 277 148 318 c 0,19,20
 148 376 148 376 199 434 c 0,21,22
 281 527 281 527 283 531 c 0,23,24
 299 558 299 558 333 612 c 1,25,26
 262 683 262 683 229 713 c 0,27,28
 169 768 169 768 115 804 c 0,29,30
 67 836 67 836 67 885 c 0,31,32
 67 926 67 926 96.5 957.5 c 128,-1,33
 126 989 126 989 166 989 c 0,34,35
 234 989 234 989 452 773 c 1,36,37
 530 866 530 866 617 933 c 0,38,39
 637 948 637 948 673 981 c 1,40,41
 706 1020 706 1020 748 1020 c 0,42,43
 788 1020 788 1020 819.5 989.5 c 128,-1,44
 851 959 851 959 851 919 c 0,45,46
 851 870 851 870 782 811 c 0,47,48
 728 767 728 767 674 723 c 1,49,50
 639 687 639 687 601 638 c 1,0,1
EndSplineSet
EndChar

StartChar: Oslash
Encoding: 216 216 147
Width: 662
GlyphClass: 2
Flags: W
LayerCount: 2
Fore
SplineSet
376 1333 m 1,0,1
 315 1181 315 1181 276 1077 c 1,2,3
 303 1063 303 1063 317 1063 c 0,4,5
 362 1063 362 1063 391 1103.5 c 128,-1,6
 420 1144 420 1144 420 1192 c 0,7,8
 420 1253 420 1253 376 1333 c 1,0,1
170 1179 m 1,9,10
 188 1222 188 1222 224 1309 c 128,-1,11
 260 1396 260 1396 278 1439 c 1,12,-1
 268 1552 l 1,13,14
 213 1536 213 1536 168 1419 c 0,15,16
 139 1345 139 1345 139 1290 c 0,17,18
 139 1233 139 1233 170 1179 c 1,9,10
108 1024 m 1,19,20
 14 1163 14 1163 14 1319 c 0,21,22
 14 1423 14 1423 77 1572 c 0,23,24
 151 1747 151 1747 243 1747 c 0,25,26
 362 1747 362 1747 362 1650 c 0,27,28
 362 1632 362 1632 360 1622 c 1,29,30
 516 1968 516 1968 569 1968 c 0,31,32
 602 1968 602 1968 630.5 1945.5 c 128,-1,33
 659 1923 659 1923 659 1890 c 0,34,35
 659 1876 659 1876 657 1871 c 0,36,37
 553 1722 553 1722 458 1519 c 1,38,39
 503 1468 503 1468 539 1340 c 128,-1,40
 575 1212 575 1212 575 1134 c 0,41,42
 575 1032 575 1032 503.5 953 c 128,-1,43
 432 874 432 874 329 874 c 0,44,45
 274 874 274 874 217 913 c 1,46,47
 131 665 131 665 86 641 c 1,48,49
 14 641 14 641 14 716 c 0,50,51
 14 784 14 784 108 1024 c 1,19,20
EndSplineSet
EndChar

StartChar: germandbls
Encoding: 223 223 153
Width: 908
GlyphClass: 2
Flags: W
LayerCount: 2
Fore
SplineSet
502 1379 m 0,0,1
 402 1379 402 1379 343.5 1283.5 c 128,-1,2
 285 1188 285 1188 268 997 c 0,3,4
 250 788 250 788 250 546 c 0,5,6
 250 485 250 485 253.5 363 c 128,-1,7
 257 241 257 241 257 179 c 0,8,9
 257 25 257 25 249 -22 c 0,10,11
 227 -157 227 -157 144 -157 c 0,12,13
 104 -157 104 -157 75 -131 c 128,-1,14
 46 -105 46 -105 46 -66 c 0,15,16
 46 -59 46 -59 48 -46 c 0,17,18
 68 91 68 91 68 218 c 0,19,20
 68 271 68 271 73 377 c 128,-1,21
 78 483 78 483 78 536 c 0,22,23
 78 575 78 575 77 652.5 c 128,-1,24
 76 730 76 730 76 768 c 0,25,26
 76 1115 76 1115 134 1285 c 0,27,28
 231 1570 231 1570 506 1570 c 0,29,30
 668 1570 668 1570 760 1444 c 0,31,32
 841 1332 841 1332 841 1164 c 0,33,34
 841 1019 841 1019 635 815 c 1,35,36
 760 730 760 730 822.5 594.5 c 128,-1,37
 885 459 885 459 885 274 c 0,38,39
 885 100 885 100 800 13 c 128,-1,40
 715 -74 715 -74 545 -74 c 0,41,42
 455 -74 455 -74 385 -28 c 0,43,44
 305 25 305 25 305 110 c 0,45,46
 305 187 305 187 370 187 c 0,47,48
 400 187 400 187 449.5 150.5 c 128,-1,49
 499 114 499 114 540 114 c 0,50,51
 623 114 623 114 658 145 c 0,52,53
 697 179 697 179 697 263 c 0,54,55
 697 454 697 454 619 569 c 0,56,57
 579 627 579 627 474 705 c 0,58,59
 396 763 396 763 396 813 c 0,60,61
 396 856 396 856 459 916 c 2,62,-1
 576 1026 l 1,63,64
 639 1098 639 1098 639 1170 c 0,65,66
 639 1275 639 1275 605 1327 c 128,-1,67
 571 1379 571 1379 502 1379 c 0,0,1
EndSplineSet
EndChar

StartChar: ccedilla
Encoding: 231 231 160
Width: 876
GlyphClass: 2
Flags: W
LayerCount: 2
Fore
SplineSet
822 183 m 0,0,1
 822 110 822 110 799 56 c 0,2,3
 787 29 787 29 765 0 c 1,4,-1
 237 0 l 1,5,6
 145 56 145 56 100 207 c 0,7,8
 59 345 59 345 59 554 c 0,9,10
 59 686 59 686 89 843 c 0,11,12
 128 1048 128 1048 200 1172 c 0,13,14
 291 1329 291 1329 422 1329 c 0,15,16
 524 1329 524 1329 590 1255 c 0,17,18
 645 1193 645 1193 671 1088 c 0,19,20
 692 1003 692 1003 692 912 c 0,21,22
 692 798 692 798 690 720 c 128,-1,23
 688 642 688 642 669 554 c 1,24,25
 636 554 636 554 609 543 c 0,26,27
 600 540 600 540 588 531 c 1,28,29
 528 531 528 531 506 589 c 0,30,31
 489 633 489 633 489 725 c 0,32,33
 489 761 489 761 490 795 c 128,-1,34
 491 829 491 829 492 863 c 0,35,36
 492 923 492 923 483 949 c 0,37,38
 471 984 471 984 440 984 c 0,39,40
 413 984 413 984 364 929 c 0,41,42
 308 866 308 866 272 778 c 0,43,44
 227 669 227 669 227 554 c 0,45,46
 227 453 227 453 254 399 c 0,47,48
 287 332 287 332 366 318 c 1,49,-1
 771 318 l 1,50,51
 790 289 790 289 809 261 c 0,52,53
 822 238 822 238 822 183 c 0,0,1
428 2 m 1,54,-1
 513 -98 l 1,55,-1
 502 -195 l 1,56,-1
 424 -221 l 1,57,-1
 417 -254 l 1,58,-1
 435 -299 l 1,59,-1
 498 -295 l 1,60,-1
 536 -266 l 1,61,-1
 576 -206 l 1,62,-1
 588 -139 l 1,63,-1
 569 -65 l 1,64,-1
 536 -17 l 1,65,-1
 513 2 l 1,66,-1
 428 2 l 1,54,-1
EndSplineSet
EndChar

StartChar: divide
Encoding: 247 247 175
Width: 984
GlyphClass: 2
Flags: W
LayerCount: 2
Fore
SplineSet
627 732 m 0,0,1
 647 732 647 732 688 734.5 c 128,-1,2
 729 737 729 737 749 737 c 0,3,4
 913 737 913 737 913 643 c 0,5,6
 913 606 913 606 888 578.5 c 128,-1,7
 863 551 863 551 827 551 c 0,8,9
 815 551 815 551 791 555 c 128,-1,10
 767 559 767 559 754 559 c 0,11,12
 662 559 662 559 478.5 552.5 c 128,-1,13
 295 546 295 546 203 546 c 0,14,15
 48 546 48 546 48 638 c 0,16,17
 48 701 48 701 99 717 c 0,18,19
 121 724 121 724 203 724 c 0,20,21
 261 724 261 724 378 730.5 c 128,-1,22
 495 737 495 737 554 737 c 0,23,24
 566 737 566 737 590.5 734.5 c 128,-1,25
 615 732 615 732 627 732 c 0,0,1
453 1140 m 0,26,27
 542 1140 542 1140 542 1051 c 256,28,29
 542 962 542 962 451 962 c 0,30,31
 361 962 361 962 361 1051 c 256,32,33
 361 1140 361 1140 453 1140 c 0,26,27
380 276 m 0,34,35
 380 313 380 313 406 339.5 c 128,-1,36
 432 366 432 366 469 366 c 256,37,38
 506 366 506 366 532 339.5 c 128,-1,39
 558 313 558 313 558 276 c 0,40,41
 558 240 558 240 532 213.5 c 128,-1,42
 506 187 506 187 469 187 c 256,43,44
 432 187 432 187 406 213.5 c 128,-1,45
 380 240 380 240 380 276 c 0,34,35
EndSplineSet
EndChar

StartChar: oslash
Encoding: 248 248 176
Width: 680
GlyphClass: 2
Flags: W
LayerCount: 2
Fore
SplineSet
387 1608 m 1,0,1
 326 1456 326 1456 287 1352 c 1,2,3
 314 1338 314 1338 328 1338 c 0,4,5
 373 1338 373 1338 402 1378.5 c 128,-1,6
 431 1419 431 1419 431 1467 c 0,7,8
 431 1528 431 1528 387 1608 c 1,0,1
181 1454 m 1,9,10
 199 1497 199 1497 235 1584 c 128,-1,11
 271 1671 271 1671 289 1714 c 1,12,-1
 279 1827 l 1,13,14
 224 1811 224 1811 179 1694 c 0,15,16
 150 1620 150 1620 150 1565 c 0,17,18
 150 1508 150 1508 181 1454 c 1,9,10
119 1299 m 1,19,20
 25 1438 25 1438 25 1594 c 0,21,22
 25 1698 25 1698 88 1847 c 0,23,24
 162 2022 162 2022 254 2022 c 0,25,26
 373 2022 373 2022 373 1925 c 0,27,28
 373 1907 373 1907 371 1897 c 1,29,30
 527 2243 527 2243 580 2243 c 0,31,32
 613 2243 613 2243 641.5 2220.5 c 128,-1,33
 670 2198 670 2198 670 2165 c 0,34,35
 670 2151 670 2151 668 2146 c 0,36,37
 564 1997 564 1997 469 1794 c 1,38,39
 514 1743 514 1743 550 1615 c 128,-1,40
 586 1487 586 1487 586 1409 c 0,41,42
 586 1307 586 1307 514.5 1228 c 128,-1,43
 443 1149 443 1149 340 1149 c 0,44,45
 285 1149 285 1149 228 1188 c 1,46,47
 142 940 142 940 97 916 c 1,48,49
 25 916 25 916 25 991 c 0,50,51
 25 1059 25 1059 119 1299 c 1,19,20
EndSplineSet
EndChar

StartChar: yacute
Encoding: 253 253 181
Width: 870
GlyphClass: 2
Flags: W
LayerCount: 2
Fore
SplineSet
444 260 m 1,0,-1
 444 -192 l 1,1,2
 411 -260 411 -260 329 -264 c 1,3,-1
 329 273 l 1,4,5
 53 334 53 334 53 644 c 0,6,7
 53 814 53 814 121 992 c 0,8,9
 198 1197 198 1197 329 1281 c 1,10,-1
 329 1805 l 2,11,12
 329 1870 329 1870 444 1875 c 1,13,-1
 444 1323 l 1,14,15
 471 1327 471 1327 485 1327 c 0,16,17
 569 1327 569 1327 616 1210 c 0,18,19
 651 1123 651 1123 651 1031 c 0,20,21
 651 903 651 903 581 801 c 1,22,-1
 516 801 l 1,23,24
 536 840 536 840 536 879 c 0,25,26
 536 977 536 977 444 1021 c 1,27,-1
 444 434 l 1,28,29
 557 453 557 453 657.5 525 c 128,-1,30
 758 597 758 597 805 692 c 1,31,-1
 817 692 l 2,32,33
 887 692 887 692 887 612 c 0,34,35
 887 460 887 460 747 358 c 0,36,37
 616 262 616 262 444 260 c 1,0,-1
329 438 m 1,38,-1
 329 1033 l 1,39,40
 178 981 178 981 178 671 c 0,41,42
 178 479 178 479 329 438 c 1,38,-1
EndSplineSet
EndChar

StartChar: dotlessi
Encoding: 305 305 208
Width: 574
GlyphClass: 2
Flags: W
LayerCount: 2
Fore
SplineSet
375 454 m 0,0,1
 375 394 375 394 378.5 274.5 c 128,-1,2
 382 155 382 155 382 95 c 0,3,4
 382 51 382 51 355 23 c 128,-1,5
 328 -5 328 -5 284 -5 c 0,6,7
 241 -5 241 -5 213.5 23 c 128,-1,8
 186 51 186 51 186 95 c 0,9,10
 186 155 186 155 182.5 274.5 c 128,-1,11
 179 394 179 394 179 454 c 0,12,13
 179 548 179 548 189 688.5 c 128,-1,14
 199 829 199 829 199 923 c 0,15,16
 199 968 199 968 226.5 996 c 128,-1,17
 254 1024 254 1024 297 1024 c 256,18,19
 340 1024 340 1024 367.5 996 c 128,-1,20
 395 968 395 968 395 923 c 0,21,22
 395 829 395 829 385 688.5 c 128,-1,23
 375 548 375 548 375 454 c 0,0,1
EndSplineSet
EndChar

StartChar: jcircumflex
Encoding: 309 309 212
Width: 826
GlyphClass: 2
Flags: W
LayerCount: 2
Fore
SplineSet
766 1280 m 0,0,1
 766 1244 766 1244 738.5 1216.5 c 128,-1,2
 711 1189 711 1189 674 1189 c 0,3,4
 641 1189 641 1189 611 1218 c 0,5,6
 531 1308 531 1308 361 1478 c 1,7,8
 107 1166 107 1166 35 1166 c 0,9,10
 -1 1166 -1 1166 -28.5 1194 c 128,-1,11
 -56 1222 -56 1222 -56 1258 c 0,12,13
 -56 1293 -56 1293 -26 1323 c 0,14,15
 30 1377 30 1377 279 1659 c 0,16,17
 306 1690 306 1690 340 1690 c 0,18,19
 395 1690 395 1690 472 1623 c 0,20,21
 496 1602 496 1602 581 1511 c 0,22,23
 635 1455 635 1455 740 1341 c 0,24,25
 766 1311 766 1311 766 1280 c 0,0,1
656 -222 m 0,26,27
 656 -361 656 -361 573 -474 c 0,28,29
 483 -597 483 -597 354 -597 c 0,30,31
 139 -597 139 -597 -6 -266 c 0,32,33
 -18 -239 -18 -239 -18 -218 c 0,34,35
 -18 -178 -18 -178 13.5 -149 c 128,-1,36
 45 -120 45 -120 85 -120 c 0,37,38
 144 -120 144 -120 208 -250 c 0,39,40
 224 -284 224 -284 264 -348 c 1,41,42
 303 -398 303 -398 354 -398 c 0,43,44
 398 -398 398 -398 429 -332 c 0,45,46
 453 -282 453 -282 458 -233 c 1,47,-1
 459 -232 l 1,48,49
 460 -115 460 -115 425 367 c 0,50,51
 391 830 391 830 391 918 c 0,52,53
 391 968 391 968 419.5 1007 c 128,-1,54
 448 1046 448 1046 492 1046 c 0,55,56
 526 1046 526 1046 560 1021 c 128,-1,57
 594 996 594 996 596 970 c 0,58,59
 608 773 608 773 629 394 c 0,60,61
 656 -98 656 -98 656 -222 c 0,26,27
EndSplineSet
EndChar

StartChar: kgreenlandic
Encoding: 312 312 215
Width: 1106
GlyphClass: 2
Flags: W
LayerCount: 2
Fore
SplineSet
1038 57 m 0,0,1
 1038 17 1038 17 1006 -12 c 128,-1,2
 974 -41 974 -41 934 -41 c 0,3,4
 882 -41 882 -41 849 17 c 0,5,6
 794 116 794 116 687 260 c 0,7,8
 549 446 549 446 515 497 c 1,9,10
 457 451 457 451 335 368 c 1,11,12
 324 213 324 213 324 66 c 0,13,14
 324 22 324 22 296.5 -6.5 c 128,-1,15
 269 -35 269 -35 226 -35 c 0,16,17
 125 -35 125 -35 125 101 c 0,18,19
 125 184 125 184 136.5 349.5 c 128,-1,20
 148 515 148 515 148 598 c 2,21,-1
 148 1063 l 2,22,23
 148 1107 148 1107 175 1135.5 c 128,-1,24
 202 1164 202 1164 246 1164 c 256,25,26
 290 1164 290 1164 317 1135.5 c 128,-1,27
 344 1107 344 1107 344 1063 c 256,28,29
 344 1019 344 1019 343 929.5 c 128,-1,30
 342 840 342 840 342 795 c 0,31,32
 342 744 342 744 344 616 c 1,33,34
 456 702 456 702 592 836 c 0,35,36
 709 953 709 953 826 1071 c 0,37,38
 861 1105 861 1105 897 1105 c 0,39,40
 937 1105 937 1105 968 1074 c 128,-1,41
 999 1043 999 1043 999 1002 c 0,42,43
 999 930 999 930 667 626 c 1,44,45
 773 481 773 481 880 337 c 0,46,47
 1038 119 1038 119 1038 57 c 0,0,1
EndSplineSet
EndChar

StartChar: Lcommaaccent
Encoding: 315 315 218
Width: 1128
GlyphClass: 2
Flags: W
LayerCount: 2
Fore
SplineSet
1089 135 m 0,0,1
 1089 71 1089 71 1025 41 c 0,2,3
 931 -3 931 -3 739 -41 c 1,4,5
 795 -117 795 -117 795 -196 c 0,6,7
 795 -445 795 -445 553 -445 c 0,8,9
 468 -445 468 -445 392 -413 c 0,10,11
 296 -371 296 -371 296 -298 c 0,12,13
 296 -244 296 -244 364 -244 c 0,14,15
 400 -244 400 -244 445.5 -268.5 c 128,-1,16
 491 -293 491 -293 542 -293 c 0,17,18
 639 -292 639 -292 639 -201 c 0,19,20
 639 -129 639 -129 542 -74 c 1,21,22
 397 -93 397 -93 306 -93 c 0,23,24
 205 -93 205 -93 161 -62 c 0,25,26
 101 -20 101 -20 101 92 c 1,27,28
 101 84 101 84 121 423 c 0,29,30
 147 881 147 881 147 1439 c 0,31,32
 147 1482 147 1482 175.5 1512 c 128,-1,33
 204 1542 204 1542 246 1542 c 0,34,35
 289 1542 289 1542 317.5 1512 c 128,-1,36
 346 1482 346 1482 346 1439 c 0,37,38
 346 874 346 874 319 411 c 0,39,40
 318 383 318 383 306 259 c 0,41,42
 298 176 298 176 300 112 c 1,43,44
 561 109 561 109 960 235 c 0,45,46
 977 240 977 240 992 240 c 0,47,48
 1035 240 1035 240 1064 206 c 0,49,50
 1089 175 1089 175 1089 135 c 0,0,1
EndSplineSet
EndChar

StartChar: lcommaaccent
Encoding: 316 316 219
Width: 561
GlyphClass: 2
Flags: W
LayerCount: 2
Fore
SplineSet
675 -196 m 0,0,1
 675 -445 675 -445 433 -445 c 0,2,3
 348 -445 348 -445 272 -413 c 0,4,5
 176 -371 176 -371 176 -298 c 0,6,7
 176 -244 176 -244 244 -244 c 0,8,9
 280 -244 280 -244 325.5 -268.5 c 128,-1,10
 371 -293 371 -293 422 -293 c 0,11,12
 519 -292 519 -292 519 -201 c 0,13,14
 519 -141 519 -141 449 -91 c 0,15,16
 394 -52 394 -52 324 -34 c 2,17,-1
 319 -33 l 1,18,19
 299 -43 299 -43 272 -43 c 0,20,21
 174 -43 174 -43 174 59 c 0,22,23
 174 180 174 180 185 422.5 c 128,-1,24
 196 665 196 665 196 786 c 0,25,26
 196 944 196 944 201 1147.5 c 128,-1,27
 206 1351 206 1351 206 1509 c 0,28,29
 206 1609 206 1609 304 1609 c 0,30,31
 403 1609 403 1609 403 1509 c 0,32,33
 403 1351 403 1351 398 1147.5 c 128,-1,34
 393 944 393 944 393 786 c 0,35,36
 393 661 393 661 378 289 c 0,37,38
 377 229 377 229 374 111 c 1,39,40
 488 93 488 93 579 4 c 0,41,42
 675 -89 675 -89 675 -196 c 0,0,1
EndSplineSet
EndChar

StartChar: Eng
Encoding: 330 330 231
Width: 1632
GlyphClass: 2
Flags: W
LayerCount: 2
Fore
SplineSet
1547 885 m 0,0,1
 1547 774 1547 774 1544 553.5 c 128,-1,2
 1541 333 1541 333 1541 222 c 0,3,4
 1541 -161 1541 -161 1481 -310 c 0,5,6
 1394 -526 1394 -526 1131 -526 c 0,7,8
 923 -526 923 -526 923 -411 c 0,9,10
 923 -372 923 -372 952.5 -341.5 c 128,-1,11
 982 -311 982 -311 1023 -311 c 0,12,13
 1036 -311 1036 -311 1050 -314 c 0,14,15
 1094 -327 1094 -327 1131 -327 c 0,16,17
 1261 -327 1261 -327 1299 -215 c 0,18,19
 1319 -157 1319 -157 1319 6 c 1,20,21
 1303 18 1303 18 1287 33 c 0,22,23
 880 418 880 418 353 1144 c 1,24,25
 352 1093 352 1093 348 917 c 0,26,27
 345 761 345 761 345 689 c 0,28,29
 345 606 345 606 348.5 440 c 128,-1,30
 352 274 352 274 352 190 c 0,31,32
 352 -79 352 -79 248 -79 c 0,33,34
 193 -79 193 -79 161 -44 c 0,35,36
 132 -13 132 -13 132 30 c 0,37,38
 132 72 132 72 138.5 157 c 128,-1,39
 145 242 145 242 145 284 c 0,40,41
 145 346 145 346 149 469.5 c 128,-1,42
 153 593 153 593 153 655 c 0,43,44
 153 721 153 721 150 854.5 c 128,-1,45
 147 988 147 988 147 1054 c 0,46,47
 147 1117 147 1117 135 1241.5 c 128,-1,48
 123 1366 123 1366 123 1429 c 0,49,50
 123 1475 123 1475 162.5 1513 c 128,-1,51
 202 1551 202 1551 252 1551 c 0,52,53
 305 1551 305 1551 383 1435 c 0,54,55
 632 1062 632 1062 831 815 c 0,56,57
 1068 522 1068 522 1351 255 c 1,58,59
 1354 298 1354 298 1351 382 c 0,60,61
 1348 491 1348 491 1348 508 c 0,62,63
 1348 947 1348 947 1314 1207 c 0,64,65
 1310 1233 1310 1233 1287 1312 c 0,66,67
 1267 1380 1267 1380 1267 1418 c 0,68,69
 1267 1534 1267 1534 1373 1534 c 0,70,71
 1547 1534 1547 1534 1547 885 c 0,0,1
EndSplineSet
EndChar

StartChar: eng
Encoding: 331 331 232
Width: 1072
GlyphClass: 2
Flags: W
LayerCount: 2
Fore
SplineSet
1016 -222 m 0,0,1
 1016 -359 1016 -359 935 -472 c 0,2,3
 845 -597 845 -597 714 -597 c 0,4,5
 585 -597 585 -597 509 -529 c 0,6,7
 449 -475 449 -475 394 -343 c 0,8,9
 382 -314 382 -314 382 -295 c 0,10,11
 382 -255 382 -255 413.5 -226 c 128,-1,12
 445 -197 445 -197 486 -197 c 0,13,14
 541 -197 541 -197 591.5 -297.5 c 128,-1,15
 642 -398 642 -398 714 -398 c 0,16,17
 758 -398 758 -398 791 -329 c 0,18,19
 819 -271 819 -271 819 -222 c 0,20,21
 819 -108 819 -108 793 119.5 c 128,-1,22
 767 347 767 347 767 461 c 0,23,24
 767 493 767 493 770.5 556 c 128,-1,25
 774 619 774 619 774 651 c 0,26,27
 774 867 774 867 694 867 c 0,28,29
 573 867 573 867 458 704 c 0,30,31
 359 563 359 563 336 428 c 0,32,33
 321 341 321 341 321 233 c 0,34,35
 321 203 321 203 327 143 c 128,-1,36
 333 83 333 83 333 53 c 0,37,38
 333 9 333 9 306 -19.5 c 128,-1,39
 279 -48 279 -48 235 -48 c 256,40,41
 191 -48 191 -48 164 -19.5 c 128,-1,42
 137 9 137 9 137 53 c 0,43,44
 137 83 137 83 130.5 143 c 128,-1,45
 124 203 124 203 124 233 c 0,46,47
 124 329 124 329 138.5 519 c 128,-1,48
 153 709 153 709 153 804 c 0,49,50
 153 836 153 836 149.5 899 c 128,-1,51
 146 962 146 962 146 994 c 0,52,53
 146 1036 146 1036 174.5 1064 c 128,-1,54
 203 1092 203 1092 245 1092 c 0,55,56
 324 1092 324 1092 342 1000 c 0,57,58
 345 984 345 984 349 845 c 1,59,60
 517 1069 517 1069 694 1069 c 0,61,62
 858 1069 858 1069 921 919 c 0,63,64
 965 815 965 815 965 611 c 0,65,66
 965 581 965 581 964 529 c 128,-1,67
 963 477 963 477 963 456 c 0,68,69
 963 343 963 343 989.5 117.5 c 128,-1,70
 1016 -108 1016 -108 1016 -222 c 0,0,1
EndSplineSet
EndChar

StartChar: oe
Encoding: 339 339 239
Width: 1837
GlyphClass: 2
Flags: W
LayerCount: 2
Fore
SplineSet
876 153 m 1,0,1
 747 -59 747 -59 514 -59 c 0,2,3
 346 -59 346 -59 225 65 c 0,4,5
 90 203 90 203 83 436 c 0,6,7
 77 662 77 662 197 834 c 0,8,9
 337 1037 337 1037 587 1037 c 0,10,11
 806 1037 806 1037 906 821 c 1,12,13
 1044 1045 1044 1045 1294 1045 c 0,14,15
 1460 1045 1460 1045 1565 989 c 0,16,17
 1694 919 1694 919 1694 777 c 0,18,19
 1694 677 1694 677 1581 595 c 0,20,21
 1531 559 1531 559 1369 483 c 2,22,-1
 987 302 l 1,23,24
 1099 135 1099 135 1321 135 c 0,25,26
 1390 135 1390 135 1483 161 c 0,27,28
 1601 194 1601 194 1635 247.5 c 128,-1,29
 1669 301 1669 301 1708 301 c 0,30,31
 1743 301 1743 301 1770.5 274.5 c 128,-1,32
 1798 248 1798 248 1798 213 c 0,33,34
 1798 102 1798 102 1619 22 c 0,35,36
 1466 -46 1466 -46 1321 -46 c 0,37,38
 1011 -46 1011 -46 876 153 c 1,0,1
1535 785 m 1,39,40
 1449 865 1449 865 1294 865 c 0,41,42
 1050 865 1050 865 970 486 c 1,43,-1
 1277 632 l 2,44,45
 1458 720 1458 720 1535 785 c 1,39,40
783 446 m 0,46,47
 797 833 797 833 574 834 c 0,48,49
 427 835 427 835 346 694 c 0,50,51
 280 581 280 581 280 436 c 256,52,53
 280 291 280 291 359 210 c 0,54,55
 425 143 425 143 514 143 c 0,56,57
 618 143 618 143 693 219 c 0,58,59
 778 303 778 303 783 446 c 0,46,47
EndSplineSet
EndChar

StartChar: rcommaaccent
Encoding: 343 343 243
Width: 984
GlyphClass: 2
Flags: W
LayerCount: 2
Fore
SplineSet
918 809 m 0,0,1
 918 757 918 757 917 739 c 0,2,3
 910 614 910 614 817 614 c 0,4,5
 731 614 731 614 731 713 c 0,6,7
 731 732 731 732 728 783 c 0,8,9
 726 839 726 839 725 867 c 1,10,11
 567 848 567 848 472 778 c 0,12,13
 383 713 383 713 324 582 c 1,14,-1
 324 92 l 1,15,16
 420 55 420 55 487 -23 c 0,17,18
 558 -107 558 -107 558 -196 c 0,19,20
 558 -445 558 -445 316 -445 c 0,21,22
 231 -445 231 -445 155 -413 c 0,23,24
 59 -371 59 -371 59 -298 c 0,25,26
 59 -244 59 -244 127 -244 c 0,27,28
 163 -244 163 -244 208.5 -268.5 c 128,-1,29
 254 -293 254 -293 305 -293 c 0,30,31
 402 -292 402 -292 402 -201 c 0,32,33
 402 -116 402 -116 272 -57 c 1,34,35
 252 -67 252 -67 227 -67 c 0,36,37
 139 -67 139 -67 139 34 c 2,38,-1
 139 736 l 2,39,40
 139 769 139 769 141.5 835 c 128,-1,41
 144 901 144 901 144 934 c 0,42,43
 144 1035 144 1035 232 1035 c 0,44,45
 294 1035 294 1035 313 978 c 0,46,47
 324 947 324 947 324 869 c 1,48,49
 516 1054 516 1054 757 1054 c 0,50,51
 918 1054 918 1054 918 809 c 0,0,1
EndSplineSet
EndChar

StartChar: Scedilla
Encoding: 350 350 250
Width: 1420
GlyphClass: 2
Flags: W
LayerCount: 2
Fore
SplineSet
1321 446 m 0,0,1
 1321 246 1321 246 1162 111 c 0,2,3
 1024 -6 1024 -6 810 -43 c 1,4,5
 865 -118 865 -118 865 -196 c 0,6,7
 865 -445 865 -445 623 -445 c 0,8,9
 538 -445 538 -445 462 -413 c 0,10,11
 366 -371 366 -371 366 -298 c 0,12,13
 366 -244 366 -244 434 -244 c 0,14,15
 470 -244 470 -244 515.5 -268.5 c 128,-1,16
 561 -293 561 -293 612 -293 c 0,17,18
 709 -292 709 -292 709 -201 c 256,19,20
 709 -110 709 -110 566 -51 c 1,21,22
 396 -32 396 -32 279 36 c 0,23,24
 137 119 137 119 134 249 c 0,25,26
 133 291 133 291 162.5 317.5 c 128,-1,27
 192 344 192 344 235 344 c 0,28,29
 284 344 284 344 321 288 c 0,30,31
 372 212 372 212 412 185 c 0,32,33
 497 129 497 129 659 129 c 0,34,35
 814 129 814 129 947 196 c 0,36,37
 1117 282 1117 282 1117 435 c 0,38,39
 1117 561 1117 561 974 634 c 0,40,41
 853 697 853 697 675 702 c 0,42,43
 517 708 517 708 406 771 c 0,44,45
 264 852 264 852 264 1003 c 0,46,47
 264 1181 264 1181 466 1328 c 0,48,49
 659 1467 659 1467 865 1467 c 0,50,51
 962 1467 962 1467 1084 1434 c 0,52,53
 1246 1391 1246 1391 1246 1324 c 0,54,55
 1246 1236 1246 1236 1156 1236 c 0,56,57
 1116 1236 1116 1236 1015.5 1257.5 c 128,-1,58
 915 1279 915 1279 861 1278 c 0,59,60
 705 1276 705 1276 596 1201 c 0,61,62
 484 1124 484 1124 484 1014 c 0,63,64
 484 931 484 931 632 897 c 0,65,66
 687 884 687 884 845 873 c 0,67,68
 1074 856 1074 856 1203 729 c 0,69,70
 1321 613 1321 613 1321 446 c 0,0,1
EndSplineSet
EndChar

StartChar: scedilla
Encoding: 351 351 251
Width: 997
GlyphClass: 2
Flags: W
LayerCount: 2
Fore
SplineSet
912 871 m 0,0,1
 912 826 912 826 884.5 798 c 128,-1,2
 857 770 857 770 814 770 c 0,3,4
 759 770 759 770 737 807 c 0,5,6
 722 833 722 833 711 915 c 1,7,8
 636 896 636 896 480 845 c 1,9,10
 319 781 319 781 318 687 c 1,11,12
 348 676 348 676 377 671 c 0,13,14
 607 630 607 630 719 558 c 0,15,16
 882 453 882 453 882 254 c 0,17,18
 882 8 882 8 583 -48 c 1,19,20
 635 -121 635 -121 635 -196 c 0,21,22
 635 -445 635 -445 393 -445 c 0,23,24
 308 -445 308 -445 232 -413 c 0,25,26
 136 -371 136 -371 136 -298 c 0,27,28
 136 -244 136 -244 204 -244 c 0,29,30
 240 -244 240 -244 285.5 -268.5 c 128,-1,31
 331 -293 331 -293 382 -293 c 0,32,33
 479 -292 479 -292 479 -201 c 0,34,35
 479 -109 479 -109 334 -51 c 1,36,37
 41 -6 41 -6 41 140 c 0,38,39
 41 180 41 180 72.5 210 c 128,-1,40
 104 240 104 240 144 240 c 0,41,42
 175 240 175 240 224 192 c 0,43,44
 248 169 248 169 332 154 c 0,45,46
 399 142 399 142 445 142 c 0,47,48
 529 142 529 142 593 162 c 0,49,50
 686 191 686 191 686 254 c 0,51,52
 686 390 686 390 496 438 c 0,53,54
 479 442 479 442 392 461 c 0,55,56
 259 490 259 490 203 529 c 0,57,58
 122 585 122 585 122 698 c 0,59,60
 122 907 122 907 319 996 c 0,61,62
 379 1023 379 1023 511 1060.5 c 128,-1,63
 643 1098 643 1098 700 1124 c 0,64,65
 741 1142 741 1142 789 1142 c 0,66,67
 832 1142 832 1142 859.5 1114 c 128,-1,68
 887 1086 887 1086 887 1041 c 0,69,70
 887 1012 887 1012 899.5 956 c 128,-1,71
 912 900 912 900 912 871 c 0,0,1
EndSplineSet
EndChar

StartChar: Tbar
Encoding: 358 358 258
Width: 1392
GlyphClass: 2
Flags: W
LayerCount: 2
Fore
SplineSet
1389 1365 m 256,0,1
 1389 1322 1389 1322 1360 1292.5 c 128,-1,2
 1331 1263 1331 1263 1288 1263 c 0,3,4
 1216 1263 1216 1263 1068.5 1274.5 c 128,-1,5
 921 1286 921 1286 846 1285 c 2,6,-1
 761 1285 l 1,7,8
 764 1145 764 1145 785 871 c 1,9,10
 903 862 903 862 959 862 c 0,11,12
 1002 862 1002 862 1030 834 c 128,-1,13
 1058 806 1058 806 1058 763 c 256,14,15
 1058 720 1058 720 1030 692 c 128,-1,16
 1002 664 1002 664 959 664 c 0,17,18
 903 664 903 664 800 671 c 1,19,20
 810 511 810 511 810 388 c 0,21,22
 810 353 810 353 817 282 c 128,-1,23
 824 211 824 211 824 175 c 0,24,25
 824 -8 824 -8 715 -8 c 0,26,27
 673 -8 673 -8 642 21 c 128,-1,28
 611 50 611 50 611 92 c 0,29,30
 611 107 611 107 616.5 137 c 128,-1,31
 622 167 622 167 622 182 c 0,32,33
 622 231 622 231 615 329 c 128,-1,34
 608 427 608 427 608 477 c 0,35,36
 608 568 608 568 601 680 c 1,37,38
 567 680 567 680 497 672 c 128,-1,39
 427 664 427 664 393 664 c 0,40,41
 350 664 350 664 322 693 c 128,-1,42
 294 722 294 722 294 765 c 0,43,44
 294 846 294 846 407 869 c 0,45,46
 455 879 455 879 585 879 c 1,47,48
 573 1013 573 1013 558 1281 c 1,49,-1
 467 1280 l 2,50,51
 246 1278 246 1278 123 1312 c 0,52,53
 42 1335 42 1335 42 1411 c 0,54,55
 42 1457 42 1457 71 1486 c 128,-1,56
 100 1515 100 1515 145 1515 c 0,57,58
 198 1515 198 1515 305.5 1500 c 128,-1,59
 413 1485 413 1485 467 1485 c 0,60,61
 528 1485 528 1485 649.5 1487.5 c 128,-1,62
 771 1490 771 1490 832 1490 c 0,63,64
 908 1490 908 1490 1060 1479 c 128,-1,65
 1212 1468 1212 1468 1288 1468 c 0,66,67
 1331 1468 1331 1468 1360 1438 c 128,-1,68
 1389 1408 1389 1408 1389 1365 c 256,0,1
EndSplineSet
EndChar

StartChar: tbar
Encoding: 359 359 259
Width: 965
GlyphClass: 2
Flags: W
LayerCount: 2
Fore
SplineSet
906 953 m 0,0,1
 906 854 906 854 787 854 c 0,2,3
 774 854 774 854 747.5 855 c 128,-1,4
 721 856 721 856 709 856 c 0,5,6
 686 856 686 856 573 841 c 1,7,-1
 580 680 l 1,8,9
 650 674 650 674 720 669 c 1,10,11
 798 650 798 650 798 573 c 0,12,13
 798 530 798 530 770 502 c 128,-1,14
 742 474 742 474 699 474 c 0,15,16
 645 474 645 474 588 480 c 1,17,18
 595 272 595 272 595 136 c 0,19,20
 595 -64 595 -64 489 -64 c 0,21,22
 449 -64 449 -64 419.5 -38 c 128,-1,23
 390 -12 390 -12 390 27 c 0,24,25
 390 65 390 65 393 141 c 128,-1,26
 396 217 396 217 396 255 c 0,27,28
 396 358 396 358 391 489 c 1,29,30
 371 488 371 488 328 481 c 128,-1,31
 285 474 285 474 263 474 c 0,32,33
 220 474 220 474 192 503 c 128,-1,34
 164 532 164 532 164 575 c 0,35,36
 164 686 164 686 383 689 c 1,37,-1
 376 839 l 1,38,39
 302 842 302 842 154 856 c 1,40,41
 65 869 65 869 65 955 c 0,42,43
 65 997 65 997 91.5 1027 c 128,-1,44
 118 1057 118 1057 161 1057 c 1,45,46
 152 1057 152 1057 371 1040 c 1,47,48
 371 1083 371 1083 366.5 1170 c 128,-1,49
 362 1257 362 1257 362 1300 c 0,50,51
 362 1342 362 1342 391 1369.5 c 128,-1,52
 420 1397 420 1397 462 1397 c 0,53,54
 571 1397 571 1397 571 1170 c 0,55,56
 571 1142 571 1142 569 1098 c 128,-1,57
 567 1054 567 1054 567 1041 c 1,58,59
 693 1057 693 1057 751 1057 c 0,60,61
 825 1057 825 1057 858 1042 c 0,62,63
 906 1019 906 1019 906 953 c 0,0,1
EndSplineSet
EndChar

